<?xml version="1.0" encoding="UTF-8" standalone="no"?>
<svg xmlns:dc="http://purl.org/dc/elements/1.1/"
   xmlns:cc="http://creativecommons.org/ns#"
   xmlns:rdf="http://www.w3.org/1999/02/22-rdf-syntax-ns#"
   xmlns:svg="http://www.w3.org/2000/svg"
   xmlns="http://www.w3.org/2000/svg"
   xmlns:sodipodi="http://sodipodi.sourceforge.net/DTD/sodipodi-0.dtd"
   xmlns:inkscape="http://www.inkscape.org/namespaces/inkscape" id="Capa_1" data-name="Capa 1" viewBox="0 0 227.72102 221.27192" version="1.1" inkscape:version="0.92.5 (2060ec1f9f, 2020-04-08)">
   <metadata id="metadata49">
      <rdf:RDF>
         <cc:Work rdf:about="">
            <dc:format>image/svg+xml</dc:format>
            <dc:type rdf:resource="http://purl.org/dc/dcmitype/StillImage" />
         </cc:Work>
      </rdf:RDF>
   </metadata>
   <sodipodi:namedview pagecolor="#ffffff" bordercolor="#666666" borderopacity="1" objecttolerance="10" gridtolerance="10" guidetolerance="10" inkscape:pageopacity="0" inkscape:pageshadow="2" inkscape:window-width="855" inkscape:window-height="480" id="namedview47" showgrid="false" inkscape:zoom="0.86643658" inkscape:cx="113.86884" inkscape:cy="85.08192" inkscape:window-x="0" inkscape:window-y="27" inkscape:window-maximized="0" inkscape:current-layer="Capa_1" />
   <defs id="defs4">
      <style id="style2">.cls-1{fill:#1d1d1b;}.cls-2{fill:#fff;}</style>
   </defs>
   <path class="cls-2" d="m 80.453842,30.38 a 3,3 0 0 1 -0.74,0.06 q 0.25,-0.69 0.51,-1.35 z" id="path24" inkscape:connector-curvature="0" style="fill:#ffffff" />
   <path class="cls-1" d="m 118.49384,219.18 q 5.64,-3.1 10.9,-6.12 l 12.33,6.31 a 17.09,17.09 0 0 0 24.85,-16.08 l -0.65,-12.83 c 48.82,-33 61.15,-55.86 61.77,-70.12 0.45,-10.27 -4.69,-19.08 -15.26,-26.18 a 2.46,2.46 0 0 0 -0.69,-0.34 v 0 c 0.24,-1.63 0.39,-3.21 0.47,-4.76 0.75,-15.36 -6.46,-26.53 -21.46,-33.25 a 39,39 0 0 0 -4.24,-16.35 c -5.85,-10.82 -17.27,-16.25 -34,-16.17 -7.19,-15.47 -20.07,-23.29 -38.34,-23.29 h -0.66 C 95.223842,0 82.323842,7.83 75.103842,23.28 c -16.66,-0.05 -28,5.37 -33.87,16.17 a 39,39 0 0 0 -4.21,16.34 c -15,6.73 -22.22,17.9 -21.46,33.26 0.08,1.55 0.23,3.13 0.47,4.76 a 2.8,2.8 0 0 0 -0.69,0.35 c -10.6100004,7.1 -15.74000037,15.91 -15.32000037,26.18 0.62,14.24 12.92000037,37 61.61000037,70 l -0.61,12.95 a 17.05,17.05 0 0 0 24.85,16.08 l 12.4,-6.37 q 5.299998,3 10.999998,6.16 c 0,0 3,1.82 4.63,1.79 1.79,-0.01 4.59,-1.77 4.59,-1.77 z" id="path26" inkscape:connector-curvature="0" style="fill:#1d1d1b" />
   <path class="cls-2" d="m 94.613842,195.33 c -8.73,-8.53 -19.18,-19.31 -29.5,-31.22 -17.21,-19.87 -29.37,-37.54 -36.18,-52.46 -5.21,-11.39 -7.3,-21.18 -6.15,-29.11 1.24,-8.24 5.87,-14.48 14.24,-18.97 1.16,19.82 10.48,46.73 27.88,80.43 8.25,16 17.19,31.22 25,43.84 v 0 q 2.44,3.93 4.71,7.49 z" id="path28" inkscape:connector-curvature="0" style="fill:#ffffff" />
   <path class="cls-2" d="m 95.483842,183.56 c -7.63,-12.34 -16.31,-27.2 -24.36,-42.78 -17.47,-33.78 -26.65,-60.78 -27.24,-79.45 v 0 c 0,-0.27 0,-0.53 0,-0.8 v 0 a 48.06,48.06 0 0 1 0.21,-6 30.74,30.74 0 0 1 3.31,-11.77 c 4.28,-7.91 12.47,-12 25,-12.46 -9.78,30.73 0.27,79.21 10.53,114.74 q 1.55,5.35 3.2,10.66 v 0 c 3.01,9.79 6.23,19.3 9.35,27.86 z" id="path30" inkscape:connector-curvature="0" style="fill:#ffffff" />
   <path class="cls-2" d="m 220.69384,120 c -0.86,19.77 -30.19,48.05 -81.46,79.11 7,-6.92 15.48,-15.59 24.1,-25.24 25.77,-28.85 41.47,-53.25 46.84,-72.77 7.39,5.48 10.85,11.68 10.52,18.9 z" id="path32" inkscape:connector-curvature="0" style="fill:#ffffff" />
   <path class="cls-2" d="m 6.5038416,120 c 0.86,19.77 30.1900004,48.05 81.4600004,79.11 -7,-6.92 -15.48,-15.59 -24.1,-25.24 -25.77,-28.82 -41.47,-53.22 -46.84,-72.74 C 9.6338416,106.58 6.1838416,112.78 6.5038416,120 Z" id="path34" inkscape:connector-curvature="0" style="fill:#ffffff" />
   <path class="cls-2" d="m 198.81384,111.65 c -6.82,14.91 -19,32.59 -36.19,52.46 -10.32,11.91 -20.79,22.71 -29.52,31.25 q 2.25,-3.54 4.67,-7.44 v 0 c 7.82,-12.62 16.78,-27.9 25,-43.9 17.41,-33.69 26.73,-60.6 27.9,-80.42 8.36,4.49 13,10.74 14.22,19 1.21,7.87 -0.87,17.66 -6.08,29.05 z" id="path36" inkscape:connector-curvature="0" style="fill:#ffffff" />
   <path class="cls-2" d="m 183.87384,60.53 c 0,0.26 0,0.53 0,0.8 -0.59,18.71 -9.78,45.64 -27.25,79.45 -8.24,16 -17.17,31.18 -24.94,43.71 3.24,-9 6.47,-18.49 9.21,-27.09 1.39,-4.35 2.65,-8.48 3.72,-12.18 10.29,-35.59 20.39,-84.17 10.65,-114.9 12.57,0.41 20.81,4.51 25.1,12.45 a 30.74,30.74 0 0 1 3.31,11.77 48.46,48.46 0 0 1 0.2,5.99 z" id="path38" inkscape:connector-curvature="0" style="fill:#ffffff" />
   <path class="cls-2" d="m 139.89384,136.13 a 580,580 0 0 1 -23.75,69 c -0.87,2 -1.65,3.79 -2.32,5.26 -0.63,-1.36 -1.35,-2.95 -2.14,-4.79 v 0 A 566.76,566.76 0 0 1 87.683842,136.35 c -16.07,-58.58 -13.84,-89.6 -8,-105.89 a 3,3 0 0 0 0.74,-0.06 l -0.23,-1.29 v 0 c 0.54,-1.39 1.11,-2.66 1.7,-3.83 0.13,-0.26 0.26,-0.52 0.4,-0.77 6.23,-11.79 16.45,-17.51 31.219998,-17.51 h 0.66 c 14.79,0 25,5.74 31.16,17.55 0.08,0.13 0.14,0.26 0.21,0.39 a 45.1,45.1 0 0 1 1.93,4.35 l -0.19,1.09 a 3.21,3.21 0 0 0 0.63,0.06 c 9.76,27.06 1.26,71.8 -8.02,105.69 z" id="path40" inkscape:connector-curvature="0" style="fill:#ffffff" />
   <path class="cls-2" d="m 91.023842,208.84 -8.39,4.3 a 10.09,10.09 0 0 1 -14.61,-9.5 l 0.44,-8.77 q 10.29,6.71 22.56,13.97 z" id="path42" inkscape:connector-curvature="0" style="fill:#ffffff" />
   <path class="cls-2" d="m 159.58384,203.64 a 10.09,10.09 0 0 1 -14.67,9.5 l -8.31,-4.25 c 8.2,-4.83 15.69,-9.47 22.54,-13.93 z" id="path44" inkscape:connector-curvature="0" style="fill:#ffffff" />
</svg>
