<svg viewBox="0 0 28 24" fill="none"
    xmlns="http://www.w3.org/2000/svg">
    <g clip-path="url(#clip0_42_985)">
        <path d="M26.7981 16.0918C26.2944 17.3092 25.2717 17.9766 23.8349 18.0353C24.5535 15.8314 24.588 13.4616 23.9338 11.2377C23.8912 11.1376 23.8121 11.0574 23.7126 11.0133C23.6131 10.9692 23.5005 10.9645 23.3977 11.0003C23.2949 11.036 23.2095 11.1094 23.1587 11.2057C23.108 11.3019 23.0956 11.4139 23.1243 11.5189C23.456 12.6461 23.5939 13.8215 23.5321 14.995C23.4926 16.0142 23.2988 17.0216 22.9574 17.9828C22.1881 17.8654 21.1684 17.5224 20.5659 16.7469C20.0839 16.1289 19.9479 15.3287 20.1766 14.3523C20.844 11.4417 21.0077 10.2706 19.6266 7.52685C20.6937 7.43984 21.7669 7.58847 22.7702 7.96224C23.7734 8.336 24.6823 8.92575 25.4324 9.68973C26.9618 11.179 27.5983 14.17 26.7981 16.0918Z" fill="white"/>
        <path d="M26.0287 9.07791C22.7411 5.88612 19.0271 6.74818 18.8727 6.79762C18.8161 6.81015 18.7633 6.83552 18.7182 6.87177C18.7182 6.72655 18.7336 6.57824 18.7336 6.42684C18.7336 2.25866 15.9188 0 10.7093 0H0V23.5846H12.9773C13.345 23.5846 21.876 23.4209 23.5259 18.8912C25.1975 18.9221 26.5014 18.2732 27.2677 17.0744C27.3976 16.8667 27.5103 16.6486 27.6045 16.4224C28.5253 14.173 27.8084 10.8144 26.0287 9.07791ZM6.15802 5.20636H10.0234C11.7413 5.20636 12.6683 5.89539 12.6683 7.20547C12.6683 8.51556 11.7413 9.2015 10.0234 9.2015H6.15802V5.20636ZM10.6444 18.2763H6.15802V14.0185H10.6444C12.2821 14.0185 13.1997 14.8682 13.1997 16.1474C13.1997 17.4266 12.2821 18.2763 10.6444 18.2763ZM18.6347 7.48356C20.1364 10.3077 20.019 11.2192 19.3423 14.1699C19.2719 14.4669 19.2316 14.7702 19.2218 15.0753C19.2218 15.1772 19.2218 15.2792 19.2218 15.3842C19.1971 15.2823 19.1693 15.1803 19.1384 15.0753C18.8823 14.2266 18.4354 13.4479 17.8318 12.7988C17.2282 12.1497 16.4839 11.6474 15.6561 11.3304C16.4186 10.9665 17.0853 10.4289 17.6025 9.7609C18.1198 9.09285 18.4733 8.31289 18.6347 7.48356ZM16.6171 22.2467C18.4061 21.1344 19.3639 19.3269 19.3979 16.9755C19.3979 16.9446 19.3979 16.9137 19.3979 16.8797C19.3986 16.6733 19.3883 16.467 19.367 16.2618C19.4387 16.513 19.5425 16.754 19.676 16.9786C19.7428 17.086 19.816 17.1891 19.8954 17.2876C20.5786 18.0835 21.5206 18.613 22.5557 18.783C21.6659 20.8069 18.9375 21.774 16.6171 22.2467ZM26.8135 16.1042C26.3099 17.3216 25.2871 17.989 23.8504 18.0477C24.5689 15.8438 24.6034 13.4739 23.9492 11.2501C23.9066 11.1499 23.8275 11.0697 23.728 11.0256C23.6285 10.9815 23.516 10.9769 23.4132 11.0126C23.3103 11.0483 23.2249 11.1217 23.1742 11.218C23.1234 11.3143 23.1111 11.4262 23.1397 11.5312C23.4714 12.6585 23.6094 13.8339 23.5476 15.0073C23.508 16.0266 23.3143 17.0339 22.9728 17.9951C22.2035 17.8777 21.1838 17.5348 20.5813 16.7592C20.0993 16.1412 19.9634 15.341 20.192 14.3646C20.8594 11.454 21.0232 10.2829 19.642 7.53917C20.7091 7.45216 21.7823 7.6008 22.7856 7.97456C23.7889 8.34833 24.6977 8.93807 25.4478 9.70205C26.9618 11.179 27.5983 14.1699 26.7981 16.0918L26.8135 16.1042Z" fill="#191919"/>
    </g>
    <defs>
        <clipPath id="clip0_42_985">
            <rect width="28" height="23.5846" fill="white"/>
        </clipPath>
    </defs>
</svg>