<svg viewBox="0 0 29 25" fill="none"
    xmlns="http://www.w3.org/2000/svg">
    <g clip-path="url(#clip0_42_921)">
        <path d="M26.4665 14.2057C25.6058 18.3118 21.3025 22.5214 17.2613 23.2162C14.7057 23.6537 12.5204 22.656 10.9121 20.3313C12.8826 19.8357 14.775 19.0696 16.5352 18.0546C20.2111 15.939 22.2281 13.4484 22.305 13.345C22.4446 13.1706 22.5093 12.9479 22.4847 12.7259C22.4601 12.5038 22.3484 12.3006 22.174 12.161C21.9996 12.0214 21.7769 11.9567 21.5548 11.9813C21.3328 12.0059 21.1296 12.1177 20.99 12.292C19.4596 14.0253 17.648 15.4883 15.6313 16.6194C13.8945 17.6255 12.0158 18.3639 10.0586 18.8095C9.4456 17.4079 8.94074 15.35 9.57782 13.5373C10.0947 12.0949 11.2967 11.0251 13.1551 10.3688C18.7109 8.41426 20.8313 7.46465 23.9446 2.27905C25.2428 3.96431 27.7406 8.13298 26.4665 14.2057Z" fill="white"/>
        <path d="M23.3918 0.240496C23.2996 0.152277 23.1886 0.0861154 23.0671 0.0469906C22.9457 0.00786583 22.8169 -0.0032034 22.6906 0.0146158C22.5642 0.032435 22.4435 0.0786785 22.3376 0.149867C22.2317 0.221055 22.1434 0.315334 22.0791 0.42561C18.8962 6.03192 17.271 6.7868 11.607 8.7918C9.25099 9.6164 7.70277 11.0348 7.00799 12.9821C6.27474 15.04 6.64978 17.3287 7.36619 19.1245C4.9175 19.4318 2.43325 19.2884 0.0361624 18.7014C-0.0724331 18.6728 -0.185658 18.6662 -0.296838 18.682C-0.408019 18.6979 -0.514905 18.7358 -0.611198 18.7936C-0.707492 18.8514 -0.791243 18.9279 -0.857516 19.0185C-0.923789 19.1092 -0.971243 19.2122 -0.99708 19.3215C-1.02292 19.4308 -1.02662 19.5441 -1.00796 19.6549C-0.989301 19.7656 -0.948664 19.8715 -0.888443 19.9663C-0.828222 20.0611 -0.749634 20.1428 -0.657314 20.2068C-0.564993 20.2707 -0.460806 20.3155 -0.350894 20.3386C1.34212 20.745 3.07678 20.9523 4.81787 20.9564C5.92902 20.9567 7.03842 20.8683 8.1355 20.692C9.85201 23.5072 12.2873 25.0025 15.1073 25.0025C15.5908 25.0021 16.0734 24.9603 16.5498 24.8775C21.2738 24.0673 26.1132 19.3481 27.1277 14.552C28.9668 5.72179 23.6202 0.454459 23.3918 0.240496ZM25.4665 14.2106C24.6058 18.3119 20.3025 22.5215 16.2613 23.2163C13.7057 23.6538 11.5204 22.6561 9.91211 20.3314C11.8826 19.8358 13.775 19.0697 15.5352 18.0547C19.2111 15.9391 21.2281 13.4485 21.305 13.3451C21.4447 13.1707 21.5093 12.948 21.4847 12.726C21.4602 12.5039 21.3484 12.3007 21.174 12.1611C20.9996 12.0215 20.7769 11.9568 20.5549 11.9814C20.3328 12.006 20.1296 12.1178 19.99 12.2921C18.4596 14.0254 16.648 15.4884 14.6313 16.6195C12.8945 17.6256 11.0158 18.364 9.05867 18.8096C8.44563 17.408 7.94077 15.3501 8.57785 13.5374C9.09473 12.095 10.2968 11.0252 12.1551 10.3689C17.7109 8.41436 19.8313 7.46475 22.9446 2.27915C24.2428 3.96441 26.7407 8.13308 25.4665 14.2058V14.2106Z" fill="#191919"/>
    </g>
    <defs>
        <clipPath id="clip0_42_921">
            <rect width="28.5027" height="25" fill="white"/>
        </clipPath>
    </defs>
</svg>
