<svg id="Capa_1" data-name="Capa 1" xmlns="http://www.w3.org/2000/svg" viewBox="0 0 99.87 89.87">
    <defs>
        <style>
            .cls-1 {
                fill: #FD3647;
            }
        </style>
    </defs>
    <path class="cls-1"
        d="M3.75,89.87A3.76,3.76,0,0,1,0,86.73,8.61,8.61,0,0,1,0,84.9c.14-2.52.3-5,.46-7.56q.33-5.52.68-11c.14-2.29.27-4.59.41-6.89l.57-9.2c.13-2.28.27-4.56.4-6.83l.57-9.27c.14-2.2.27-4.39.4-6.59q.3-4.78.58-9.57c.14-2.3.27-4.59.41-6.89C4.64,8.52,4.78,6,5,3.44A3.74,3.74,0,0,1,9,0c1.36.13,2.7.37,4,.57L22.39,2l9.29,1.41,9.24,1.39,9.35,1.42L58.6,7.5a7.29,7.29,0,0,1,1.3.33L97.12,21.2a3.8,3.8,0,0,1,2.73,3.34,4.21,4.21,0,0,1-.09,1.27q-2.15,10.71-4.32,21.42T91.1,68.77c-.29,1.46-.59,2.91-.88,4.37a4.07,4.07,0,0,0-.07.85q.21,4.29.44,8.6c0,1,.12,2,.15,3a3.81,3.81,0,0,1-4,4.09C82.34,89.74,6,89.88,3.75,89.87Zm83.17-4c-.06-1.26-.13-2.42-.18-3.57-.14-2.85-.29-5.7-.42-8.54a4.43,4.43,0,0,1,.07-1q1.94-9.69,3.91-19.39Q93,39.92,95.74,26.45c.1-.51.19-1,.29-1.54l-.62-.25L58.66,11.45a4.35,4.35,0,0,0-.71-.18l-5.67-.86-13.34-2L24.82,6.25,10.7,4.1,8.76,3.82Q6.26,45,3.76,86.05Z" />
    <path class="cls-1"
        d="M47.26,78.56v1.37H43.32c-.13-.41-.19-19.51,0-20.63h4v6.93a3.17,3.17,0,0,0,.31-.24,5.43,5.43,0,0,1,4.37-1.47,6,6,0,0,1,5.42,4,9.85,9.85,0,0,1,0,7.79,6,6,0,0,1-4.39,3.8,5.63,5.63,0,0,1-5.47-1.44A1.51,1.51,0,0,0,47.26,78.56Zm6.75-6A6.18,6.18,0,0,0,53.6,70a3.16,3.16,0,0,0-3.3-2,3.07,3.07,0,0,0-2.86,2.28,7.31,7.31,0,0,0,0,4.27,3.08,3.08,0,0,0,2.93,2.27,3.15,3.15,0,0,0,3.22-2A5.65,5.65,0,0,0,54,72.53Z" />
    <path class="cls-1"
        d="M69.12,78.62A5.53,5.53,0,0,1,66.49,80a7.41,7.41,0,0,1-3.74,0,4.33,4.33,0,0,1-3.16-5.29,4,4,0,0,1,1.94-2.62,9.78,9.78,0,0,1,3.27-1.13l3.42-.65c.16,0,.31-.08.45-.12A1.75,1.75,0,0,0,67.19,68a4.78,4.78,0,0,0-1.51,0A2.06,2.06,0,0,0,64,69.34c-.06.14-.12.29-.21.53L60,69.16a2.58,2.58,0,0,1,.12-.48,6.12,6.12,0,0,1,4.54-4,8.8,8.8,0,0,1,4.47.1,4.55,4.55,0,0,1,3.57,4.53c0,2,0,4.07,0,6.11,0,.18,0,.36,0,.55,0,.68.24.88.93.93l.27,0v2.92A4.39,4.39,0,0,1,69.12,78.62ZM68.72,73l-3,.61a3.33,3.33,0,0,0-.64.16,4.74,4.74,0,0,0-1,.47,1.57,1.57,0,0,0,.28,2.67,3.54,3.54,0,0,0,4-1.06,2.43,2.43,0,0,0,.38-1C68.76,74.29,68.72,73.7,68.72,73Z" />
    <path class="cls-1"
        d="M40.9,77a3.07,3.07,0,0,1,.05.38c0,.85,0,1.71,0,2.62-1.82.21-3.54.35-4.82-1.33A5.52,5.52,0,0,1,33.51,80a7.21,7.21,0,0,1-4.09-.16,4.32,4.32,0,0,1-2.78-5.35,4,4,0,0,1,2-2.48,9.63,9.63,0,0,1,3.21-1.1l3.42-.65.45-.11A1.75,1.75,0,0,0,34.2,68a4.78,4.78,0,0,0-1.51,0A2.06,2.06,0,0,0,31,69.34c-.06.14-.12.29-.21.53L27,69.17a3.91,3.91,0,0,1,.12-.49,6.12,6.12,0,0,1,4.54-4,8.68,8.68,0,0,1,4.41.09,4.57,4.57,0,0,1,3.64,4.67c0,2,0,3.91,0,5.86v.43C39.71,76.72,39.88,76.9,40.9,77ZM35.73,73c-1.28.27-2.47.51-3.65.79a2.68,2.68,0,0,0-1,.46,1.57,1.57,0,0,0,.33,2.7,3.59,3.59,0,0,0,3.83-1,2.56,2.56,0,0,0,.45-1.11A14.07,14.07,0,0,0,35.73,73Z" />
    <path class="cls-1" d="M11.5,59.3h4.18v17h9.49v3.66H11.54C11.41,79.52,11.37,60.16,11.5,59.3Z" />
    <path class="cls-1"
        d="M80.59,80H76a3.06,3.06,0,0,1-.07-.4c0-1.42,0-2.85,0-4.27a2.35,2.35,0,0,1,4.69-.07c0,1.48,0,3,0,4.45A1.35,1.35,0,0,1,80.59,80Z" />
</svg>