<svg id="Capa_1" data-name="Capa 1" xmlns="http://www.w3.org/2000/svg" viewBox="0 0 18.38 18.43"><defs><style>.cls-1{fill:#191919;}</style></defs><path class="cls-1" d="M18.38,5.44v7.42l0,.19c0,.36-.06.73-.12,1.09a4.88,4.88,0,0,1-1.57,2.94,5.39,5.39,0,0,1-3.38,1.28l-1.3.07H6.43l-.33,0a10.15,10.15,0,0,1-2.2-.23A4.69,4.69,0,0,1,.59,15.53,6.61,6.61,0,0,1,0,12.73c0-2,0-4,0-6a12.89,12.89,0,0,1,.21-2.7A4.75,4.75,0,0,1,2.89.61,6.72,6.72,0,0,1,5.65.05C8.2,0,10.74,0,13.28.09a5.65,5.65,0,0,1,2.14.48,4.81,4.81,0,0,1,2.85,3.91C18.32,4.8,18.34,5.12,18.38,5.44ZM9.18,16.81v0h1.48c1,0,2.1,0,3.14-.16a3,3,0,0,0,2.72-2.41,8,8,0,0,0,.2-1.76c0-1.85,0-3.7,0-5.56a18.25,18.25,0,0,0-.13-2.22A3.08,3.08,0,0,0,14,1.88a11.26,11.26,0,0,0-1.93-.17c-1.73,0-3.45,0-5.18,0a16.31,16.31,0,0,0-2.42.16A3,3,0,0,0,1.88,4.29,11,11,0,0,0,1.69,6.2c0,1.49,0,3,0,4.48,0,1,0,2.06.14,3.08A3.08,3.08,0,0,0,3.33,16.2a3.92,3.92,0,0,0,1.89.5C6.54,16.75,7.86,16.77,9.18,16.81Z"/><path class="cls-1" d="M9.2,14a4.74,4.74,0,1,1,4.73-4.74A4.74,4.74,0,0,1,9.2,14ZM6.14,9.22A3.07,3.07,0,1,0,9.2,6.16,3,3,0,0,0,6.14,9.22Z"/><path class="cls-1" d="M15.22,4.29A1.1,1.1,0,1,1,14.1,3.2,1.1,1.1,0,0,1,15.22,4.29Z"/></svg>