<svg id="Capa_1" data-name="Capa 1" xmlns="http://www.w3.org/2000/svg" viewBox="0 0 21.49 18.23"><defs><style>.cls-1{fill:#191919;}</style></defs><path class="cls-1" d="M14.26,1.67a3.74,3.74,0,0,1,2.63,1.08.27.27,0,0,0,.21.09h.1a7.8,7.8,0,0,0,2-.77L19.41,2c-.29.79-.33.94-1.54,2.05a8.3,8.3,0,0,0,2-.5c-.27.33-.53.67-.83,1a10.75,10.75,0,0,1-.87.78.36.36,0,0,0-.16.33,10.9,10.9,0,0,1-3.4,8.18,9.83,9.83,0,0,1-5.71,2.73,11.28,11.28,0,0,1-1.63.12,10.61,10.61,0,0,1-5.56-1.56L1.61,15s0,0,0-.05a7.26,7.26,0,0,0,.8,0,7.63,7.63,0,0,0,4.7-1.6,3.88,3.88,0,0,1-3.53-2.63,4.56,4.56,0,0,0,.72.06,3.13,3.13,0,0,0,.91-.13A4,4,0,0,1,3.07,9.33,3.72,3.72,0,0,1,2.25,7c.28.1.53.22.8.29a3.78,3.78,0,0,0,.83.13A3.94,3.94,0,0,1,2.38,5.1a3.67,3.67,0,0,1,.41-2.72,10.8,10.8,0,0,0,7.78,3.94c0-.17-.05-.32-.07-.47a3.79,3.79,0,0,1,3.76-4.18m5.15.3h0M14.26.08a5.38,5.38,0,0,0-2.33.54A5.3,5.3,0,0,0,9.57,2.85,5.07,5.07,0,0,0,9,4.48,9.25,9.25,0,0,1,4,1.35,1.58,1.58,0,0,0,2.79.79H2.63A1.61,1.61,0,0,0,1.4,1.6,5.34,5.34,0,0,0,.82,5.44c.05.2.1.38.16.57A1.57,1.57,0,0,0,.66,7a5.34,5.34,0,0,0,1.16,3.34l.17.2a1.58,1.58,0,0,0,.1.83,6,6,0,0,0,1.24,2,5.86,5.86,0,0,1-.94.07c-.21,0-.44,0-.66,0H1.59a1.58,1.58,0,0,0-1.5,2.1,1.57,1.57,0,0,0,.61.83l.22.14A12.19,12.19,0,0,0,7.3,18.23a14.51,14.51,0,0,0,1.85-.13,11.41,11.41,0,0,0,6.6-3.17,12.8,12.8,0,0,0,2.93-4.26,13.15,13.15,0,0,0,.95-4.51c.2-.18.4-.36.59-.56s.46-.52.67-.78l.23-.28A1.6,1.6,0,0,0,21,2.4l0,0s0,0,0,0A1.34,1.34,0,0,0,21,2,1.59,1.59,0,0,0,19.45.38h-.13a1.62,1.62,0,0,0-.65.18l0,0-.17.09a6,6,0,0,1-1,.45,5.32,5.32,0,0,0-3.16-1Z"/></svg>