<?xml version="1.0" encoding="UTF-8" standalone="no"?>
<svg viewBox="0 0 99.87 99.87" version="1.1" width="99.870003" height="99.870003" xmlns="http://www.w3.org/2000/svg"
   xmlns:svg="http://www.w3.org/2000/svg">
   <path class="cls-1"
      d="M 3.75,89.87 A 3.76,3.76 0 0 1 0,86.73 8.61,8.61 0 0 1 0,84.9 c 0.14,-2.52 0.3,-5 0.46,-7.56 q 0.33,-5.52 0.68,-11 c 0.14,-2.29 0.27,-4.59 0.41,-6.89 l 0.57,-9.2 c 0.13,-2.28 0.27,-4.56 0.4,-6.83 l 0.57,-9.27 c 0.14,-2.2 0.27,-4.39 0.4,-6.59 q 0.3,-4.78 0.58,-9.57 C 4.21,15.69 4.34,13.4 4.48,11.1 4.64,8.52 4.78,6 5,3.44 A 3.74,3.74 0 0 1 9,0 c 1.36,0.13 2.7,0.37 4,0.57 L 22.39,2 31.68,3.41 40.92,4.8 50.27,6.22 58.6,7.5 a 7.29,7.29 0 0 1 1.3,0.33 L 97.12,21.2 a 3.8,3.8 0 0 1 2.73,3.34 4.21,4.21 0 0 1 -0.09,1.27 Q 97.61,36.52 95.44,47.23 93.27,57.94 91.1,68.77 c -0.29,1.46 -0.59,2.91 -0.88,4.37 a 4.07,4.07 0 0 0 -0.07,0.85 q 0.21,4.29 0.44,8.6 c 0,1 0.12,2 0.15,3 a 3.81,3.81 0 0 1 -4,4.09 C 82.34,89.74 6,89.88 3.75,89.87 Z m 83.17,-4 C 86.86,84.61 86.79,83.45 86.74,82.3 86.6,79.45 86.45,76.6 86.32,73.76 a 4.43,4.43 0 0 1 0.07,-1 Q 88.33,63.07 90.3,53.37 93,39.92 95.74,26.45 c 0.1,-0.51 0.19,-1 0.29,-1.54 L 95.41,24.66 58.66,11.45 A 4.35,4.35 0 0 0 57.95,11.27 L 52.28,10.41 38.94,8.41 24.82,6.25 10.7,4.1 8.76,3.82 Q 6.26,45 3.76,86.05 Z"
      id="path57" style="fill:#fdb201;fill-opacity:1" />
</svg>