<?xml version="1.0" encoding="UTF-8" standalone="no"?>
<svg xmlns:dc="http://purl.org/dc/elements/1.1/"
   xmlns:cc="http://creativecommons.org/ns#"
   xmlns:rdf="http://www.w3.org/1999/02/22-rdf-syntax-ns#"
   xmlns:svg="http://www.w3.org/2000/svg"
   xmlns="http://www.w3.org/2000/svg"
   xmlns:sodipodi="http://sodipodi.sourceforge.net/DTD/sodipodi-0.dtd"
   xmlns:inkscape="http://www.inkscape.org/namespaces/inkscape" id="Capa_1" data-name="Capa 1" viewBox="0 0 265.68177 382.27963" version="1.1" inkscape:version="0.92.5 (2060ec1f9f, 2020-04-08)">
   <metadata id="metadata121">
      <rdf:RDF>
         <cc:Work rdf:about="">
            <dc:format>image/svg+xml</dc:format>
            <dc:type rdf:resource="http://purl.org/dc/dcmitype/StillImage" />
         </cc:Work>
      </rdf:RDF>
   </metadata>
   <sodipodi:namedview pagecolor="#ffffff" bordercolor="#666666" borderopacity="1" objecttolerance="10" gridtolerance="10" guidetolerance="10" inkscape:pageopacity="0" inkscape:pageshadow="2" inkscape:window-width="1920" inkscape:window-height="1016" id="namedview119" showgrid="false" inkscape:zoom="0.53704715" inkscape:cx="132.84595" inkscape:cy="162.54" inkscape:window-x="0" inkscape:window-y="27" inkscape:window-maximized="1" inkscape:current-layer="Capa_1" />
   <defs id="defs4">
      <style id="style2">.cls-1{fill:#191919;}.cls-2{fill:#fff;}</style>
   </defs>
   <path class="cls-1" d="m 131.00596,149.76962 v 0.17 l 0.2,-0.18 z m 16.44,-13.52 z" id="path16" inkscape:connector-curvature="0" style="fill:#191919" />
   <path class="cls-1" d="m 147.44596,136.24962 z m -16.44,13.52 v 0.17 l 0.2,-0.18 z" id="path18" inkscape:connector-curvature="0" style="fill:#191919" />
   <path class="cls-1" d="m 135.61596,162.65962 v -0.2 l -0.09,-3.35 v -0.6 l -0.06,-2.54 v -0.41 -0.29 l -0.12,-4.46 v -0.37 -1.94 -0.31 l -1.68,0.72 c -0.33,0.15 -0.67,0.29 -1,0.43 l -0.24,0.09 -0.21,0.09 a 3.31,3.31 0 0 1 -0.87,0.24 h -0.34 v 0.56 0 1 l -0.09,3.45 v 0.67 0.13 0.66 l -0.06,2 v 0 0.85 l -0.09,3.34 v 0.21 l -3.31,125.25 v 0.14 a 449.3,449.3 0 0 0 5,44.88 c 0.27,1.59 0.54,3.11 0.82,4.56 0.28,-1.45 0.55,-3 0.82,-4.56 a 450.44,450.44 0 0 0 5,-45 v -0.07 z m 11.83,-26.41 z" id="path20" inkscape:connector-curvature="0" style="fill:#191919" />
   <path class="cls-1" d="m 147.16596,163.54962 v 0.09 c 0,0 0,-0.06 0,-0.09 z m -0.51,1.68 v 0 c 0,0 0,0 0,-0.05 z" id="path22" inkscape:connector-curvature="0" style="fill:#191919" />
   <path class="cls-1" d="m 131.20596,149.74962 z m 1.29,-0.43 -0.2,0.11 0.24,-0.09 z m -1.53,1 z" id="path24" inkscape:connector-curvature="0" style="fill:#191919" />
   <path class="cls-1" d="m 265.26596,106.21962 c -0.08,-0.38 -2.19,-9.329997 -10.15,-13.819997 a 19.08,19.08 0 0 0 -7.41,-2.38 c 0.71,-2.22 0.88,-5.51 -1.41,-9.65 -1.83,-3.3 -5.64,-5.61 -10.44,-6.35 a 22.09,22.09 0 0 0 -14.18,2.67 11.52,11.52 0 0 0 -3.9,-3.71 9.66,9.66 0 0 0 -7.59,-0.71 26,26 0 0 0 -3.88,1.49 17.34,17.34 0 0 0 -4.5,-5.42 19.52,19.52 0 0 0 -2.24,-1.47 c 0,-0.11 0,-0.23 0,-0.34 0.15,-7.43 -2.41,-14 -7,-18 -4.43,-3.71 -12.89,-4.51 -19.27,-4.51 a 18.66,18.66 0 0 0 3.09,-9.89 c 0,-4.6 -2.06,-9 -6.12,-13 a 16.74,16.74 0 0 0 -13.07,-5.3 22,22 0 0 0 -9.45,3 c 1,-5.06 0.42,-9.2200001 -1.76,-12.4300001 -3.46,-5.12 -10.39,-7.19 -20.6,-6.13 -9.38,1 -15.51,4.34 -18.22,10.0000001 a 17,17 0 0 0 -1.23,9.8 20.35,20.35 0 0 0 -3.93,-1.05 c -6.520005,-1 -13.600005,1 -19.450005,5.4 -5,3.81 -7.81,8.55 -8.35,14.09 -0.72,7.27 2.75,14.14 5.42,18.23 a 14.55,14.55 0 0 0 -7,7.53 24.17,24.17 0 0 0 -8.81,4.12 17.24,17.24 0 0 0 -4.44,5.36 25.87,25.87 0 0 0 -3.87,-1.49 9.61,9.61 0 0 0 -7.59,0.72 11.59,11.59 0 0 0 -3.9,3.7 22,22 0 0 0 -14.18,-2.66 c -4.8,0.73 -8.61,3 -10.44,6.34 -2.29,4.14 -2.13,7.43 -1.39,9.66 a 19,19 0 0 0 -7.42,2.35 c -7.97,4.49 -10.07999998,13.449997 -10.17999998,13.909997 -1.27,6.28 0.67999998,10.25 2.53999998,12.48 a 16.3,16.3 0 0 0 8.59,5 17.61,17.61 0 0 0 -0.93,13 c 1.85,5.47 6.6,9.2 13,10.23 5.6,0.9 9.61,-0.61 12.35,-2.89 a 10.56,10.56 0 0 0 3.3,2.73 14.52,14.52 0 0 0 5.93,1.59 18.7,18.7 0 0 0 -5.25,4.8 c -5.45,7.33 -3.76,16.37 -3.66,16.83 1.38,6.27 4.77,9.11 7.37,10.39 a 16.33,16.33 0 0 0 9.9,1.13 17.64,17.64 0 0 0 4.46,12.3 14.76,14.76 0 0 0 11.11,4.74 19.53,19.53 0 0 0 4.94,-0.66 c 5.49,-1.45 8.54,-4.46 10.12,-7.65 a 10.62,10.62 0 0 0 4.13,1.16 c 5.59,0.44 12.290005,-3.23 18.100005,-9.41 -1.71,39.41 -4.34,97.49 -6.490005,135 -1,17.44 -1.07,35.43 9.820005,47 a 31,31 0 0 0 6,4.94 v 9.79 a 3.5,3.5 0 0 0 3.5,3.5 h 27.77 a 3.5,3.5 0 0 0 3.5,-3.5 v -9.76 a 30.39,30.39 0 0 0 6,-4.94 c 10.89,-11.53 10.82,-29.52 9.82,-47 -2.15,-37.35 -4.75,-95 -6.46,-134.37 5.66,5.78 12.09,9.18 17.48,8.75 a 10.44,10.44 0 0 0 4.13,-1.15 c 1.57,3.19 4.63,6.2 10.11,7.64 a 19.23,19.23 0 0 0 4.94,0.67 14.7,14.7 0 0 0 11.11,-4.75 17.51,17.51 0 0 0 4.42,-12.25 16.31,16.31 0 0 0 9.9,-1.13 c 2.6,-1.29 6,-4.13 7.4,-10.47 0.07,-0.38 1.77,-9.42 -3.68,-16.75 a 19,19 0 0 0 -5.24,-4.8 14.68,14.68 0 0 0 5.92,-1.6 10.51,10.51 0 0 0 3.3,-2.72 c 2.74,2.28 6.75,3.79 12.35,2.89 6.43,-1 11.18,-4.76 13,-10.23 a 17.6,17.6 0 0 0 -0.92,-13 16.33,16.33 0 0 0 8.59,-5 c 1.93,-2.25 3.88,-6.22 2.59,-12.59 z m -69.95,-33.669997 a 16.87,16.87 0 0 1 2.13,1.29 c 0.34,0.29 0.66,0.57 0.95,0.86 a 8.14,8.14 0 0 1 2,2.89 5.3,5.3 0 0 1 0.36,2 7.62,7.62 0 0 1 -0.82,3.12 16.85,16.85 0 0 1 -4.27,5.25 3.49,3.49 0 0 0 -1.24,3.68 3.57,3.57 0 0 0 2.92,2.56 c 4.2,0.55 7.9,3.29 9.2,6.819997 a 7.47,7.47 0 0 1 0.27,4.36 10.73,10.73 0 0 1 -2.62,4.67 c -4.82,5.35 -9.34,2.46 -10.17,1.85 a 3.5,3.5 0 0 0 -5.12,4.61 4,4 0 0 0 0.44,0.57 8.54,8.54 0 0 1 0.93,1.15 4,4 0 0 1 0.67,1.81 3.52,3.52 0 0 1 -0.29,1.68 6.63,6.63 0 0 1 -1.15,1.78 c -1.75,2 -5,4 -9.23,5.46 a 38.1,38.1 0 0 1 -5,1.33 v 0 l -0.58,0.11 v 0 a 42.34,42.34 0 0 1 -5.1,0.62 v 0 c -0.76,0.06 -1.53,0.09 -2.31,0.1 -0.39,0 -0.77,0 -1.14,0 v 0 c -0.15,0 -0.28,0 -0.43,0 v 0 c -0.32,0 -0.64,0.06 -1,0.1 a 21.06,21.06 0 0 0 -3.18,0.62 22.07,22.07 0 0 0 -8.32,4.34 26.1,26.1 0 0 0 -3.28,3.2 v 0 l -0.24,0.29 a 31.55,31.55 0 0 0 -2.58,3.5 l -0.47,0.76 -0.16,0.26 c 0.06,-0.86 0.25,-2.68 0.26,-2.75 0.07,-0.6 0.14,-1.19 0.23,-1.77 0.13,-1 0.29,-1.89 0.45,-2.81 v 0 c 0,-0.23 0.09,-0.46 0.13,-0.69 v 0 0 c 0.29,-1.47 0.62,-2.88 1,-4.25 0.32,-1.21 0.68,-2.38 1.06,-3.51 v 0 c 6.93,-20.45 22.39,-28.929997 25.25,-30.349997 v 0 l 0.4,-0.19 a 3.52,3.52 0 0 0 1.74,-4.63 3.5,3.5 0 0 0 -4.63,-1.75 c -0.41,0.19 -10.29,4.73 -19.18,15.999997 a 64.39,64.39 0 0 0 -12.83,29.25 c 0,0.11 0,0.22 -0.05,0.33 l -0.09,-0.41 c -0.14,-0.67 -0.27,-1.33 -0.4,-2 v 0 a 97.78,97.78 0 0 1 -2.22,-21.19 v 0 a 37.25,37.25 0 0 1 0.6,-5.94 0.28,0.28 0 0 1 0,-0.09 21.92,21.92 0 0 1 0.62,-2.65 24.11,24.11 0 0 0 0.5,-5.999997 c 0.06,-5.28 0.14,-12.52 4.1,-18.24 a 3.4,3.4 0 0 1 0.86,-0.9 2.06,2.06 0 0 1 0.92,-0.39 3.41,3.41 0 0 1 0.55,0 8.2,8.2 0 0 1 3.91,1.38 3.5,3.5 0 0 0 5.51,-2.39 14.59,14.59 0 0 1 7.1,-10.33 c 2.25,-1.3 4.53,-1.75 6,-1.17 1.89,0.77 3,1.74 3.33,2.88 0.47,1.66 -0.52,3.84 -1.23,5 -0.2,0.28 -0.39,0.57 -0.58,0.87 a 3.5,3.5 0 0 0 5.73,4 c 0.1,-0.13 0.38,-0.52 0.74,-1.1 3,-4.31 6.4,-6.83 10.14,-7.46 a 13,13 0 0 1 5.69,0.36 16.92,16.92 0 0 1 3.22,1.25 z m -48.63,92.629997 c 0,0 0,0 0,0.05 v 0 z m -15.68,-14.83 v 0 -0.56 h 0.2 a 3.31,3.31 0 0 0 0.87,-0.24 l 0.21,-0.09 0.2,-0.11 v 0 c 0.35,-0.14 0.69,-0.28 1,-0.43 l 1.68,-0.72 v 0.31 1.94 0.37 l 0.12,4.46 v 0.29 0.41 l 0.06,2.54 v 0.6 l 0.09,3.35 v 0.2 l 3.31,125.15 v 0.07 a 450.44,450.44 0 0 1 -5,45 c -0.27,1.59 -0.54,3.11 -0.82,4.56 -0.28,-1.45 -0.55,-3 -0.82,-4.56 a 449.3,449.3 0 0 1 -5,-44.88 v -0.09 l 3.31,-125.25 v -0.21 l 0.09,-3.34 v -0.85 0 l 0.06,-2 v -0.66 -0.13 -0.67 l 0.09,-3.45 v -1 z M 81.165955,39.179623 c 0.36,-3.58 2.21,-6.58 5.63,-9.19 a 19.59,19.59 0 0 1 11.66,-4.21 14.75,14.75 0 0 1 2.400005,0.19 14.47,14.47 0 0 1 9.81,6.57 3.5001607,3.5001607 0 0 0 5.82,-3.89 c -0.06,-0.09 -5.87,-9.31 -3,-15.32 1.59,-3.3300001 5.83,-5.3800001 12.62,-6.0800001 7.23,-0.75 12.23,0.35 14.08,3.0900001 2.18,3.21 0.93,9.62 -3.51,18 a 3.5,3.5 0 0 0 5.81,3.84 c 2,-2.48 8.66,-9 15.09,-9.35 a 9.93,9.93 0 0 1 7.77,3.28 c 2.72,2.69 4,5.32 4,8 0,3.39 -2.08,7.19 -6.21,11.31 a 3.5,3.5 0 0 0 2.86,6 c 7,-0.78 18.44,-0.53 21.93,2.46 2.57,2.2 4.19,5.94 4.54,10.27 a 19.75,19.75 0 0 0 -7.28,-0.2 19.24,19.24 0 0 0 -7.18,2.84 c -0.84,-2.18 -2.77,-4.84 -7.15,-6.63 -3.5,-1.42 -7.91,-0.83 -12.12,1.61 a 22.06,22.06 0 0 0 -9.36,11 11.54,11.54 0 0 0 -5.36,-0.43 8.82,8.82 0 0 0 -0.89,0.2 152.43,152.43 0 0 0 -8.58,-30 3.5032556,3.5032556 0 1 0 -6.44,2.76 152.27,152.27 0 0 1 8.68,32.61 30.45,30.45 0 0 0 -3.91,11.47 29.69,29.69 0 0 0 -4.78,-12.83 9.67,9.67 0 0 0 -6.36,-4.21 11.66,11.66 0 0 0 -5.36,0.43 22.08,22.08 0 0 0 -9.37,-11 c -4.2,-2.44 -8.610005,-3 -12.110005,-1.61 -4.38,1.79 -6.31,4.45 -7.15,6.63 a 19.34,19.34 0 0 0 -6.54,-2.68 14.06,14.06 0 0 1 5,-2.49 3.5,3.5 0 0 0 1.59,-5.65 c -0.16,-0.11 -7.46,-8.56 -6.63,-16.79 z m -12.79,55 a 3.4,3.4 0 0 0 2,-1 3.49,3.49 0 0 0 -0.31,-5.26 16.75,16.75 0 0 1 -4.28,-5.25 7.49,7.49 0 0 1 -0.78,-3.09 5.27,5.27 0 0 1 0.37,-2 9.24,9.24 0 0 1 2.92,-3.75 17.87,17.87 0 0 1 3.64,-2 15.74,15.74 0 0 1 3.39,-1 12.78,12.78 0 0 1 3.51,-0.1 v 0 l 0.58,0.09 c 3.73,0.64 7.14,3.15 10.14,7.47 0.36,0.57 0.64,1 0.74,1.09 a 3.5,3.5 0 0 0 5.73,-4 l -0.57,-0.86 c -0.72,-1.21 -1.71,-3.39 -1.24,-5 0.32,-1.14 1.44,-2.11 3.33,-2.88 1.43,-0.58 3.710005,-0.13 6.000005,1.18 a 14.57,14.57 0 0 1 7.1,10.33 3.51,3.51 0 0 0 5.49,2.39 c 0.64,-0.44 2.82,-1.64 4.48,-1.34 a 2.64,2.64 0 0 1 1.78,1.29 c 4,5.72 4,13 4.1,18.25 a 24.07,24.07 0 0 0 0.5,5.999997 34.52,34.52 0 0 1 1.23,8.68 v 0 a 69.4,69.4 0 0 1 -0.25,7.84 v 0 c -0.27,3.1 -0.72,6.45 -1.35,10.08 v 0 c -0.32,1.8 -0.68,3.64 -1.08,5.57 v 0.14 -0.19 a 65.53,65.53 0 0 0 -9.41,-24.6 c -1.14,-1.77 -2.3,-3.37 -3.44,-4.82 l -0.39,-0.48 c -0.36,-0.45 -0.72,-0.89 -1.08,-1.31 l -0.75,-0.86 c -0.46,-0.52 -0.92,-1 -1.38,-1.51 l -0.68,-0.71 c -0.23,-0.23 -0.46,-0.47 -0.69,-0.69 -0.23,-0.22 -0.39,-0.39 -0.58,-0.57 q -1.06,-1 -2.1,-1.949997 a 53.73,53.73 0 0 0 -10.820005,-7.55 l -0.71,-0.35 a 3.49,3.49 0 0 0 -4,0.84 3.46,3.46 0 0 0 -0.24,4.4 3.44,3.44 0 0 0 1.38,1.14 44.68,44.68 0 0 1 10.350005,7.339997 55.28,55.28 0 0 1 16.22,26.76 c 0.38,1.38 0.72,2.82 1,4.31 0,0.22 0.09,0.45 0.14,0.68 q 0.26,1.38 0.45,2.82 c 0.1,0.64 0.18,1.29 0.25,2 0.06,0.51 0.11,1 0.16,1.55 0,0.33 0.06,0.66 0.08,1 -0.2,-0.33 -0.4,-0.66 -0.61,-1 a 31.22,31.22 0 0 0 -2.58,-3.5 3.92,3.92 0 0 0 -0.27,-0.33 26.32,26.32 0 0 0 -3.25,-3.17 22.06,22.06 0 0 0 -8.36,-4.36 19.89,19.89 0 0 0 -3.18,-0.63 c -0.32,0 -0.64,-0.08 -1,-0.09 a 2.63,2.63 0 0 0 -0.490005,0 c -0.36,0 -0.73,0 -1.11,-0.05 -0.78,0 -1.55,0 -2.3,-0.09 a 45.06,45.06 0 0 1 -5.12,-0.63 l -0.68,-0.13 a 37.75,37.75 0 0 1 -4.86,-1.29 c -4.29,-1.43 -7.56,-3.43 -9.33,-5.49 a 6.78,6.78 0 0 1 -1.14,-1.77 3.52,3.52 0 0 1 -0.29,-1.68 4,4 0 0 1 0.67,-1.81 8.54,8.54 0 0 1 0.93,-1.15 2.88,2.88 0 0 0 0.43,-0.56 3.5,3.5 0 0 0 -5.08,-4.64 c -0.86,0.63 -5.39,3.52 -10.2,-1.83 a 10.77,10.77 0 0 1 -2.62,-4.65 7.46,7.46 0 0 1 0.27,-4.38 c 1.34,-3.609997 5.04,-6.349997 9.24,-6.909997 z m -25.21,44.529997 a 15.53,15.53 0 0 0 0,2.24 4,4 0 0 1 -0.51,-0.24 c -1,-0.55 -2.13,-1.54 -1.89,-4.44 a 3.48,3.48 0 0 0 -2.91,-3.71 2.84,2.84 0 0 0 -0.58,0 3.53,3.53 0 0 0 -3.4,2.63 c -0.27,1 -2,6.12 -9.08,5 -3.89,-0.62 -6.49,-2.55 -7.5,-5.56 -1.2,-3.56 0,-8 2.88,-11.08 a 3.5,3.5 0 0 0 -2.59,-5.91 c -1.77,0 -6.92,-0.53 -9.23,-3.32 -1.28,-1.53 -1.62,-3.66 -1.05,-6.52 0.12,-0.5 1.75,-6.47 6.81,-9.289997 3.31,-1.85 7.54,-2 12.58,-0.55 0.64,0.22 1.1,0.35 1.27,0.39 a 3.5,3.5 0 0 0 1.94,-6.72 c -0.34,-0.12 -0.68,-0.22 -1,-0.33 -1.27,-0.47 -3.4,-1.53 -4.1,-3.12 -0.47,-1.1 -0.21,-2.56 0.78,-4.35 0.75,-1.35 2.81,-2.43 5.38,-2.82 a 14.6,14.6 0 0 1 12,3.58 3.48,3.48 0 0 0 3.32,0.83 3.53,3.53 0 0 0 2.46,-2.41 c 0.21,-0.74 1.16,-3 2.63,-3.85 a 2.64,2.64 0 0 1 2.2,-0.12 19.2,19.2 0 0 1 4.43,1.98 16.92,16.92 0 0 0 3.44,8 17.61,17.61 0 0 0 -8.88,9.54 14.36,14.36 0 0 0 -0.86,6.059997 50.29,50.29 0 0 0 -13.83,1.1 3.5,3.5 0 0 0 1.75,6.77 46.14,46.14 0 0 1 14.43,-0.78 19.84,19.84 0 0 0 2.23,3 c 3.34,3.7 6.92,5.18 10.13,5.44 l -0.21,0.26 a 11.61,11.61 0 0 0 -2.06,5 22,22 0 0 0 -14,3.31 c -4.14,2.57 -6.64,6.23 -6.98,9.99 z m 45.67,45.77 c -1.14,-0.09 -2.57,-0.55 -3.53,-3.29 a 3.5,3.5 0 0 0 -6.75,1.75 c 0.17,1.06 0.67,6.4 -6.29,8.24 -3.81,1 -7,0.3 -9.11,-2 -2.54,-2.76 -3.28,-7.3 -1.85,-11.29 a 3.51,3.51 0 0 0 -3.3,-4.68 3.61,3.61 0 0 0 -1.47,0.32 c -1.62,0.74 -6.53,2.32 -9.78,0.71 -1.78,-0.89 -3,-2.7 -3.61,-5.54 -0.08,-0.51 -1,-6.63 2.47,-11.26 2.28,-3 6.07,-4.91 11.28,-5.6 0.68,-0.05 1.15,-0.12 1.32,-0.15 a 3.5008892,3.5008892 0 0 0 -1,-6.93 c -0.36,0 -0.72,0.07 -1.07,0.12 a 9.68,9.68 0 0 1 -3.81,-0.49 3.56,3.56 0 0 1 -1.19,-0.71 3.71,3.71 0 0 1 -1,-2.41 8.51,8.51 0 0 1 0,-1.89 c 0.13,-1.53 1.58,-3.36 3.77,-4.76 a 14.62,14.62 0 0 1 12.44,-1.6 3.68,3.68 0 0 0 0.63,0.17 3.53,3.53 0 0 0 2.75,-0.75 3.52,3.52 0 0 0 1.26,-3.2 8.81,8.81 0 0 1 0,-1.17 18.26,18.26 0 0 0 1.87,1.86 25.08,25.08 0 0 0 3.56,2.54 36.29,36.29 0 0 0 7.39,3.29 44.79,44.79 0 0 0 4.68,1.26 50.49,50.49 0 0 0 8.94,1 h 0.8 0.16 a 15.58,15.58 0 0 1 9.720005,3.52 v -0.05 l 0.06,0.1 0.16,0.13 a 21.14,21.14 0 0 1 2,1.92 l -1.49,-0.09 v 0.09 a 0.28,0.28 0 0 0 0,-0.09 c -0.26,0 -0.52,0 -0.78,0 -1,-0.05 -1.88,-0.07 -2.79,-0.07 h -0.13 c -1.35,0 -2.66,0.05 -3.92,0.13 -0.4,0 -0.79,0 -1.18,0.09 v 0 a 58.85,58.85 0 0 0 -6.660005,0.92 c -14.07,2.76 -22.62,9.46 -23,9.75 a 3.5,3.5 0 0 0 4.35,5.48 c 0.8,-0.63 13.46,-10.29 33.000005,-9.4 -0.21,5 -0.49,11.54 -0.82,19.19 v 0 c -5.66,9.67 -13.620005,15.19 -18.080005,14.84 z m 33.000005,179.9 a 25.52,25.52 0 0 1 -3.45,-2.05 22.4,22.4 0 0 1 -3.57,-3.07 c -9,-9.51 -8.84,-25.84 -7.92,-41.76 2.36,-41.15 5.28,-106.89 7,-145.8 0.09,-2.24 0.18,-4.4 0.27,-6.45 0.07,-1.67 0.14,-3.28 0.2,-4.82 0.15,-3.45 0.28,-6.54 0.4,-9.21 0,-0.21 0,-0.42 0,-0.62 l 0.3,0.67 a 45.24,45.24 0 0 1 2.3,6.61 c 0,0.1 0,0.2 0.08,0.3 0.08,0.1 0,0.19 0.07,0.28 0.35,1.39 0.6,2.6 0.76,3.51 0.14,0.74 0.22,1.28 0.26,1.56 a 0.41,0.41 0 0 1 0,0.11 c 0,0.12 0,0.25 0,0.37 a 4.21,4.21 0 0 0 0.12,0.48 3.45,3.45 0 0 0 0.14,0.34 3.23,3.23 0 0 0 0.22,0.41 v 0 c 0,0.13 0,0.27 0,0.4 -1.42,53.17 -0.66,92.87 1.3,122.52 v 0 c 0.75,11.35 1.67,21.22 2.71,29.8 v 0 c 0.92,7.52 1.92,14.05 3,19.72 v 0 c 1.1,5.9 2.25,10.88 3.43,15.08 v 0 a 63.19,63.19 0 0 1 -4.12,10.8 v 0 c -0.17,0.33 -0.33,0.64 -0.49,0.93 -0.16,0.29 -0.33,0.59 -0.49,0.85 -0.68,-0.25 -1.35,-0.54 -2,-0.85 z m 21.69,10.91 h -20.77 v -3.65 h 20.77 z m 7.94,-16 a 22.1,22.1 0 0 1 -3.58,3.08 24.47,24.47 0 0 1 -3.45,2 c -0.18,0.1 -0.36,0.18 -0.54,0.26 h -11.2 c 0.15,-0.33 0.3,-0.68 0.45,-1 0.36,-0.86 0.73,-1.78 1.1,-2.78 0.13,-0.34 0.26,-0.68 0.38,-1 0.12,-0.32 0.25,-0.71 0.38,-1.09 0.6,-1.75 1.2,-3.68 1.79,-5.81 1.18,-4.2 2.34,-9.18 3.44,-15.08 v 0 c 1.06,-5.69 2.07,-12.24 3,-19.79 v 0 c 1,-8.59 2,-18.47 2.72,-29.82 v -0.07 c 1.94,-29.55 2.7,-69.09 1.3,-122 0,-0.27 0,-0.55 0,-0.82 0,-0.53 0,-1.05 -0.05,-1.58 v -0.17 0 c 0,-0.28 0.11,-0.82 0.25,-1.55 0.17,-0.91 0.41,-2.12 0.77,-3.51 0,-0.11 0.05,-0.22 0.08,-0.33 l 0.08,-0.29 a 45.62,45.62 0 0 1 2.29,-6.58 q 0.39,-0.9 0.84,-1.77 c 0,0.52 0.05,1.06 0.07,1.62 0.12,2.81 0.26,6.1 0.41,9.78 v 0 c 0.06,1.6 0.13,3.28 0.21,5 q 0.13,3.3 0.29,6.91 c 1.67,39 4.56,103.88 6.9,144.61 0.9,15.91 1.05,32.24 -7.93,41.75 z m 71.07,-190.59 c -0.64,2.85 -1.82,4.66 -3.6,5.55 -3.25,1.61 -8.16,0 -9.77,-0.71 a 3.52,3.52 0 0 0 -3.84,0.59 3.47,3.47 0 0 0 -0.94,3.76 c 1.43,4 0.68,8.54 -1.85,11.3 -2.15,2.34 -5.3,3.05 -9.11,2.05 -7,-1.84 -6.46,-7.18 -6.3,-8.2 a 3.5,3.5 0 0 0 -6.74,-1.79 c -1,2.74 -2.39,3.2 -3.53,3.28 -4.31,0.35 -11.83,-4.76 -17.45,-13.72 -0.35,-8.14 -0.64,-15.07 -0.86,-20.32 h 1.92 c 18.13,0 29.74,8.86 30.51,9.47 a 3.5,3.5 0 0 0 4.35,-5.48 c -0.36,-0.29 -8.91,-7 -23,-9.75 a 61.12,61.12 0 0 0 -6.66,-0.93 43.17,43.17 0 0 1 11.47,-6.78 h 0.08 a 23.88,23.88 0 0 1 4.71,-1.25 v 0 a 15.9,15.9 0 0 1 12.67,3.13 50.55,50.55 0 0 0 11.21,6.66 3.5,3.5 0 0 0 1.64,6.14 c 0.17,0 0.64,0.1 1.32,0.15 5.21,0.69 9,2.57 11.28,5.6 3.51,4.57 2.58,10.72 2.49,11.22 z m 34.85,-54.39 c -2.31,2.79 -7.47,3.33 -9.22,3.32 a 3.5,3.5 0 0 0 -2.6,5.91 c 2.92,3.07 4.08,7.52 2.88,11.08 -1,3 -3.61,4.93 -7.5,5.56 -7.11,1.14 -8.81,-3.95 -9.08,-4.95 a 3.5,3.5 0 0 0 -6.89,1.1 c 0.24,2.9 -0.89,3.89 -1.89,4.43 a 4.12,4.12 0 0 1 -0.52,0.24 9.55,9.55 0 0 1 -3.53,0.61 18.71,18.71 0 0 1 -3.5,-0.33 39.14,39.14 0 0 1 -16.6,-7.9 l -0.23,-0.17 c -0.32,-0.25 -0.64,-0.48 -1,-0.7 -0.36,-0.22 -0.58,-0.39 -0.87,-0.58 a 22.12,22.12 0 0 0 -2.06,-1.14 20.3,20.3 0 0 0 -1.94,-0.84 18.26,18.26 0 0 0 1.87,-1.86 13.35,13.35 0 0 0 2.33,-3.64 q 0.15,-0.36 0.27,-0.72 a 10.35,10.35 0 0 0 0.59,-3.48 11,11 0 0 0 1.28,0 c 3.24,-0.26 6.8,-1.73 10.15,-5.44 a 19.84,19.84 0 0 0 2.23,-3 46.14,46.14 0 0 1 14.43,0.78 3.5011034,3.5011034 0 0 0 1.75,-6.78 51.13,51.13 0 0 0 -13.84,-1.09 14.2,14.2 0 0 0 -0.86,-6.059997 17.53,17.53 0 0 0 -8.83,-9.64 17,17 0 0 0 3.44,-8 19.71,19.71 0 0 1 4.51,-2 2.64,2.64 0 0 1 2.2,0.11 c 1.48,0.81 2.42,3.11 2.64,3.84 a 3.49,3.49 0 0 0 5.78,1.6 14.61,14.61 0 0 1 12,-3.59 c 2.57,0.4 4.63,1.48 5.37,2.83 1,1.78 1.26,3.24 0.79,4.33 -0.68,1.58 -2.81,2.66 -4.12,3.15 -0.33,0.1 -0.67,0.2 -1,0.32 a 3.4924096,3.4924096 0 0 0 1.94,6.71 c 0.17,0 0.63,-0.16 1.27,-0.38 5,-1.49 9.27,-1.3 12.58,0.55 5.05,2.819997 6.68,8.789997 6.81,9.279997 0.59,2.84 0.24,4.98 -1.03,6.51 z" id="path26" inkscape:connector-curvature="0" style="fill:#191919" />
   <path class="cls-1" d="m 146.65596,165.22962 v 0 c 0,0 0,0 0,-0.05 z m 12.73,152.27 c -2.34,-40.73 -5.23,-105.56 -6.9,-144.61 q -0.15,-3.62 -0.29,-6.91 c -0.08,-1.74 -0.15,-3.42 -0.21,-5 v 0 c -0.15,-3.68 -0.29,-7 -0.41,-9.78 0,-0.56 0,-1.1 -0.07,-1.62 q -0.45,0.87 -0.84,1.77 a 45.62,45.62 0 0 0 -2.29,6.58 l -0.08,0.29 c 0,0.11 -0.06,0.22 -0.08,0.33 -0.36,1.39 -0.6,2.6 -0.77,3.51 -0.14,0.73 -0.21,1.27 -0.25,1.55 v 0 0.17 c 0,0.53 0,1.05 0.05,1.58 0,0.27 0,0.55 0,0.82 1.4,52.91 0.64,92.45 -1.3,122 v 0.07 c -0.75,11.35 -1.68,21.23 -2.72,29.82 v 0 c -0.91,7.55 -1.92,14.1 -3,19.79 v 0 c -1.1,5.9 -2.26,10.88 -3.44,15.08 -0.59,2.13 -1.19,4.06 -1.79,5.81 -0.13,0.38 -0.25,0.74 -0.38,1.09 -0.13,0.35 -0.25,0.69 -0.38,1 -0.37,1 -0.74,1.92 -1.1,2.78 -0.15,0.35 -0.3,0.7 -0.45,1 h 11.2 c 0.18,-0.08 0.36,-0.16 0.54,-0.26 a 24.47,24.47 0 0 0 3.45,-2 22.1,22.1 0 0 0 3.58,-3.08 c 8.99,-9.53 8.84,-25.86 7.93,-41.78 z m -23.77,-154.84 v -0.2 l -0.09,-3.35 v -0.6 l -0.06,-2.54 v -0.41 -0.29 l -0.12,-4.46 v -0.37 -1.94 -0.31 l -1.68,0.72 c -0.33,0.15 -0.67,0.29 -1,0.43 v 0 l -0.2,0.11 -0.21,0.09 a 3.31,3.31 0 0 1 -0.87,0.24 h -0.38 v 0.56 0 1 l -0.09,3.45 v 0.67 0.13 0.66 l -0.06,2 v 0 0.85 l -0.09,3.34 v 0.21 l -3.31,125.25 v 0.12 a 449.3,449.3 0 0 0 5,44.88 c 0.27,1.59 0.54,3.11 0.82,4.56 0.28,-1.45 0.55,-3 0.82,-4.56 a 450.44,450.44 0 0 0 5,-45 v -0.07 z" id="path28" inkscape:connector-curvature="0" style="fill:#191919" />
   <path class="cls-2" d="m 138.92596,287.80962 v 0.07 a 450.44,450.44 0 0 1 -5,45 c -0.27,1.59 -0.54,3.11 -0.82,4.56 -0.28,-1.45 -0.55,-3 -0.82,-4.56 a 449.3,449.3 0 0 1 -5,-44.88 v -0.09 l 3.31,-125.25 v -0.21 l 0.09,-3.34 v -0.85 0 l 0.06,-2 v -0.66 -0.13 -0.67 l 0.09,-3.45 v -1 0 -0.39 l 0.2,-0.18 v 0 a 3.31,3.31 0 0 0 0.87,-0.24 l 0.21,-0.09 0.24,-0.09 c 0.35,-0.14 0.69,-0.28 1,-0.43 l 1.68,-0.72 v 0.31 1.94 0.37 l 0.12,4.46 v 0.29 0.41 l 0.06,2.54 v 0.6 l 0.09,3.35 v 0.2 z" id="path30" inkscape:connector-curvature="0" style="fill:#ffffff" />
   <path class="cls-2" d="m 222.53596,168.66962 c -0.64,2.85 -1.82,4.66 -3.6,5.55 -3.25,1.61 -8.16,0 -9.77,-0.71 a 3.52,3.52 0 0 0 -3.84,0.59 3.47,3.47 0 0 0 -0.94,3.76 c 1.43,4 0.68,8.54 -1.85,11.3 -2.15,2.34 -5.3,3.05 -9.11,2.05 -7,-1.84 -6.46,-7.18 -6.3,-8.2 a 3.5,3.5 0 0 0 -6.74,-1.79 c -1,2.74 -2.39,3.2 -3.53,3.28 -4.31,0.35 -11.83,-4.76 -17.45,-13.72 -0.35,-8.14 -0.64,-15.07 -0.86,-20.32 h 1.92 c 18.13,0 29.74,8.86 30.51,9.47 a 3.5,3.5 0 0 0 4.35,-5.48 c -0.36,-0.29 -8.91,-7 -23,-9.75 a 61.12,61.12 0 0 0 -6.66,-0.93 43.17,43.17 0 0 1 11.47,-6.75 h 0.08 a 23.88,23.88 0 0 1 4.71,-1.25 v 0 a 15.9,15.9 0 0 1 12.67,3.13 50.55,50.55 0 0 0 11.21,6.66 3.5,3.5 0 0 0 1.64,6.14 c 0.17,0 0.64,0.1 1.32,0.15 5.21,0.69 9,2.57 11.28,5.6 3.51,4.57 2.58,10.72 2.49,11.22 z" id="path32" inkscape:connector-curvature="0" style="fill:#ffffff" />
   <path class="cls-1" d="m 147.44596,136.24962 z m -16.44,13.52 v 0.17 l 0.2,-0.18 z" id="path34" inkscape:connector-curvature="0" style="fill:#191919" />
   <path class="cls-2" d="m 257.38596,114.27962 c -2.31,2.79 -7.47,3.33 -9.22,3.32 a 3.5,3.5 0 0 0 -2.6,5.91 c 2.92,3.07 4.08,7.52 2.88,11.08 -1,3 -3.61,4.93 -7.5,5.56 -7.11,1.14 -8.81,-3.95 -9.08,-4.95 a 3.5,3.5 0 0 0 -6.89,1.1 c 0.24,2.9 -0.89,3.89 -1.89,4.43 a 4.12,4.12 0 0 1 -0.52,0.24 9.55,9.55 0 0 1 -3.53,0.61 18.71,18.71 0 0 1 -3.5,-0.33 39.14,39.14 0 0 1 -16.6,-7.9 l -0.23,-0.17 c -0.32,-0.25 -0.64,-0.48 -1,-0.7 -0.36,-0.22 -0.58,-0.39 -0.87,-0.58 a 22.12,22.12 0 0 0 -2.06,-1.14 20.3,20.3 0 0 0 -1.94,-0.84 18.26,18.26 0 0 0 1.87,-1.86 13.35,13.35 0 0 0 2.33,-3.64 q 0.15,-0.36 0.27,-0.72 a 10.35,10.35 0 0 0 0.59,-3.48 11,11 0 0 0 1.28,0 c 3.24,-0.26 6.8,-1.73 10.15,-5.44 a 19.84,19.84 0 0 0 2.23,-3 46.14,46.14 0 0 1 14.43,0.78 3.5011034,3.5011034 0 0 0 1.75,-6.78 51.13,51.13 0 0 0 -13.84,-1.09 14.2,14.2 0 0 0 -0.86,-6.059997 17.53,17.53 0 0 0 -8.83,-9.61 17,17 0 0 0 3.44,-8 19.71,19.71 0 0 1 4.51,-2 2.64,2.64 0 0 1 2.2,0.11 c 1.48,0.81 2.42,3.11 2.64,3.84 a 3.49,3.49 0 0 0 5.78,1.6 14.61,14.61 0 0 1 12,-3.59 c 2.57,0.4 4.63,1.48 5.37,2.83 1,1.78 1.26,3.24 0.79,4.33 -0.68,1.58 -2.81,2.66 -4.12,3.15 -0.33,0.1 -0.67,0.2 -1,0.32 a 3.4924096,3.4924096 0 0 0 1.94,6.71 c 0.17,0 0.63,-0.16 1.27,-0.38 5,-1.49 9.27,-1.3 12.58,0.55 5.05,2.819997 6.68,8.789997 6.81,9.279997 0.59,2.84 0.24,4.98 -1.03,6.51 z" id="path36" inkscape:connector-curvature="0" style="fill:#ffffff" />
   <path class="cls-2" d="m 56.325955,114.69962 a 19.84,19.84 0 0 1 -2.23,-3 46.14,46.14 0 0 0 -14.43,0.78 3.5,3.5 0 0 1 -1.75,-6.77 50.29,50.29 0 0 1 13.83,-1.1 14.36,14.36 0 0 1 0.86,-6.059997 17.61,17.61 0 0 1 8.88,-9.53 16.92,16.92 0 0 1 -3.48,-8 19.2,19.2 0 0 0 -4.52,-2 2.64,2.64 0 0 0 -2.2,0.12 c -1.47,0.8 -2.42,3.11 -2.63,3.85 a 3.53,3.53 0 0 1 -2.46,2.41 3.48,3.48 0 0 1 -3.32,-0.83 14.6,14.6 0 0 0 -12,-3.58 c -2.57,0.39 -4.63,1.47 -5.38,2.82 -1,1.79 -1.25,3.25 -0.78,4.35 0.7,1.59 2.83,2.65 4.1,3.12 0.34,0.11 0.68,0.21 1,0.33 a 3.5,3.5 0 0 1 -1.94,6.72 c -0.17,0 -0.63,-0.17 -1.27,-0.39 -5,-1.49 -9.27,-1.3 -12.58,0.55 -5.06,2.819997 -6.69,8.789997 -6.81,9.289997 -0.57,2.86 -0.23,5 1.05,6.52 2.31,2.79 7.46,3.35 9.23,3.32 a 3.5,3.5 0 0 1 2.59,5.91 c -2.88,3.02 -4.08,7.49 -2.84,11.03 1,3 3.61,4.94 7.5,5.56 7.1,1.14 8.81,-3.95 9.08,-5 a 3.53,3.53 0 0 1 3.4,-2.63 2.84,2.84 0 0 1 0.58,0 3.48,3.48 0 0 1 2.91,3.71 c -0.24,2.9 0.88,3.89 1.89,4.44 a 4,4 0 0 0 0.51,0.24 15.53,15.53 0 0 1 0,-2.24 c 0.34,-3.76 2.88,-7.42 7,-10 a 22,22 0 0 1 14,-3.31 11.61,11.61 0 0 1 2.06,-5 l 0.21,-0.26 c -3.14,-0.19 -6.72,-1.67 -10.06,-5.37 z" id="path38" inkscape:connector-curvature="0" style="fill:#ffffff" />
   <path class="cls-1" d="m 108.11596,141.54962 v 0.05 h 0.06 z m 0.7,2 v 0.09 a 0.28,0.28 0 0 1 0,0.09 v -0.09 a 0.28,0.28 0 0 0 0,-0.12 z" id="path40" inkscape:connector-curvature="0" style="fill:#191919" />
   <path class="cls-1" d="m 108.17596,141.64962 h -0.06 v -0.05 z" id="path42" inkscape:connector-curvature="0" style="fill:#191919" />
   <path class="cls-2" d="m 108.17596,141.64962 h -0.06 v -0.05 z" id="path44" inkscape:connector-curvature="0" style="fill:#ffffff" />
   <path class="cls-2" d="m 108.82596,143.60962 v 0.09 a 0.28,0.28 0 0 0 0,-0.09 v -0.09 a 0.28,0.28 0 0 1 0,0.09 z" id="path46" inkscape:connector-curvature="0" style="fill:#ffffff" />
   <path class="cls-2" d="M 131.00596,150.32962 Z" id="path48" inkscape:connector-curvature="0" style="fill:#ffffff" />
   <path class="cls-2" d="m 131.19596,149.75962 -0.2,0.18 v -0.17 z" id="path50" inkscape:connector-curvature="0" style="fill:#ffffff" />
   <path class="cls-2" d="M 131.21596,149.75962 Z" id="path52" inkscape:connector-curvature="0" style="fill:#ffffff" />
   <path class="cls-2" d="m 132.53596,149.33962 -0.24,0.09 0.2,-0.11 z" id="path54" inkscape:connector-curvature="0" style="fill:#ffffff" />
   <path class="cls-1" d="m 131.00596,150.33962 z m 0,0 z m 0,0 z m 15.69,14.89 v 0 c 0,0 0,0 0,-0.05 z m 0.51,-1.68 v 0.09 c 0,0 0,-0.06 0,-0.09 z m -16.2,-13.21 z m 0,-0.57 v 0.17 l 0.2,-0.18 z m 1.49,-0.45 -0.2,0.11 0.24,-0.09 z m -1.29,0.43 z m -0.24,0.59 z m 0,0 z m 0,0 z" id="path56" inkscape:connector-curvature="0" style="fill:#191919" />
   <path class="cls-1" d="m 108.82596,143.60962 v 0.09 a 0.28,0.28 0 0 0 0,-0.09 z" id="path58" inkscape:connector-curvature="0" style="fill:#191919" />
   <path class="cls-1" d="M 131.00596,150.32962 Z" id="path60" inkscape:connector-curvature="0" style="fill:#191919" />
   <path class="cls-1" d="m 131.19596,149.75962 -0.2,0.18 v -0.17 z" id="path62" inkscape:connector-curvature="0" style="fill:#191919" />
   <path class="cls-1" d="M 131.21596,149.75962 Z" id="path64" inkscape:connector-curvature="0" style="fill:#191919" />
   <path class="cls-1" d="m 132.53596,149.33962 -0.24,0.09 0.2,-0.11 z" id="path66" inkscape:connector-curvature="0" style="fill:#191919" />
   <path class="cls-1" d="m 147.17596,163.54962 c 0,0 0,0.06 0,0.09 z" id="path68" inkscape:connector-curvature="0" style="fill:#191919" />
   <path class="cls-1" d="m 146.68596,165.17962 c 0,0 0,0 0,0.05 v 0 z" id="path70" inkscape:connector-curvature="0" style="fill:#191919" />
   <path class="cls-2" d="M 131.00596,150.32962 Z" id="path72" inkscape:connector-curvature="0" style="fill:#ffffff" />
   <path class="cls-2" d="m 131.19596,149.75962 -0.2,0.18 v -0.17 z" id="path74" inkscape:connector-curvature="0" style="fill:#ffffff" />
   <path class="cls-2" d="M 131.21596,149.75962 Z" id="path76" inkscape:connector-curvature="0" style="fill:#ffffff" />
   <path class="cls-2" d="m 132.53596,149.33962 -0.24,0.09 0.2,-0.11 z" id="path78" inkscape:connector-curvature="0" style="fill:#ffffff" />
   <path class="cls-1" d="M 131.00596,150.33962 Z" id="path80" inkscape:connector-curvature="0" style="fill:#191919" />
   <path class="cls-2" d="m 129.47596,352.88962 v 0 a 63.19,63.19 0 0 1 -4.12,10.8 v 0 c -0.17,0.33 -0.33,0.64 -0.49,0.93 -0.16,0.29 -0.33,0.59 -0.49,0.85 -0.68,-0.25 -1.35,-0.54 -2,-0.85 l -0.55,-0.26 a 25.52,25.52 0 0 1 -3.45,-2.05 22.4,22.4 0 0 1 -3.57,-3.07 c -9,-9.51 -8.84,-25.84 -7.92,-41.76 2.36,-41.15 5.28,-106.89 7,-145.8 0.09,-2.24 0.18,-4.4 0.27,-6.45 0.07,-1.67 0.14,-3.28 0.2,-4.82 0.15,-3.45 0.28,-6.54 0.4,-9.21 0,-0.21 0,-0.42 0,-0.62 l 0.3,0.67 a 45.24,45.24 0 0 1 2.3,6.61 c 0,0.1 0,0.2 0.08,0.3 0.08,0.1 0,0.19 0.07,0.28 0.35,1.39 0.6,2.6 0.76,3.51 0.14,0.74 0.22,1.28 0.26,1.56 a 0.41,0.41 0 0 1 0,0.11 c 0,0.12 0,0.25 0,0.37 a 4.21,4.21 0 0 0 0.12,0.48 3.45,3.45 0 0 0 0.14,0.34 3.23,3.23 0 0 0 0.22,0.41 v 0 c 0,0.13 0,0.27 0,0.4 -1.42,53.17 -0.66,92.87 1.3,122.52 v 0 c 0.75,11.35 1.67,21.22 2.71,29.8 v 0 c 0.92,7.52 1.92,14.05 3,19.72 v 0 c 1.13,6.05 2.28,11.03 3.46,15.23 z" id="path82" inkscape:connector-curvature="0" style="fill:#ffffff" />
   <path class="cls-1" d="m 108.11596,141.54962 v 0.05 h 0.06 z m 0.7,2 v 0.09 a 0.28,0.28 0 0 1 0,0.09 v -0.09 a 0.28,0.28 0 0 0 0,-0.12 z" id="path84" inkscape:connector-curvature="0" style="fill:#191919" />
   <path class="cls-2" d="m 151.46596,359.25962 a 22.1,22.1 0 0 1 -3.58,3.08 24.47,24.47 0 0 1 -3.45,2 c -0.18,0.1 -0.36,0.18 -0.54,0.26 h -11.2 c 0.15,-0.33 0.3,-0.68 0.45,-1 0.36,-0.86 0.73,-1.78 1.1,-2.78 0.13,-0.34 0.26,-0.68 0.38,-1 0.12,-0.32 0.25,-0.71 0.38,-1.09 0.6,-1.75 1.2,-3.68 1.79,-5.81 1.18,-4.2 2.34,-9.18 3.44,-15.08 v 0 c 1.06,-5.69 2.07,-12.24 3,-19.79 v 0 c 1,-8.59 2,-18.47 2.72,-29.82 v -0.07 c 1.94,-29.55 2.7,-69.09 1.3,-122 0,-0.27 0,-0.55 0,-0.82 0,-0.53 0,-1.05 -0.05,-1.58 v -0.08 c 0,0 0,-0.06 0,-0.09 0,-0.28 0.11,-0.82 0.25,-1.55 0.17,-0.91 0.41,-2.12 0.77,-3.51 0,-0.11 0.05,-0.22 0.08,-0.33 l 0.08,-0.29 a 45.62,45.62 0 0 1 2.29,-6.58 q 0.39,-0.9 0.84,-1.77 c 0,0.52 0.05,1.06 0.07,1.62 0.12,2.81 0.26,6.1 0.41,9.78 v 0 c 0.06,1.6 0.13,3.28 0.21,5 q 0.13,3.3 0.29,6.91 c 1.67,39 4.56,103.88 6.9,144.61 0.9,15.94 1.05,32.27 -7.93,41.78 z" id="path86" inkscape:connector-curvature="0" style="fill:#ffffff" />
   <path class="cls-2" d="m 147.17596,163.54962 c 0,0 0,0.06 0,0.09 z" id="path88" inkscape:connector-curvature="0" style="fill:#ffffff" />
   <path class="cls-2" d="m 146.68596,165.17962 c 0,0 0,0 0,0.05 v 0 z" id="path90" inkscape:connector-curvature="0" style="fill:#ffffff" />
   <path class="cls-1" d="m 146.65596,165.22962 v 0 c 0,0 0,0 0,-0.05 z m 0,0 v 0 c 0,0 0,0 0,-0.05 z m 0,0 v 0 c 0,0 0,0 0,-0.05 z m 0,0 v 0 c 0,0 0,0 0,-0.05 z m 0,0 v 0 c 0,0 0,0 0,-0.05 z" id="path92" inkscape:connector-curvature="0" style="fill:#191919" />
   <rect class="cls-2" x="122.75596" y="371.63962" width="20.77" height="3.6500001" id="rect94" style="fill:#ffffff" />
   <path class="cls-2" d="m 192.50596,64.169623 a 19.75,19.75 0 0 0 -7.28,-0.2 19.24,19.24 0 0 0 -7.22,2.82 c -0.84,-2.18 -2.77,-4.84 -7.15,-6.63 -3.5,-1.42 -7.91,-0.83 -12.12,1.61 a 22.06,22.06 0 0 0 -9.36,11 11.54,11.54 0 0 0 -5.36,-0.43 8.82,8.82 0 0 0 -0.89,0.2 152.43,152.43 0 0 0 -8.58,-30 3.5032556,3.5032556 0 1 0 -6.44,2.76 152.27,152.27 0 0 1 8.68,32.61 30.45,30.45 0 0 0 -3.91,11.47 29.69,29.69 0 0 0 -4.78,-12.83 9.67,9.67 0 0 0 -6.36,-4.21 11.66,11.66 0 0 0 -5.36,0.43 22.08,22.08 0 0 0 -9.37,-11 c -4.2,-2.44 -8.610005,-3 -12.110005,-1.61 -4.38,1.79 -6.31,4.45 -7.15,6.63 a 19.34,19.34 0 0 0 -6.54,-2.68 14.06,14.06 0 0 1 5,-2.49 3.5,3.5 0 0 0 1.59,-5.65 c -0.08,-0.08 -7.38,-8.53 -6.55,-16.76 0.36,-3.58 2.21,-6.58 5.63,-9.19 a 19.59,19.59 0 0 1 11.66,-4.21 14.75,14.75 0 0 1 2.400005,0.19 14.47,14.47 0 0 1 9.81,6.57 3.5001607,3.5001607 0 0 0 5.82,-3.89 c -0.06,-0.09 -5.87,-9.31 -3,-15.32 1.59,-3.33 5.83,-5.3800001 12.62,-6.0800001 7.23,-0.75 12.23,0.35 14.08,3.0900001 2.18,3.21 0.93,9.62 -3.51,18 a 3.5,3.5 0 0 0 5.81,3.84 c 2,-2.48 8.66,-9 15.09,-9.35 a 9.93,9.93 0 0 1 7.77,3.28 c 2.72,2.69 4,5.32 4,8 0,3.39 -2.08,7.19 -6.21,11.31 a 3.5,3.5 0 0 0 2.86,6 c 7,-0.78 18.44,-0.53 21.93,2.46 2.53,2.19 4.15,5.93 4.5,10.26 z" id="path96" inkscape:connector-curvature="0" style="fill:#ffffff" />
   <path class="cls-1" d="m 132.49596,149.31962 -0.2,0.11 0.24,-0.09 z m 14.95,-13.07 z m -14.95,13.07 -0.2,0.11 0.24,-0.09 z m 0,0 -0.2,0.11 0.24,-0.09 z" id="path98" inkscape:connector-curvature="0" style="fill:#191919" />
   <path class="cls-1" d="M 131.21596,149.75962 Z" id="path100" inkscape:connector-curvature="0" style="fill:#191919" />
   <path class="cls-2" d="m 127.89596,121.25962 v 0 c -0.27,3.1 -0.72,6.45 -1.35,10.08 v 0 c -0.32,1.8 -0.68,3.64 -1.08,5.57 v 0.14 -0.19 a 65.53,65.53 0 0 0 -9.41,-24.6 c -1.14,-1.77 -2.3,-3.37 -3.44,-4.82 l -0.39,-0.48 c -0.36,-0.45 -0.72,-0.89 -1.08,-1.31 l -0.75,-0.86 c -0.46,-0.52 -0.92,-1 -1.38,-1.51 l -0.68,-0.71 c -0.23,-0.23 -0.46,-0.47 -0.69,-0.69 -0.23,-0.22 -0.39,-0.39 -0.58,-0.57 q -1.06,-1 -2.1,-1.949997 a 53.73,53.73 0 0 0 -10.820005,-7.55 l -0.71,-0.35 a 3.49,3.49 0 0 0 -4,0.84 3.46,3.46 0 0 0 -0.24,4.4 3.44,3.44 0 0 0 1.38,1.14 44.68,44.68 0 0 1 10.430005,7.339997 55.28,55.28 0 0 1 16.22,26.76 c 0.38,1.38 0.72,2.82 1,4.31 0,0.22 0.09,0.45 0.14,0.68 q 0.26,1.38 0.45,2.82 c 0.1,0.64 0.18,1.29 0.25,2 0.06,0.51 0.11,1 0.16,1.55 0,0.33 0.06,0.66 0.08,1 -0.2,-0.33 -0.4,-0.66 -0.61,-1 a 31.22,31.22 0 0 0 -2.58,-3.5 3.92,3.92 0 0 0 -0.27,-0.33 26.32,26.32 0 0 0 -3.25,-3.17 22.06,22.06 0 0 0 -8.36,-4.36 19.89,19.89 0 0 0 -3.18,-0.63 c -0.32,0 -0.64,-0.08 -1,-0.09 a 2.63,2.63 0 0 0 -0.490005,0 c -0.36,0 -0.73,0 -1.11,-0.05 -0.78,0 -1.55,0 -2.3,-0.09 a 45.06,45.06 0 0 1 -5.12,-0.63 l -0.68,-0.13 a 37.75,37.75 0 0 1 -4.86,-1.29 c -4.29,-1.43 -7.56,-3.43 -9.33,-5.49 a 6.78,6.78 0 0 1 -1.14,-1.77 3.52,3.52 0 0 1 -0.29,-1.68 4,4 0 0 1 0.67,-1.81 8.54,8.54 0 0 1 0.93,-1.15 2.88,2.88 0 0 0 0.43,-0.56 3.5,3.5 0 0 0 -5.08,-4.64 c -0.86,0.63 -5.39,3.52 -10.2,-1.83 a 10.77,10.77 0 0 1 -2.62,-4.65 7.46,7.46 0 0 1 0.27,-4.38 c 1.3,-3.519997 5,-6.259997 9.2,-6.819997 a 3.4,3.4 0 0 0 2,-1 3.49,3.49 0 0 0 -0.31,-5.26 16.75,16.75 0 0 1 -4.28,-5.25 7.49,7.49 0 0 1 -0.74,-3.16 5.27,5.27 0 0 1 0.37,-2 9.24,9.24 0 0 1 2.92,-3.75 17.87,17.87 0 0 1 3.64,-2 15.74,15.74 0 0 1 3.39,-1 12.78,12.78 0 0 1 3.51,-0.1 v 0 l 0.58,0.09 c 3.73,0.64 7.14,3.15 10.14,7.47 0.36,0.57 0.64,1 0.74,1.09 a 3.5,3.5 0 0 0 5.73,-4 l -0.57,-0.86 c -0.72,-1.21 -1.71,-3.39 -1.24,-5 0.32,-1.14 1.44,-2.11 3.33,-2.88 1.43,-0.58 3.710005,-0.13 6.000005,1.18 a 14.57,14.57 0 0 1 7.1,10.33 3.51,3.51 0 0 0 5.49,2.39 c 0.64,-0.44 2.82,-1.64 4.48,-1.34 a 2.64,2.64 0 0 1 1.78,1.29 c 4,5.72 4,13 4.1,18.25 a 24.07,24.07 0 0 0 0.5,5.999997 34.52,34.52 0 0 1 1.23,8.68 v 0 a 69.4,69.4 0 0 1 -0.33,7.84 z" id="path102" inkscape:connector-curvature="0" style="fill:#ffffff" />
   <path class="cls-1" d="m 108.11596,141.54962 v 0.05 h 0.06 z" id="path104" inkscape:connector-curvature="0" style="fill:#191919" />
   <path class="cls-2" d="m 110.31596,143.69962 -1.49,-0.09 a 0.28,0.28 0 0 0 0,-0.09 v 0.09 c -0.26,0 -0.52,0 -0.78,0 -1,-0.05 -1.88,-0.07 -2.79,-0.07 h -0.13 c -1.35,0 -2.66,0.05 -3.92,0.13 -0.4,0 -0.79,0 -1.18,0.09 v 0 a 58.85,58.85 0 0 0 -6.660005,0.92 c -14.07,2.76 -22.62,9.46 -23,9.75 a 3.5,3.5 0 0 0 4.35,5.48 c 0.8,-0.63 13.46,-10.29 33.000005,-9.4 -0.21,5 -0.49,11.54 -0.82,19.19 v 0 c -5.67,9.61 -13.630005,15.13 -18.090005,14.78 -1.14,-0.09 -2.57,-0.55 -3.53,-3.29 a 3.5,3.5 0 0 0 -6.75,1.75 c 0.17,1.06 0.67,6.4 -6.29,8.24 -3.81,1 -7,0.3 -9.11,-2 -2.54,-2.76 -3.28,-7.3 -1.85,-11.29 a 3.51,3.51 0 0 0 -3.3,-4.68 3.61,3.61 0 0 0 -1.47,0.32 c -1.62,0.74 -6.53,2.32 -9.78,0.71 -1.78,-0.89 -3,-2.7 -3.61,-5.54 -0.08,-0.51 -1,-6.63 2.47,-11.26 2.28,-3 6.07,-4.91 11.28,-5.6 0.68,-0.05 1.15,-0.12 1.32,-0.15 a 3.5008892,3.5008892 0 0 0 -1,-6.93 c -0.36,0 -0.72,0.07 -1.07,0.12 a 9.68,9.68 0 0 1 -3.81,-0.49 3.56,3.56 0 0 1 -1.19,-0.71 3.71,3.71 0 0 1 -1,-2.41 8.51,8.51 0 0 1 0,-1.89 c 0.13,-1.53 1.58,-3.36 3.77,-4.76 a 14.62,14.62 0 0 1 12.47,-1.6 3.68,3.68 0 0 0 0.63,0.17 3.53,3.53 0 0 0 2.75,-0.75 3.52,3.52 0 0 0 1.26,-3.2 8.81,8.81 0 0 1 0,-1.17 18.26,18.26 0 0 0 1.87,1.86 25.08,25.08 0 0 0 3.56,2.54 36.29,36.29 0 0 0 7.39,3.29 44.79,44.79 0 0 0 4.68,1.26 50.49,50.49 0 0 0 8.94,1 h 0.8 0.16 a 15.58,15.58 0 0 1 9.720005,3.52 h 0.06 l 0.16,0.13 a 21.14,21.14 0 0 1 1.98,2.03 z" id="path106" inkscape:connector-curvature="0" style="fill:#ffffff" />
   <path class="cls-2" d="m 206.78596,105.36962 a 10.73,10.73 0 0 1 -2.62,4.67 c -4.82,5.35 -9.34,2.46 -10.17,1.85 a 3.5,3.5 0 0 0 -5.12,4.61 4,4 0 0 0 0.44,0.57 8.54,8.54 0 0 1 0.93,1.15 4,4 0 0 1 0.67,1.81 3.52,3.52 0 0 1 -0.29,1.68 6.63,6.63 0 0 1 -1.15,1.78 c -1.75,2 -5,4 -9.23,5.46 a 38.1,38.1 0 0 1 -5,1.33 v 0 l -0.58,0.11 v 0 a 42.34,42.34 0 0 1 -5.1,0.62 v 0 c -0.76,0.06 -1.53,0.09 -2.31,0.1 -0.39,0 -0.77,0 -1.14,0 v 0 c -0.15,0 -0.28,0 -0.43,0 v 0 c -0.32,0 -0.64,0.06 -1,0.1 a 21.06,21.06 0 0 0 -3.18,0.62 22.07,22.07 0 0 0 -8.32,4.34 26.1,26.1 0 0 0 -3.28,3.2 v 0 l -0.24,0.29 a 31.55,31.55 0 0 0 -2.58,3.5 l -0.47,0.76 -0.16,0.26 c 0.06,-0.86 0.25,-2.68 0.26,-2.75 0.07,-0.6 0.14,-1.19 0.23,-1.77 0.13,-1 0.29,-1.89 0.45,-2.81 v 0 c 0,-0.23 0.09,-0.46 0.13,-0.69 0.29,-1.47 0.62,-2.88 1,-4.25 0.32,-1.21 0.68,-2.38 1.06,-3.51 v 0 c 6.93,-20.45 22.39,-28.929997 25.25,-30.349997 v 0 l 0.4,-0.19 a 3.52,3.52 0 0 0 1.74,-4.63 3.5,3.5 0 0 0 -4.63,-1.75 c -0.41,0.19 -10.29,4.73 -19.18,15.999997 a 64.39,64.39 0 0 0 -12.83,29.25 c 0,0.11 0,0.22 -0.05,0.33 l -0.09,-0.41 c -0.14,-0.67 -0.27,-1.33 -0.4,-2 v 0 a 97.78,97.78 0 0 1 -2.22,-21.19 v 0 a 37.25,37.25 0 0 1 0.6,-5.94 0.28,0.28 0 0 1 0,-0.09 21.92,21.92 0 0 1 0.62,-2.65 24.11,24.11 0 0 0 0.5,-5.999997 c 0.06,-5.28 0.14,-12.52 4.1,-18.24 a 3.4,3.4 0 0 1 0.86,-0.9 2.06,2.06 0 0 1 0.92,-0.39 3.41,3.41 0 0 1 0.55,0 8.2,8.2 0 0 1 3.91,1.38 3.5,3.5 0 0 0 5.51,-2.39 14.59,14.59 0 0 1 7.1,-10.33 c 2.25,-1.3 4.53,-1.75 6,-1.17 1.89,0.77 3,1.74 3.33,2.88 0.47,1.66 -0.52,3.84 -1.23,5 -0.2,0.28 -0.39,0.57 -0.58,0.87 a 3.5,3.5 0 0 0 5.73,4 c 0.1,-0.13 0.38,-0.52 0.74,-1.1 3,-4.31 6.4,-6.83 10.14,-7.46 a 13,13 0 0 1 5.69,0.36 17.77,17.77 0 0 1 5.44,2.59 c 0.34,0.29 0.66,0.57 0.95,0.86 a 8.14,8.14 0 0 1 2,2.89 5.3,5.3 0 0 1 0.36,2 7.62,7.62 0 0 1 -0.82,3.12 16.85,16.85 0 0 1 -4.27,5.25 3.49,3.49 0 0 0 -1.24,3.68 3.57,3.57 0 0 0 2.92,2.56 c 4.2,0.55 7.9,3.29 9.2,6.819997 a 7.47,7.47 0 0 1 0.18,4.31 z" id="path108" inkscape:connector-curvature="0" style="fill:#ffffff" />
   <path class="cls-2" d="M 147.47596,136.21962 Z" id="path110" inkscape:connector-curvature="0" style="fill:#ffffff" />
   <path class="cls-1" d="m 146.65596,165.22962 v 0 c 0,0 0,0 0,-0.05 z" id="path112" inkscape:connector-curvature="0" style="fill:#191919" />
   <path class="cls-1" d="m 147.17596,163.54962 c 0,0 0,0.06 0,0.09 z" id="path114" inkscape:connector-curvature="0" style="fill:#191919" />
   <path class="cls-1" d="M 147.47596,136.21962 Z" id="path116" inkscape:connector-curvature="0" style="fill:#191919" />
</svg>
