<?xml version="1.0" encoding="UTF-8" standalone="no"?>
<svg
   xmlns:dc="http://purl.org/dc/elements/1.1/"
   xmlns:cc="http://creativecommons.org/ns#"
   xmlns:rdf="http://www.w3.org/1999/02/22-rdf-syntax-ns#"
   xmlns:svg="http://www.w3.org/2000/svg"
   xmlns="http://www.w3.org/2000/svg"
   xmlns:sodipodi="http://sodipodi.sourceforge.net/DTD/sodipodi-0.dtd"
   xmlns:inkscape="http://www.inkscape.org/namespaces/inkscape"
   id="Capa_1"
   data-name="Capa 1"
   viewBox="0 0 355.33915 221.08047"
   version="1.1"
   sodipodi:docname="ARRAINA.svg"
   width="355.33914"
   height="221.08046"
   inkscape:version="0.92.5 (2060ec1f9f, 2020-04-08)">
  <metadata
     id="metadata41">
    <rdf:RDF>
      <cc:Work
         rdf:about="">
        <dc:format>image/svg+xml</dc:format>
        <dc:type
           rdf:resource="http://purl.org/dc/dcmitype/StillImage" />
      </cc:Work>
    </rdf:RDF>
  </metadata>
  <sodipodi:namedview
     pagecolor="#ffffff"
     bordercolor="#666666"
     borderopacity="1"
     objecttolerance="10"
     gridtolerance="10"
     guidetolerance="10"
     inkscape:pageopacity="0"
     inkscape:pageshadow="2"
     inkscape:window-width="1920"
     inkscape:window-height="1016"
     id="namedview39"
     showgrid="false"
     inkscape:zoom="0.86739199"
     inkscape:cx="177.65038"
     inkscape:cy="85.050976"
     inkscape:window-x="0"
     inkscape:window-y="27"
     inkscape:window-maximized="1"
     inkscape:current-layer="Capa_1" />
  <defs
     id="defs4">
    <style
       id="style2">.cls-1{fill:#1d1d1b;}.cls-2{fill:#fff;}</style>
  </defs>
  <path
     class="cls-2"
     d="m 235.62038,44.169495 a 168.74,168.74 0 0 0 -87.54,-24.18 172,172 0 0 0 -39.67,4.58 80.14,80.14 0 0 1 16.3,-8.58 c 33.1,-13.23 75.9,-9.24 106.68,-3.34 1.61,4.83 5.71,18.79 4.23,31.52 z"
     id="path20"
     inkscape:connector-curvature="0"
     style="fill:#ffffff" />
  <path
     class="cls-2"
     d="m 239.26038,179.5095 c -6.8,11.66 -19.15,24.7 -29.12,33.32 -21,3 -40.6,0.64 -58.59,-6.94 a 168,168 0 0 0 87.71,-26.38 z"
     id="path22"
     inkscape:connector-curvature="0"
     style="fill:#ffffff" />
  <path
     class="cls-1"
     d="m 323.00038,112.9895 a 86.42,86.42 0 0 0 10.88,-9.24 c 15.52,-15.520005 23.73,-35.220005 20.91,-50.200005 a 3.52,3.52 0 0 0 -2.79,-2.8 c -15,-2.82 -34.68,5.39 -50.2,20.91 a 81.35,81.35 0 0 0 -15.71,21.69 152.88,152.88 0 0 0 -44,-45.06 c 3.45,-18.27 -4.35,-38.92 -4.76,-40 a 3.49,3.49 0 0 0 -2.59,-2.17 c -46.71,-9.24 -84.84,-8 -113.32,3.61 -16.78,6.84 -25.159995,15.45 -28.279995,19.26 q -5.76,2 -11.38,4.36 c -36.99,15.64 -65.91,43.41 -81.45000016,78.210005 a 3.47,3.47 0 0 0 0.11,3.09 3.51,3.51 0 0 0 2.57999996,1.79 c 0.18,0 10.4300002,1.63 27.1300002,3.27 -7.57,2.32 -14.29,5.86 -18.34,11.19 a 3.5,3.5 0 0 0 -0.19,4.09 c 16.74,25.39 41,45.33 70.17,57.66 a 168,168 0 0 0 53.389995,12.85 114,114 0 0 0 58,15.58 128.34,128.34 0 0 0 19,-1.43 3.51,3.51 0 0 0 1.75,-0.8 c 3.81,-3.24 30.85,-26.83 36.45,-47.13 a 152.11,152.11 0 0 0 35.68,-39.07 81.35,81.35 0 0 0 15.71,21.69 c 15.53,15.48 35.25,23.65 50.25,20.87 a 3.51,3.51 0 0 0 2.79,-2.79 c 2.82,-15 -5.39,-34.68 -20.91,-50.2 a 86.42,86.42 0 0 0 -10.88,-9.23 z m -198.29,-97.000005 c 33.1,-13.23 75.9,-9.24 106.68,-3.34 1.63,4.88 5.71,18.84 4.23,31.57 a 168.74,168.74 0 0 0 -87.54,-24.23 172,172 0 0 0 -39.67,4.58 80.14,80.14 0 0 1 16.3,-8.58 z m 85.43,196.890005 c -21,3 -40.6,0.64 -58.59,-6.94 a 168,168 0 0 0 87.71,-26.38 c -6.8,11.61 -19.15,24.65 -29.12,33.27 z m 138.06,-44.22 c -12.34,1 -28.65,-6.46 -41.49,-19.31 -7.79,-7.79 -13.61,-16.65 -16.82,-25.63 a 3.5,3.5 0 0 0 -6.34,-0.55 143.89,143.89 0 0 1 -32.37,38.82 c -1.08,0.92 -2.17,1.82 -3.28,2.7 -1.11,0.88 -2.51,2 -3.79,2.92 -26.7,19.94 -60.36,31.29 -96,31.29 q -5.42,0 -10.77,-0.34 c -2.47,-0.16 -4.94,-0.37 -7.39,-0.63 -2.45,-0.26 -4.83,-0.58 -7.23,-0.95 a 160.13,160.13 0 0 1 -38.199995,-10.85 c -27,-11.42 -49.64,-29.66 -65.55,-52.84 5.45,-5.28 16,-8.8 30.77,-10.22 a 159.92,159.92 0 0 1 18.54,-0.64 l 6.12,0.26 a 3.5057096,3.5057096 0 0 0 0.4,-7 c -0.43,0 -3,-0.21 -6.82,-0.29 -28.21,-1.34 -50.15,-4 -59.2800002,-5.25 C 23.920385,78.949495 50.700385,54.059495 84.520385,39.759495 q 4.58,-1.94 9.24,-3.58 c 2.26,-0.8 4.53,-1.55 6.829995,-2.24 v 0 c 2.53,-0.77 5.07,-1.47 7.64,-2.11 a 164.13,164.13 0 0 1 39.85,-4.84 161.51,161.51 0 0 1 86,24.4 c 1,0.63 2,1.28 3,1.94 1,0.66 2,1.33 3,2 a 145.21,145.21 0 0 1 43.5,47.400005 3.5,3.5 0 0 0 6.34,-0.55 70.73,70.73 0 0 1 16.82,-25.630005 c 12.85,-12.85 29.15,-20.36 41.49,-19.31 1,12.34 -6.46,28.65 -19.31,41.49 a 77.6,77.6 0 0 1 -14.12,11.260005 3.49,3.49 0 0 0 0,6 78,78 0 0 1 14.09,11.21 c 12.85,12.79 20.35,29.12 19.31,41.46 z"
     id="path24"
     inkscape:connector-curvature="0"
     style="fill:#1d1d1b" />
  <path
     class="cls-2"
     d="m 210.34038,141.4995 c -8.73,2.65 -28.37,4.73 -54.41,-16 1.62,-4.22 5.73,-13.45 12.2,-18.39 z"
     id="path26"
     inkscape:connector-curvature="0"
     style="fill:#ffffff" />
  <path
     class="cls-2"
     d="m 314.80038,115.9895 a 3.49,3.49 0 0 1 0,-6 77.6,77.6 0 0 0 14.09,-11.200005 c 12.85,-12.8 20.35,-29.15 19.31,-41.49 -12.34,-1.05 -28.64,6.46 -41.49,19.31 a 70.73,70.73 0 0 0 -16.82,25.630005 3.5,3.5 0 0 1 -6.34,0.55 145.21,145.21 0 0 0 -43.5,-47.400005 c -1,-0.69 -2,-1.36 -3,-2 -1,-0.64 -2,-1.31 -3,-1.94 a 161.51,161.51 0 0 0 -86,-24.4 164.13,164.13 0 0 0 -39.87,4.84 c -2.57,0.64 -5.11,1.34 -7.64,2.11 v 0 c -2.299995,0.69 -4.569995,1.44 -6.829995,2.24 q -4.67,1.65 -9.24,3.58 c -33.82,14.28 -60.58,39.17 -75.8000002,70.370005 9.1300002,1.24 31.0700002,3.91 59.2800002,5.25 3.85,0.08 6.39,0.26 6.82,0.29 a 3.5057096,3.5057096 0 0 1 -0.4,7 l -6.12,-0.26 a 159.92,159.92 0 0 0 -18.54,0.64 c -14.77,1.42 -25.32,4.94 -30.77,10.22 15.91,23.18 38.53,41.42 65.55,52.84 a 160.13,160.13 0 0 0 38.199995,10.82 c 2.4,0.37 4.81,0.68 7.23,0.95 2.42,0.27 4.92,0.47 7.39,0.63 q 5.35,0.35 10.77,0.34 c 35.67,0 69.33,-11.35 96,-31.29 1.28,-1 2.55,-1.93 3.79,-2.92 1.24,-0.99 2.2,-1.78 3.28,-2.7 a 143.89,143.89 0 0 0 32.37,-38.85 3.5,3.5 0 0 1 6.34,0.55 c 3.21,9 9,17.84 16.82,25.63 12.84,12.85 29.15,20.35 41.49,19.31 1,-12.34 -6.46,-28.64 -19.31,-41.49 a 78,78 0 0 0 -14.06,-11.16 z M 66.930385,89.989495 a 11.12,11.12 0 0 1 -1.93,-0.13 10.33,10.33 0 0 1 -6.82,-4.78 c -3.38,-5.24 -0.18,-11.42 0.24,-12.09 a 3.5,3.5 0 0 1 6.39,2.75 3,3 0 0 1 -0.26,0.62 c -0.43,0.81 -1.44,3.44 -0.48,4.93 a 3.22,3.22 0 0 0 2.21,1.7 c 2.55,0.47 6.65,-2 9.36,-3.83 0.89,-0.6 1.62,-1.14 2.11,-1.5 a 3.5011462,3.5011462 0 1 1 4.15,5.64 c -4.62,3.38 -9.9,6.69 -14.97,6.69 z m 18.62,78.890005 a 3.45,3.45 0 0 1 -1.3,0.25 3.5,3.5 0 0 1 -1.31,-6.75 28.48,28.48 0 0 0 4.34,-2.36 c 7.94,-5.08 24.249995,-19.31 28.059995,-52 q 0.45,-3.76 0.66,-7.87 a 3.5043723,3.5043723 0 0 1 7,0.35 c -2.7,53.91 -35.999995,67.85 -37.449995,68.42 z m 133.349995,-23.41 c -0.59,0.36 -8,4.66 -20.23,4.66 -12.23,0 -29.15,-4.23 -49.1,-20.75 a 3.51,3.51 0 0 1 -1.11,-3.74 c 0.24,-0.76 6,-18.84 18.12,-25.870005 a 3.49,3.49 0 0 1 4,0.310005 l 48.76,39.68 a 3.52,3.52 0 0 1 1.28,3 3.48,3.48 0 0 1 -1.72,2.71 z"
     id="path28"
     inkscape:connector-curvature="0"
     style="fill:#ffffff" />
  <path
     class="cls-1"
     d="m 123.00038,100.5695 c -2.7,53.84 -35.999995,67.78 -37.449995,68.35 a 3.45,3.45 0 0 1 -1.3,0.25 3.5,3.5 0 0 1 -1.31,-6.75 28.48,28.48 0 0 0 4.34,-2.36 c 7.94,-5.08 24.249995,-19.31 28.059995,-52 q 0.45,-3.76 0.66,-7.87 a 3.5043723,3.5043723 0 0 1 7,0.35 z"
     id="path30"
     inkscape:connector-curvature="0"
     style="fill:#1d1d1b" />
  <path
     class="cls-2"
     d="m 210.34038,141.4995 c -8.73,2.65 -28.37,4.73 -54.41,-16 1.62,-4.22 5.73,-13.45 12.2,-18.39 z"
     id="path32"
     inkscape:connector-curvature="0"
     style="fill:#ffffff" />
  <path
     class="cls-1"
     d="m 219.30038,139.7595 -48.76,-39.68 a 3.49,3.49 0 0 0 -4,-0.310005 c -12.13,7.000005 -17.88,25.110005 -18.12,25.870005 a 3.51,3.51 0 0 0 1.11,3.74 c 20,16.52 36.93,20.75 49.1,20.75 12.17,0 19.64,-4.3 20.23,-4.66 a 3.48,3.48 0 0 0 1.68,-2.75 3.52,3.52 0 0 0 -1.24,-2.96 z m -63.37,-14.23 c 1.62,-4.22 5.73,-13.45 12.2,-18.39 l 42.21,34.36 c -8.73,2.65 -28.34,4.73 -54.41,-15.97 z"
     id="path34"
     inkscape:connector-curvature="0"
     style="fill:#1d1d1b" />
  <path
     class="cls-1"
     d="m 81.900385,83.279495 c -4.62,3.4 -9.9,6.71 -14.97,6.71 a 11.12,11.12 0 0 1 -1.93,-0.13 10.33,10.33 0 0 1 -6.82,-4.78 c -3.38,-5.24 -0.18,-11.42 0.24,-12.09 a 3.5,3.5 0 0 1 6.39,2.75 3,3 0 0 1 -0.26,0.62 c -0.43,0.81 -1.44,3.44 -0.48,4.93 a 3.22,3.22 0 0 0 2.21,1.7 c 2.55,0.47 6.65,-2 9.36,-3.83 0.89,-0.6 1.62,-1.14 2.11,-1.5 a 3.5011462,3.5011462 0 1 1 4.15,5.64 z"
     id="path36"
     inkscape:connector-curvature="0"
     style="fill:#1d1d1b" />
</svg>
