<?xml version="1.0" encoding="UTF-8" standalone="no"?>
<svg xmlns:dc="http://purl.org/dc/elements/1.1/"
   xmlns:cc="http://creativecommons.org/ns#"
   xmlns:rdf="http://www.w3.org/1999/02/22-rdf-syntax-ns#"
   xmlns:svg="http://www.w3.org/2000/svg"
   xmlns="http://www.w3.org/2000/svg"
   xmlns:sodipodi="http://sodipodi.sourceforge.net/DTD/sodipodi-0.dtd"
   xmlns:inkscape="http://www.inkscape.org/namespaces/inkscape" id="Capa_1" data-name="Capa 1" viewBox="0 0 196.82829 178.07001" version="1.1" inkscape:version="0.92.5 (2060ec1f9f, 2020-04-08)">
   <metadata id="metadata39">
      <rdf:RDF>
         <cc:Work rdf:about="">
            <dc:format>image/svg+xml</dc:format>
            <dc:type rdf:resource="http://purl.org/dc/dcmitype/StillImage" />
         </cc:Work>
      </rdf:RDF>
   </metadata>
   <sodipodi:namedview pagecolor="#ffffff" bordercolor="#666666" borderopacity="1" objecttolerance="10" gridtolerance="10" guidetolerance="10" inkscape:pageopacity="0" inkscape:pageshadow="2" inkscape:window-width="855" inkscape:window-height="480" id="namedview37" showgrid="false" inkscape:zoom="1.0300729" inkscape:cx="98.415389" inkscape:cy="63.515" inkscape:window-x="0" inkscape:window-y="27" inkscape:window-maximized="0" inkscape:current-layer="Capa_1" />
   <defs id="defs4">
      <style id="style2">.cls-1{fill:#fff;}.cls-2{fill:#1d1d1b;}</style>
   </defs>
   <path class="cls-1" d="m 67.430389,152 a 3.54,3.54 0 0 1 -2,0.65 h -0.39 c -17.27,-1.94 -44.46,-20.07 -46.07,-43 a 3.5085645,3.5085645 0 1 1 7,-0.49 24.47,24.47 0 0 0 0.65,4.07 c 3.63,14.65 20.5,27.36 33.84,31.31 v 0 c 0.67,0.2 1.33,0.38 2,0.53 a 68.38,68.38 0 0 1 -8.79,-20.53 67.25,67.25 0 0 1 8.08,-51.68 C 70.830389,58 88.420389,42 107.34039,31.28 98.810389,19.75 85.720389,7 69.530389,7 c -20.74,0 -36.4,21 -43.9,33.44 -11.32,18.87 -18.6300004,42.48 -18.6300004,60.15 a 60.3,60.3 0 0 0 18.0900004,43.27 62.79,62.79 0 0 0 44.44,17.95 65.11,65.11 0 0 0 7.28,-0.4 70.53,70.53 0 0 1 -9.38,-9.41 z m -49.54,-52.77 v -1.4 a 3.500175,3.500175 0 1 1 7,0.07 v 1.4 a 3.5,3.5 0 0 1 -3.5,3.46 v 0 a 3.5,3.5 0 0 1 -3.5,-3.53 z" id="path6" inkscape:connector-curvature="0" style="fill:#ffffff" />
   <path class="cls-2" d="m 173.60039,23.6 c -14.9,-9.16 -36.16,-7.6 -60,4.34 C 100.47039,9.83 85.080389,0 69.530389,0 c -17.92,0 -35.65,13.08 -49.9,36.84 C 7.7103886,56.72 3.8857879e-4,81.74 3.8857879e-4,100.59 A 67.25,67.25 0 0 0 20.180389,148.85 a 69.76,69.76 0 0 0 49.35,20 72.59,72.59 0 0 0 15.31,-1.62 l 0.35,0.22 a 70.5,70.5 0 0 0 37.000001,10.62 68.68,68.68 0 0 0 15.51,-1.78 67.26,67.26 0 0 0 42.46,-30.54 c 9.87,-16.06 16.41,-41.41 16.66,-64.59 0.3,-27.74 -7.95,-48.16 -23.22,-57.56 z M 69.530389,161.81 a 62.79,62.79 0 0 1 -44.44,-17.95 60.3,60.3 0 0 1 -18.0900004,-43.27 c 0,-17.67 7.3100004,-41.28 18.6300004,-60.15 7.5,-12.44 23.16,-33.44 43.9,-33.44 16.19,0 29.28,12.75 37.810001,24.28 C 88.420389,42 70.830389,58 61.680389,72.88 a 67.25,67.25 0 0 0 -8.08,51.68 68.38,68.38 0 0 0 8.79,20.53 c -0.65,-0.15 -1.31,-0.33 -2,-0.53 v 0 c -13.34,-3.95 -30.21,-16.66 -33.84,-31.31 a 24.47,24.47 0 0 1 -0.65,-4.07 3.5085645,3.5085645 0 1 0 -7,0.49 c 1.61,22.91 28.8,41 46.07,43 h 0.39 a 3.54,3.54 0 0 0 2,-0.65 70.53,70.53 0 0 0 9.38,9.39 65.11,65.11 0 0 1 -7.21,0.4 z M 189.82039,81 c -0.24,22 -6.37,45.95 -15.62,61 a 60.28,60.28 0 0 1 -38.08,27.39 62.34,62.34 0 0 1 -41.830001,-5 q -2.13,-1 -4.2,-2.26 c -0.41,-0.23 -0.82,-0.48 -1.23,-0.73 -0.93,-0.57 -1.83,-1.16 -2.72,-1.77 a 62.62,62.62 0 0 1 -25.74,-36.8 60.31,60.31 0 0 1 7.25,-46.34 c 8.67,-14.1 25.54,-29.28 43.680001,-39.49 1,-0.57 2.06,-1.13 3.09,-1.67 l 0.6,-0.32 c 0.85,-0.44 1.69,-0.87 2.52,-1.28 13.87,-6.82 24.88,-9.08 33.39,-9.08 a 40.36,40.36 0 0 1 11.46,1.56 30.76,30.76 0 0 1 7.54,3.31 c 17.67,10.91 20.07,36.96 19.89,51.48 z" id="path8" inkscape:connector-curvature="0" style="fill:#1d1d1b" />
   <path class="cls-2" d="m 24.900389,97.9 v 1.4 a 3.5,3.5 0 0 1 -3.5,3.46 v 0 a 3.5,3.5 0 0 1 -3.46,-3.53 v -1.4 a 3.500175,3.500175 0 1 1 7,0.07 z" id="path10" inkscape:connector-curvature="0" style="fill:#1d1d1b" />
   <path class="cls-1" d="m 169.93039,29.57 a 30.76,30.76 0 0 0 -7.54,-3.31 40.36,40.36 0 0 0 -11.46,-1.56 c -8.51,0 -19.52,2.26 -33.39,9.08 -0.83,0.41 -1.67,0.84 -2.52,1.28 l -0.6,0.32 c -1,0.54 -2.06,1.1 -3.09,1.67 C 93.190389,47.26 76.330389,62.44 67.650389,76.54 a 60.31,60.31 0 0 0 -7.25,46.34 62.62,62.62 0 0 0 25.74,36.8 c 0.89,0.61 1.79,1.2 2.72,1.77 0.41,0.25 0.82,0.5 1.23,0.73 q 2.07,1.23 4.2,2.26 a 62.34,62.34 0 0 0 41.830001,5 60.28,60.28 0 0 0 38.08,-27.44 c 9.25,-15 15.38,-39 15.62,-61 0.18,-14.52 -2.22,-40.57 -19.89,-51.43 z m -102.000001,70 a 3.5059984,3.5059984 0 1 1 7,0.41 l -0.08,1.4 a 3.5,3.5 0 0 1 -3.49,3.29 h -0.21 a 3.5,3.5 0 0 1 -3.29,-3.7 z m 44.670001,60.66 a 3.5,3.5 0 0 1 -3.34,2.45 3.79,3.79 0 0 1 -1,-0.15 41.1,41.1 0 0 1 -5.14,-2 v 0 q -1.89,-0.88 -3.840001,-2 c -1.18,-0.67 -2.37,-1.4 -3.56,-2.19 -13.22,-8.7 -26.62,-24.54 -27.24,-44.22 a 3.5017281,3.5017281 0 1 1 7,-0.22 37.4,37.4 0 0 0 0.54,5.2 c 2.75,15.86 15.3,29 26.910001,35.46 0.67,0.38 1.33,0.73 2,1.05 0.67,0.32 1.1,0.54 1.65,0.77 a 34.07,34.07 0 0 0 3.8,1.45 l 0.18,0.07 a 3.49,3.49 0 0 1 2.07,4.3 z" id="path12" inkscape:connector-curvature="0" style="fill:#ffffff" />
   <path class="cls-2" d="m 112.63039,160.2 a 3.5,3.5 0 0 1 -3.34,2.45 3.79,3.79 0 0 1 -1,-0.15 41.1,41.1 0 0 1 -5.14,-2 v 0 q -1.89,-0.88 -3.840001,-2 c -1.18,-0.67 -2.37,-1.4 -3.56,-2.19 -13.22,-8.7 -26.62,-24.54 -27.24,-44.22 a 3.5017281,3.5017281 0 1 1 7,-0.22 37.4,37.4 0 0 0 0.54,5.2 c 2.75,15.86 15.3,29 26.910001,35.46 0.67,0.38 1.33,0.73 2,1.05 0.67,0.32 1.1,0.54 1.65,0.77 a 34.07,34.07 0 0 0 3.8,1.45 l 0.18,0.07 a 3.49,3.49 0 0 1 2.04,4.33 z" id="path14" inkscape:connector-curvature="0" style="fill:#1d1d1b" />
   <path class="cls-2" d="m 74.940389,100 -0.08,1.4 a 3.5,3.5 0 0 1 -3.49,3.29 h -0.21 a 3.5,3.5 0 0 1 -3.29,-3.7 l 0.09,-1.4 a 3.5059984,3.5059984 0 1 1 7,0.41 z" id="path16" inkscape:connector-curvature="0" style="fill:#1d1d1b" />
</svg>
