<?xml version="1.0" encoding="UTF-8" standalone="no"?>
<svg
   xmlns:dc="http://purl.org/dc/elements/1.1/"
   xmlns:cc="http://creativecommons.org/ns#"
   xmlns:rdf="http://www.w3.org/1999/02/22-rdf-syntax-ns#"
   xmlns:svg="http://www.w3.org/2000/svg"
   xmlns="http://www.w3.org/2000/svg"
   xmlns:sodipodi="http://sodipodi.sourceforge.net/DTD/sodipodi-0.dtd"
   xmlns:inkscape="http://www.inkscape.org/namespaces/inkscape"
   id="Capa_1"
   data-name="Capa 1"
   viewBox="0 0 124.79848 345.00373"
   version="1.1"
   sodipodi:docname="ESNEKIAK.svg"
   width="124.79848"
   height="345.00372"
   inkscape:version="0.92.5 (2060ec1f9f, 2020-04-08)">
  <metadata
     id="metadata83">
    <rdf:RDF>
      <cc:Work
         rdf:about="">
        <dc:format>image/svg+xml</dc:format>
        <dc:type
           rdf:resource="http://purl.org/dc/dcmitype/StillImage" />
      </cc:Work>
    </rdf:RDF>
  </metadata>
  <sodipodi:namedview
     pagecolor="#ffffff"
     bordercolor="#666666"
     borderopacity="1"
     objecttolerance="10"
     gridtolerance="10"
     guidetolerance="10"
     inkscape:pageopacity="0"
     inkscape:pageshadow="2"
     inkscape:window-width="855"
     inkscape:window-height="480"
     id="namedview81"
     showgrid="false"
     inkscape:zoom="0.59583924"
     inkscape:cx="67.026609"
     inkscape:cy="138.56848"
     inkscape:window-x="0"
     inkscape:window-y="27"
     inkscape:window-maximized="0"
     inkscape:current-layer="Capa_1" />
  <defs
     id="defs4">
    <style
       id="style2">.cls-1{fill:#1d1d1b;}.cls-2{fill:#fff;}</style>
  </defs>
  <path
     class="cls-2"
     d="m 105.36,97.253732 -0.7,0.8 c -2.78,2.999998 -8.39,8.059998 -15.59,8.779998 -5.72,0.58 -11.55,-1.69 -17.38,-6.73 q -0.81,-0.689998 -1.62,-1.469998 c -17.18,-16.4 -38,-9.88 -49.93,-3.7 l 1.24,-2.8 c 5,-11.39 9.78,-22.16 10.91,-31.26 1,-7.9 0.49,-30.42 0.2,-40.68 h 59 c -0.31,10.27 -0.83,32.79 0.19,40.7 1.1,9.11 6.02,19.69 11.19,30.91 0.82,1.79 1.66,3.61 2.49,5.45 z"
     id="path22"
     inkscape:connector-curvature="0"
     style="fill:#ffffff" />
  <path
     class="cls-1"
     d="m 54.44,206.47373 c -0.11,0 -0.22,0.07 -0.33,0.12 l 0.19,-0.08 z"
     id="path24"
     inkscape:connector-curvature="0"
     style="fill:#1d1d1b" />
  <path
     class="cls-1"
     d="m 63.96,204.80373 a 7.12,7.12 0 0 0 -0.8,0 2.83,2.83 0 0 1 0.41,0 2.56,2.56 0 0 1 0.39,0 z"
     id="path26"
     inkscape:connector-curvature="0"
     style="fill:#1d1d1b" />
  <path
     class="cls-1"
     d="m 73.04,206.59373 -0.17,-0.06 v 0 a 0.47,0.47 0 0 1 0.17,0.06 z"
     id="path28"
     inkscape:connector-curvature="0"
     style="fill:#1d1d1b" />
  <path
     class="cls-1"
     d="m 40.46,213.84373 a 15.89,15.89 0 0 0 -2.17,2.8 c -5.83,-2.48 -9.2,-5.76 -10,-9.77 -0.63,-3.06 0.2,-6.46 1.67,-9.68 0.05,4.94 1.26,8.94 3.63,11.93 a 14.11,14.11 0 0 0 6.87,4.72 z"
     id="path30"
     inkscape:connector-curvature="0"
     style="fill:#1d1d1b" />
  <path
     class="cls-1"
     d="m 37.88,233.00373 a 9.86,9.86 0 0 1 -5.17,1 35.28,35.28 0 0 1 3.84,-4.3 15.51,15.51 0 0 0 1.33,3.3 z"
     id="path32"
     inkscape:connector-curvature="0"
     style="fill:#1d1d1b" />
  <path
     class="cls-1"
     d="m 98.87,206.86373 c -0.82,4 -4.19,7.3 -10,9.78 a 15.89,15.89 0 0 0 -2.17,-2.8 14.11,14.11 0 0 0 6.89,-4.72 c 2.38,-3 3.59,-7 3.63,-12 1.45,3.26 2.28,6.66 1.65,9.74 z"
     id="path34"
     inkscape:connector-curvature="0"
     style="fill:#1d1d1b" />
  <path
     class="cls-1"
     d="M 58.35,212.68373 Z"
     id="path36"
     inkscape:connector-curvature="0"
     style="fill:#1d1d1b" />
  <path
     class="cls-1"
     d="m 79.08,256.93373 a 8.21,8.21 0 0 1 -0.33,2.13 c -0.86,3.17 -7,10.52 -15.11,10.37 H 63.5 c -8.44,0.17 -14.61,-8.24 -15.08,-10.24 a 7.83,7.83 0 0 1 -0.24,-3 c 4.18,2.48 10.83,2.95 14.35,3 h 1 c 3.69,0 11.05,-0.37 15.53,-3.08 a 4.68,4.68 0 0 1 0.02,0.82 z"
     id="path38"
     inkscape:connector-curvature="0"
     style="fill:#1d1d1b" />
  <path
     class="cls-1"
     d="m 94.43,234.00373 a 9.81,9.81 0 0 1 -5.16,-1 16.48,16.48 0 0 0 1.32,-3.3 35.28,35.28 0 0 1 3.84,4.3 z"
     id="path40"
     inkscape:connector-curvature="0"
     style="fill:#1d1d1b" />
  <path
     class="cls-1"
     d="m 124.78,139.80373 c -0.17,-17.61 -8.32,-35.3 -15.52,-50.929998 -4.98,-10.72 -9.64,-20.87 -10.68,-28.87 -1,-7.62 -0.4,-31.2 -0.12,-40.69 a 10.07,10.07 0 0 1 -3.51,0.87 h -0.63 -2.88 c -0.31,10.27 -0.83,32.79 0.19,40.7 1.15,9.12 6.07,19.7 11.24,30.92 0.82,1.79 1.66,3.61 2.49,5.45 l -0.7,0.8 c -2.78,2.999998 -8.39,8.059998 -15.59,8.779998 -5.72,0.58 -11.55,-1.69 -17.38,-6.73 q -0.81,-0.689998 -1.62,-1.469998 c -17.18,-16.4 -38,-9.88 -49.93,-3.7 l 1.24,-2.8 c 5,-11.39 9.78,-22.16 10.91,-31.26 1,-7.9 0.49,-30.42 0.2,-40.68 h -2.88 -0.64 a 9.86,9.86 0 0 1 -3.52,-0.88 c 0.28,9.5 0.85,33.08 -0.1,40.72 -1,8.08 -5.56,18.38 -10.38,29.3 -1.85,4.19 -3.77,8.54 -5.58,12.999998 -0.06,0.13 -0.11,0.26 -0.16,0.39 -4.91,12 -9,24.73 -9.16,37.14 a 3.71,3.71 0 0 0 -0.07,0.67 v 180.47 c 0,13.22 10.13,24 22.59,24 h 79.64 c 12.45,0 22.55,-10.77 22.55,-24 v -180.51 a 3.23,3.23 0 0 0 0,-0.69 z m -7,181.2 c 0,9.36 -7,17 -15.58,17 H 22.59 c -8.6,0 -15.59,-7.62 -15.59,-17 v -179.86 a 2.84,2.84 0 0 0 0.07,-0.66 c 0,-11.22 3.77,-23.12 8.38,-34.51 0.75,-0.55 2.1,-1.51 3.9,-2.62 a 60.86,60.86 0 0 1 13.11,-6.109998 c 11.24,-3.58 21,-2.41 29.2,3.479998 a 33.85,33.85 0 0 1 3.58,3 c 7.12,6.79 14.52,10.22 22.05,10.22 a 23.82,23.82 0 0 0 2.53,-0.13 c 8.37,-0.86 14.83,-5.79 18.63,-9.57 5,11.8 9.32,24.27 9.3,36.26 v 0 a 3.71,3.71 0 0 0 0.06,0.67 z"
     id="path42"
     inkscape:connector-curvature="0"
     style="fill:#1d1d1b" />
  <path
     class="cls-1"
     d="M 94.32,0.00373187 H 29.61 a 10.09,10.09 0 0 0 -4.16,19.29000013 9.86,9.86 0 0 0 3.52,0.88 h 0.64 64.71 0.63 A 10.09,10.09 0 0 0 94.32,0.00373187 Z m 2.4,12.05000013 a 3.08,3.08 0 0 1 -2.4,1.14 H 29.61 a 3.1,3.1 0 1 1 0,-6.1900001 h 64.71 a 3.1,3.1 0 0 1 3.1,3.0900001 3,3 0 0 1 -0.7,1.96 z"
     id="path44"
     inkscape:connector-curvature="0"
     style="fill:#1d1d1b" />
  <path
     class="cls-2"
     d="m 97.42,10.093732 a 3.1,3.1 0 0 1 -3.1,3.1 H 29.61 a 3.1,3.1 0 1 1 0,-6.1900001 h 64.71 a 3.1,3.1 0 0 1 3.1,3.0900001 z"
     id="path46"
     inkscape:connector-curvature="0"
     style="fill:#ffffff" />
  <path
     class="cls-2"
     d="m 37.88,233.00373 a 9.86,9.86 0 0 1 -5.17,1 35.28,35.28 0 0 1 3.84,-4.3 15.51,15.51 0 0 0 1.33,3.3 z"
     id="path48"
     inkscape:connector-curvature="0"
     style="fill:#ffffff" />
  <path
     class="cls-2"
     d="m 40.46,213.84373 a 15.89,15.89 0 0 0 -2.17,2.8 c -5.83,-2.48 -9.2,-5.76 -10,-9.77 -0.63,-3.06 0.2,-6.46 1.67,-9.68 0.05,4.94 1.26,8.94 3.63,11.93 a 14.11,14.11 0 0 0 6.87,4.72 z"
     id="path50"
     inkscape:connector-curvature="0"
     style="fill:#ffffff" />
  <path
     class="cls-2"
     d="m 94.43,234.00373 a 9.81,9.81 0 0 1 -5.16,-1 16.48,16.48 0 0 0 1.32,-3.3 35.28,35.28 0 0 1 3.84,4.3 z"
     id="path52"
     inkscape:connector-curvature="0"
     style="fill:#ffffff" />
  <path
     class="cls-2"
     d="m 98.87,206.86373 c -0.82,4 -4.19,7.3 -10,9.78 a 15.89,15.89 0 0 0 -2.17,-2.8 14.11,14.11 0 0 0 6.89,-4.72 c 2.38,-3 3.59,-7 3.63,-12 1.45,3.26 2.28,6.66 1.65,9.74 z"
     id="path54"
     inkscape:connector-curvature="0"
     style="fill:#ffffff" />
  <path
     class="cls-1"
     d="m 54.44,206.47373 c -0.11,0 -0.22,0.07 -0.33,0.12 l 0.19,-0.08 z"
     id="path56"
     inkscape:connector-curvature="0"
     style="fill:#1d1d1b" />
  <path
     class="cls-1"
     d="m 63.96,204.80373 a 7.12,7.12 0 0 0 -0.8,0 2.83,2.83 0 0 1 0.41,0 2.56,2.56 0 0 1 0.39,0 z"
     id="path58"
     inkscape:connector-curvature="0"
     style="fill:#1d1d1b" />
  <path
     class="cls-1"
     d="M 58.35,212.68373 Z"
     id="path60"
     inkscape:connector-curvature="0"
     style="fill:#1d1d1b" />
  <path
     class="cls-1"
     d="m 58.32,212.69373 z m -4,-6.18 -0.19,0.08 c 0.11,-0.05 0.22,-0.08 0.33,-0.12 z"
     id="path62"
     inkscape:connector-curvature="0"
     style="fill:#1d1d1b" />
  <path
     class="cls-1"
     d="m 63.96,204.80373 a 7.12,7.12 0 0 0 -0.8,0 2.83,2.83 0 0 1 0.41,0 2.56,2.56 0 0 1 0.39,0 z"
     id="path64"
     inkscape:connector-curvature="0"
     style="fill:#1d1d1b" />
  <path
     class="cls-1"
     d="m 73.04,206.59373 -0.17,-0.06 v 0 a 0.47,0.47 0 0 1 0.17,0.06 z"
     id="path66"
     inkscape:connector-curvature="0"
     style="fill:#1d1d1b" />
  <path
     class="cls-1"
     d="m 72.89,206.53373 v 0 l 0.17,0.06 a 0.47,0.47 0 0 0 -0.17,-0.06 z"
     id="path68"
     inkscape:connector-curvature="0"
     style="fill:#1d1d1b" />
  <path
     class="cls-2"
     d="M 58.35,212.68373 Z"
     id="path70"
     inkscape:connector-curvature="0"
     style="fill:#ffffff" />
  <path
     class="cls-2"
     d="m 79.08,256.93373 a 8.21,8.21 0 0 1 -0.33,2.13 c -0.86,3.17 -7,10.52 -15.11,10.37 H 63.5 c -8.44,0.17 -14.61,-8.24 -15.08,-10.24 a 7.83,7.83 0 0 1 -0.24,-3 c 4.18,2.48 10.83,2.95 14.35,3 h 1 c 3.69,0 11.05,-0.37 15.53,-3.08 a 4.68,4.68 0 0 1 0.02,0.82 z"
     id="path72"
     inkscape:connector-curvature="0"
     style="fill:#ffffff" />
  <path
     class="cls-2"
     d="m 117.78,140.49373 v 0 c 0,-12 -4.25,-24.46 -9.3,-36.26 -3.8,3.78 -10.26,8.71 -18.63,9.57 a 23.82,23.82 0 0 1 -2.53,0.13 c -7.53,0 -14.93,-3.43 -22.05,-10.22 a 33.85,33.85 0 0 0 -3.58,-3 c -8.16,-5.889998 -18,-7.059998 -29.2,-3.479998 a 60.86,60.86 0 0 0 -13.11,6.109998 c -1.8,1.11 -3.15,2.07 -3.9,2.62 -4.61,11.39 -8.41,23.29 -8.38,34.51 a 2.84,2.84 0 0 1 -0.07,0.66 v 179.87 c 0,9.36 7,17 15.59,17 h 79.64 c 8.52,0 15.52,-7.63 15.52,-17 v -179.84 a 3.71,3.71 0 0 1 0,-0.67 z m -12,67.77 c -1.23,6 -5.52,10.8 -12.76,14.21 a 41.23,41.23 0 0 1 10.3,12.53 3.48,3.48 0 0 1 -2.07,5 27.45,27.45 0 0 1 -7.37,1 h -0.55 a 16.12,16.12 0 0 1 -7.22,-1.73 71.62,71.62 0 0 0 -3.1,10 c 2.91,3.1 3.75,7 2.5,11.63 -0.77,2.82 -3.27,6.7 -7,9.88 a 22.71,22.71 0 0 1 -14.58,5.66 h -0.32 c -11.38,0.18 -20.66,-10 -22,-15.66 -1,-4.22 -0.42,-7.7 1.71,-10.52 a 91.59,91.59 0 0 0 -2.54,-10.85 16.54,16.54 0 0 1 -7,1.59 h -0.55 a 27.45,27.45 0 0 1 -7.34,-1 3.48,3.48 0 0 1 -2.11,-5 41.23,41.23 0 0 1 10.35,-12.49 28.21,28.21 0 0 1 -7.81,-5.25 17.31,17.31 0 0 1 -4.95,-9 c -2.72,-13.52 11.74,-27.69 12.41,-28.26 a 3.5,3.5 0 0 1 5.7,3.75 c -1.52,4.06 -4.57,15.76 -0.37,21.07 2,2.57 5.93,3.51 11.56,2.78 a 4,4 0 0 1 0.58,0 c 1,-0.37 2,-0.71 3.1,-1 a 25.56,25.56 0 0 1 18.59,0 c 1,0.3 2,0.63 3,1 0.19,0 0.39,0 0.61,0 5.63,0.73 9.52,-0.21 11.56,-2.78 4.2,-5.31 1.15,-17 -0.37,-21.07 a 3.5,3.5 0 0 1 5.7,-3.75 c 0.59,0.57 15.05,14.74 12.34,28.26 z"
     id="path74"
     inkscape:connector-curvature="0"
     style="fill:#ffffff" />
  <path
     class="cls-1"
     d="m 105.78,208.26373 c 2.76,-13.52 -11.7,-27.69 -12.32,-28.29 a 3.5,3.5 0 0 0 -5.7,3.75 c 1.52,4.06 4.57,15.76 0.37,21.07 -2,2.57 -5.93,3.51 -11.56,2.78 -0.22,0 -0.42,0 -0.61,0 -1,-0.36 -2,-0.69 -3,-1 a 0.47,0.47 0 0 1 0.15,0.06 l -0.17,-0.06 v 0 a 24.74,24.74 0 0 0 -9.32,-1.76 2.56,2.56 0 0 1 0.39,0 7.12,7.12 0 0 0 -0.8,0 2.83,2.83 0 0 1 0.41,0 24.71,24.71 0 0 0 -9.27,1.74 h 0.14 c -0.11,0 -0.22,0.07 -0.33,0.12 l 0.19,-0.08 c -1.07,0.31 -2.1,0.65 -3.1,1 a 4,4 0 0 0 -0.58,0 c -5.63,0.73 -9.52,-0.21 -11.56,-2.78 -4.2,-5.31 -1.15,-17 0.37,-21.07 a 3.5,3.5 0 0 0 -5.7,-3.74 c -0.62,0.6 -15.08,14.77 -12.32,28.29 a 17.31,17.31 0 0 0 4.95,9 28.21,28.21 0 0 0 7.81,5.25 41.23,41.23 0 0 0 -10.44,12.46 3.48,3.48 0 0 0 2.07,5 27.45,27.45 0 0 0 7.41,1 h 0.52 a 16.54,16.54 0 0 0 7,-1.59 91.59,91.59 0 0 1 2.56,10.84 c -2.13,2.82 -2.68,6.3 -1.71,10.52 1.31,5.63 10.59,15.84 22,15.66 h 0.32 a 22.71,22.71 0 0 0 14.58,-5.66 c 3.77,-3.18 6.27,-7.06 7,-9.88 1.25,-4.63 0.41,-8.53 -2.5,-11.63 a 71.62,71.62 0 0 1 3.1,-10 16.12,16.12 0 0 0 7.22,1.73 h 0.55 a 27.45,27.45 0 0 0 7.37,-1.05 3.48,3.48 0 0 0 2.07,-5 41.23,41.23 0 0 0 -10.35,-12.49 c 7.22,-3.39 11.51,-8.16 12.79,-14.19 z m -73.07,25.74 a 35.28,35.28 0 0 1 3.84,-4.3 15.51,15.51 0 0 0 1.33,3.3 9.86,9.86 0 0 1 -5.17,1 z m 5.58,-17.36 c -5.83,-2.48 -9.2,-5.76 -10,-9.77 -0.63,-3.06 0.2,-6.46 1.67,-9.68 0.05,4.94 1.26,8.94 3.63,11.93 a 14.11,14.11 0 0 0 6.89,4.72 15.89,15.89 0 0 0 -2.19,2.8 z m 21.63,20.94 v 0 a 17.23,17.23 0 0 0 1.07,-5.67 v -0.46 c 0,-0.26 0,-0.56 0,-0.9 v -0.08 a 17.68,17.68 0 0 0 -0.71,-5.13 v 0 a 14.63,14.63 0 0 0 -2.39,-4.7 16.1,16.1 0 0 0 -2.32,-2.48 2.54,2.54 0 0 1 -0.43,-4 4.35,4.35 0 0 1 1.4,-1 v 0 c 0.6,-0.17 1.19,-0.32 1.74,-0.45 v 0 c 1,-0.24 1.93,-0.42 2.71,-0.55 l 0.61,-0.1 c 0.78,-0.12 1.38,-0.19 1.75,-0.23 h 0.3 0.45 l 0.38,0.05 a 40.83,40.83 0 0 1 4.24,0.78 v 0 c 0.56,0.13 1.15,0.28 1.76,0.45 v 0 0 a 4.05,4.05 0 0 1 1.38,1 2.54,2.54 0 0 1 -0.43,4 16.1,16.1 0 0 0 -2.32,2.48 14.63,14.63 0 0 0 -2.39,4.7 v 0 a 17.68,17.68 0 0 0 -0.71,5.13 v 0.08 c 0,0.34 0,0.64 0,0.9 v 0.46 a 18,18 0 0 0 1.33,6.38 47.42,47.42 0 0 0 5.61,9.8 l -1.7,0.32 a 39.45,39.45 0 0 1 -6.65,0.74 h -2.2 a 40.94,40.94 0 0 1 -7.19,-0.84 l -1.16,-0.22 a 45.23,45.23 0 0 0 5.87,-10.46 z m 18.86,21.48 c -0.86,3.17 -7,10.52 -15.11,10.37 h -0.14 c -8.44,0.17 -14.61,-8.24 -15.08,-10.24 a 7.83,7.83 0 0 1 -0.24,-3 c 4.18,2.48 10.83,2.95 14.35,3 h 1 c 3.69,0 11.05,-0.37 15.53,-3.08 a 4.68,4.68 0 0 1 0.06,0.76 8.21,8.21 0 0 1 -0.37,2.19 z m 15.65,-25.06 a 9.81,9.81 0 0 1 -5.16,-1 16.48,16.48 0 0 0 1.32,-3.3 35.28,35.28 0 0 1 3.84,4.3 z m 4.44,-27.14 c -0.82,4 -4.19,7.3 -10,9.78 a 15.89,15.89 0 0 0 -2.17,-2.8 14.11,14.11 0 0 0 6.89,-4.72 c 2.38,-3 3.59,-7 3.63,-12 1.45,3.26 2.28,6.66 1.65,9.74 z"
     id="path76"
     inkscape:connector-curvature="0"
     style="fill:#1d1d1b" />
  <path
     class="cls-2"
     d="m 73.09,248.08373 -1.7,0.32 a 39.45,39.45 0 0 1 -6.65,0.74 H 62.4 a 40.94,40.94 0 0 1 -7.19,-0.84 l -1.16,-0.22 a 45.23,45.23 0 0 0 5.87,-10.5 v 0 a 17.23,17.23 0 0 0 1.07,-5.67 v -0.46 c 0,-0.26 0,-0.56 0,-0.9 v -0.08 a 17.68,17.68 0 0 0 -0.71,-5.13 v 0 a 14.63,14.63 0 0 0 -2.39,-4.7 16.1,16.1 0 0 0 -2.32,-2.48 2.54,2.54 0 0 1 -0.43,-4 4.35,4.35 0 0 1 1.4,-1 v 0 c 0.6,-0.17 1.19,-0.32 1.74,-0.45 v 0 c 1,-0.24 1.93,-0.42 2.71,-0.55 l 0.61,-0.1 c 0.78,-0.12 1.38,-0.19 1.75,-0.23 h 0.3 0.45 l 0.38,0.05 a 40.83,40.83 0 0 1 4.24,0.78 v 0 c 0.56,0.13 1.15,0.28 1.76,0.45 v 0 0 a 4.05,4.05 0 0 1 1.38,1 2.54,2.54 0 0 1 -0.43,4 16.1,16.1 0 0 0 -2.32,2.48 14.63,14.63 0 0 0 -2.39,4.7 v 0 a 17.68,17.68 0 0 0 -0.71,5.13 v 0.08 c 0,0.34 0,0.64 0,0.9 v 0.46 a 18,18 0 0 0 1.33,6.38 47.42,47.42 0 0 0 5.75,9.84 z"
     id="path78"
     inkscape:connector-curvature="0"
     style="fill:#ffffff" />
</svg>
