<?xml version="1.0" encoding="UTF-8" standalone="no"?>
<svg
   xmlns:dc="http://purl.org/dc/elements/1.1/"
   xmlns:cc="http://creativecommons.org/ns#"
   xmlns:rdf="http://www.w3.org/1999/02/22-rdf-syntax-ns#"
   xmlns:svg="http://www.w3.org/2000/svg"
   xmlns="http://www.w3.org/2000/svg"
   xmlns:sodipodi="http://sodipodi.sourceforge.net/DTD/sodipodi-0.dtd"
   xmlns:inkscape="http://www.inkscape.org/namespaces/inkscape"
   id="Capa_1"
   data-name="Capa 1"
   viewBox="0 0 139.08067 168.85148"
   version="1.1"
   sodipodi:docname="FRUITU_LEHORRAK.svg"
   width="139.08067"
   height="168.85149"
   inkscape:version="0.92.5 (2060ec1f9f, 2020-04-08)">
  <metadata
     id="metadata51">
    <rdf:RDF>
      <cc:Work
         rdf:about="">
        <dc:format>image/svg+xml</dc:format>
        <dc:type
           rdf:resource="http://purl.org/dc/dcmitype/StillImage" />
      </cc:Work>
    </rdf:RDF>
  </metadata>
  <sodipodi:namedview
     pagecolor="#ffffff"
     bordercolor="#666666"
     borderopacity="1"
     objecttolerance="10"
     gridtolerance="10"
     guidetolerance="10"
     inkscape:pageopacity="0"
     inkscape:pageshadow="2"
     inkscape:window-width="855"
     inkscape:window-height="480"
     id="namedview49"
     showgrid="false"
     inkscape:zoom="0.89699732"
     inkscape:cx="69.540334"
     inkscape:cy="37.301477"
     inkscape:window-x="0"
     inkscape:window-y="27"
     inkscape:window-maximized="0"
     inkscape:current-layer="Capa_1" />
  <defs
     id="defs4">
    <style
       id="style2">.cls-1{fill:#1d1d1b;}.cls-2{fill:#fff;}</style>
  </defs>
  <path
     class="cls-1"
     d="m 59.340334,149.48 h 0.25 -0.17 z"
     id="path6"
     inkscape:connector-curvature="0"
     style="fill:#1d1d1b" />
  <path
     class="cls-2"
     d="M 113.44033,40.44 C 106.00033,28 90.280334,7 69.540334,7 c -20.74,0 -36.41,21 -43.9,33.44 -11.32,18.87 -18.6400005,42.48 -18.6400005,60.15 a 60.31,60.31 0 0 0 18.1000005,43.27 62.77,62.77 0 0 0 44.44,17.95 62.81,62.81 0 0 0 44.459996,-17.95 60.34,60.34 0 0 0 18.09,-43.27 c -0.01,-17.67 -7.33,-41.28 -18.65,-60.15 z m -63.999996,69.9 c 4.21,20.06 12.56,32.26 13.43,33.54 l 0.24,0.35 0.14,0.25 a 2.06,2.06 0 0 1 0.12,0.26 1.06,1.06 0 0 1 0.09,0.25 3.46,3.46 0 0 1 0.16,1.44 l -0.06,0.36 c 0,0.1 -0.05,0.19 -0.07,0.28 a 3,3 0 0 1 -0.24,0.59 1.92,1.92 0 0 1 -0.18,0.31 2.59,2.59 0 0 1 -0.32,0.42 l -0.21,0.22 -0.33,0.27 -0.21,0.12 a 1.37,1.37 0 0 1 -0.2,0.13 l -0.3,0.13 -0.26,0.1 a 3.47,3.47 0 0 1 -1.07,0.17 2.56,2.56 0 0 1 -0.55,0 h -0.25 c -2.17,-0.47 -32.06,-7.4 -42.22,-33.94 -8.8000005,-23 0.11,-52.88 26.5,-88.92 a 3.5022172,3.5022172 0 0 1 5.65,4.14 c -24.9,33.92 -33.53,61.58 -25.67,82.19 5.81,15.2 19.68,23.15 28.75,26.86 a 111.8,111.8 0 0 1 -9.7,-27.7 c -4.39,-20.64 -5.46,-53.55 14.32,-93.16 a 3.5039192,3.5039192 0 0 1 6.27,3.13 c -18.8,37.63 -17.89,68.74 -13.82,88.21 z m 23.56,35.73 a 3.5,3.5 0 0 1 -7,0 V 18.33 a 3.5,3.5 0 0 1 7,0 z m 6.7,3.41 h -0.25 a 2.56,2.56 0 0 1 -0.55,0 3.47,3.47 0 0 1 -1.07,-0.17 l -0.26,-0.1 a 3.27,3.27 0 0 1 -0.77,-0.44 l -0.31,-0.25 a 3.49,3.49 0 0 1 -0.7,-1 2.39,2.39 0 0 1 -0.13,-0.28 2.47,2.47 0 0 1 -0.1,-0.29 c 0,-0.1 -0.06,-0.2 -0.08,-0.3 a 3.46,3.46 0 0 1 0.1,-1.81 1.06,1.06 0 0 1 0.09,-0.25 1.42,1.42 0 0 1 0.12,-0.25 l 0.14,-0.25 c 0,-0.08 0.1,-0.16 0.16,-0.24 l 0.09,-0.12 c 0.93,-1.33 9.22,-13.52 13.41,-33.53 4.07,-19.47 5,-50.58 -13.82,-88.24 a 3.5,3.5 0 0 1 6.31,-2.96 c 19.779996,39.64 18.709996,72.55 14.32,93.18 a 111.8,111.8 0 0 1 -9.7,27.7 c 9.07,-3.71 22.939996,-11.66 28.749996,-26.86 7.86,-20.6 -0.77,-48.26 -25.639996,-82.23 a 3.5022172,3.5022172 0 0 1 5.65,-4.14 c 26.389996,36 35.309996,66 26.509996,88.92 -10.17,26.51 -40.049996,33.43 -42.229996,33.91 z"
     id="path8"
     inkscape:connector-curvature="0"
     style="fill:#ffffff" />
  <path
     class="cls-1"
     d="M 119.44033,36.84 C 105.19033,13.08 87.470334,0 69.540334,0 c -17.93,0 -35.65,13.08 -49.9,36.84 C 7.7103335,56.72 3.3352829e-4,81.74 3.3352829e-4,100.59 A 67.29,67.29 0 0 0 20.180334,148.85 a 69.79,69.79 0 0 0 49.36,20 69.79,69.79 0 0 0 49.359996,-20 67.29,67.29 0 0 0 20.18,-48.26 c 0,-18.85 -7.71,-43.87 -19.64,-63.75 z m -5.45,107 a 62.81,62.81 0 0 1 -44.449996,17.95 62.77,62.77 0 0 1 -44.44,-17.93 60.31,60.31 0 0 1 -18.1000005,-43.27 c 0,-17.67 7.3200005,-41.28 18.6400005,-60.15 7.49,-12.44 23.16,-33.44 43.9,-33.44 20.74,0 36.459996,21 43.899996,33.44 11.32,18.87 18.64,42.48 18.64,60.15 a 60.34,60.34 0 0 1 -18.08,43.27 z"
     id="path10"
     inkscape:connector-curvature="0"
     style="fill:#1d1d1b" />
  <path
     class="cls-1"
     d="m 73.000334,18.33 v 127.74 a 3.5,3.5 0 0 1 -7,0 V 18.33 a 3.5,3.5 0 0 1 7,0 z"
     id="path12"
     inkscape:connector-curvature="0"
     style="fill:#1d1d1b" />
  <path
     class="cls-1"
     d="m 63.460334,145 a 3.46,3.46 0 0 1 0.16,1.44 l -0.06,0.36 c 0,0.1 -0.05,0.19 -0.07,0.28 a 3,3 0 0 1 -0.24,0.59 1.92,1.92 0 0 1 -0.18,0.31 2.59,2.59 0 0 1 -0.32,0.42 l -0.21,0.22 -0.33,0.27 -0.21,0.11 a 1.37,1.37 0 0 1 -0.2,0.13 l -0.3,0.13 -0.26,0.1 a 3.47,3.47 0 0 1 -1.07,0.17 2.56,2.56 0 0 1 -0.55,0 h -0.25 c -2.17,-0.47 -32.06,-7.4 -42.22,-33.94 -8.8000005,-23 0.11,-52.88 26.5,-88.92 a 3.5022172,3.5022172 0 0 1 5.65,4.14 c -24.9,33.92 -33.53,61.58 -25.67,82.19 5.81,15.2 19.68,23.15 28.75,26.86 a 111.8,111.8 0 0 1 -9.7,-27.7 c -4.39,-20.64 -5.46,-53.55 14.32,-93.16 a 3.5039192,3.5039192 0 0 1 6.27,3.13 c -18.8,37.66 -17.89,68.77 -13.82,88.24 4.2,20.03 12.55,32.23 13.42,33.51 l 0.24,0.35 0.14,0.25 a 2.06,2.06 0 0 1 0.12,0.26 1.06,1.06 0 0 1 0.09,0.26 z"
     id="path14"
     inkscape:connector-curvature="0"
     style="fill:#1d1d1b" />
  <path
     class="cls-1"
     d="m 122.00033,115.54 c -10.17,26.54 -39.999996,33.47 -42.229996,33.94 h -0.25 a 2.56,2.56 0 0 1 -0.55,0 3.47,3.47 0 0 1 -1.07,-0.17 l -0.26,-0.1 a 3.27,3.27 0 0 1 -0.77,-0.44 l -0.31,-0.25 a 3.49,3.49 0 0 1 -0.7,-1 2.39,2.39 0 0 1 -0.13,-0.28 2.47,2.47 0 0 1 -0.1,-0.29 c 0,-0.1 -0.06,-0.2 -0.08,-0.3 a 3.46,3.46 0 0 1 0.1,-1.81 1.06,1.06 0 0 1 0.09,-0.25 1.42,1.42 0 0 1 0.12,-0.25 l 0.14,-0.25 c 0,-0.08 0.1,-0.16 0.16,-0.24 l 0.09,-0.12 c 0.93,-1.33 9.22,-13.52 13.41,-33.53 4.07,-19.47 5,-50.58 -13.82,-88.24 a 3.5,3.5 0 0 1 6.24,-2.96 c 19.779996,39.64 18.709996,72.55 14.32,93.18 a 111.8,111.8 0 0 1 -9.7,27.7 c 9.07,-3.71 22.939996,-11.66 28.749996,-26.86 7.86,-20.6 -0.77,-48.26 -25.639996,-82.23 a 3.5022172,3.5022172 0 0 1 5.65,-4.14 c 26.389996,36.01 35.309996,65.93 26.539996,88.89 z"
     id="path16"
     inkscape:connector-curvature="0"
     style="fill:#1d1d1b" />
  <path
     class="cls-1"
     d="m 79.740334,149.48 h -0.08 -0.17 z"
     id="path18"
     inkscape:connector-curvature="0"
     style="fill:#1d1d1b" />
</svg>
