<?xml version="1.0" encoding="UTF-8" standalone="no"?>
<svg xmlns:dc="http://purl.org/dc/elements/1.1/"
   xmlns:cc="http://creativecommons.org/ns#"
   xmlns:rdf="http://www.w3.org/1999/02/22-rdf-syntax-ns#"
   xmlns:svg="http://www.w3.org/2000/svg"
   xmlns="http://www.w3.org/2000/svg"
   xmlns:sodipodi="http://sodipodi.sourceforge.net/DTD/sodipodi-0.dtd"
   xmlns:inkscape="http://www.inkscape.org/namespaces/inkscape" id="Capa_1" data-name="Capa 1" viewBox="0 0 225.14 291.50021" version="1.1" inkscape:version="0.92.5 (2060ec1f9f, 2020-04-08)">
   <metadata id="metadata115">
      <rdf:RDF>
         <cc:Work rdf:about="">
            <dc:format>image/svg+xml</dc:format>
            <dc:type rdf:resource="http://purl.org/dc/dcmitype/StillImage" />
         </cc:Work>
      </rdf:RDF>
   </metadata>
   <sodipodi:namedview pagecolor="#ffffff" bordercolor="#666666" borderopacity="1" objecttolerance="10" gridtolerance="10" guidetolerance="10" inkscape:pageopacity="0" inkscape:pageshadow="2" inkscape:window-width="855" inkscape:window-height="480" id="namedview113" showgrid="false" inkscape:zoom="0.68107701" inkscape:cx="112.57" inkscape:cy="118.24522" inkscape:window-x="0" inkscape:window-y="27" inkscape:window-maximized="0" inkscape:current-layer="Capa_1" />
   <defs id="defs4">
      <style id="style2">.cls-1{fill:#1d1d1b;}.cls-2{fill:#fff;}</style>
   </defs>
   <path class="cls-1" d="m 225.14,48.55 -3.82,-0.71 a 67.27,67.27 0 0 0 -8.27,-1 c 0.12,-0.26 0.22,-0.53 0.32,-0.79 2.37,-6.73 0,-18 -3.47,-26.1 l -1.51,-3.58 -3.39,1.86 c -7.6,4.19 -16.6,11.14 -19.06,18.12 -0.1,0.27 -0.18,0.54 -0.26,0.82 a 64.1,64.1 0 0 0 -7.06,-4.41 l -3.43,-1.85 -1.47,3.59 a 55.69,55.69 0 0 0 -4.25,18.33 l -1.69,-0.92 -1.48,3.59 A 56.13,56.13 0 0 0 162,73.83 l -1.68,-0.91 -1.48,3.59 a 56.13,56.13 0 0 0 -4.26,18.33 l -1.68,-0.91 -1.48,3.58 a 55.79,55.79 0 0 0 -4.24,18.33 l -1.69,-0.91 -1.49,3.59 a 55.82,55.82 0 0 0 -4.26,18.33 l -0.7,-0.38 -0.45,-0.24 -0.69,0.11 -0.77,0.12 a 55.92,55.92 0 0 0 2.09,-18.7 l -0.2,-3.88 -1.9,0.3 a 55.69,55.69 0 0 0 2.1,-18.7 l -0.2,-3.87 -1.89,0.3 a 55.92,55.92 0 0 0 2.09,-18.7 l -0.2,-3.88 -1.89,0.3 a 55.92,55.92 0 0 0 2.09,-18.7 l -0.2,-3.88 -1.9,0.3 a 55.69,55.69 0 0 0 2.1,-18.7 l -0.2,-3.87 -3.84,0.6 a 65.76,65.76 0 0 0 -8.13,1.8 c 0,-0.28 0,-0.57 0,-0.85 0,-7.14 -6,-16.92 -12,-23.46 L 112.54,0 110,2.9 c -5.81,6.48 -12,16.03 -12,23.43 0,0.29 0,0.57 0,0.86 a 64.07,64.07 0 0 0 -8.13,-1.81 l -3.84,-0.6 -0.2,3.87 A 55.69,55.69 0 0 0 88,47.35 l -1.9,-0.3 -0.2,3.88 a 55.92,55.92 0 0 0 2.1,18.7 l -1.89,-0.3 -0.2,3.88 A 55.92,55.92 0 0 0 88,91.91 l -1.89,-0.3 -0.2,3.87 a 55.69,55.69 0 0 0 2.1,18.7 l -1.9,-0.3 -0.2,3.88 a 55.92,55.92 0 0 0 2.09,18.7 l -0.77,-0.12 -0.69,-0.11 -0.45,0.24 -0.7,0.38 a 55.82,55.82 0 0 0 -4.26,-18.33 l -1.48,-3.59 -1.69,0.91 A 55.79,55.79 0 0 0 73.72,97.51 l -1.48,-3.58 -1.68,0.91 A 56.13,56.13 0 0 0 66.3,76.51 l -1.48,-3.59 -1.68,0.91 A 56.13,56.13 0 0 0 58.85,55.5 l -1.48,-3.59 -1.69,0.92 A 55.44,55.44 0 0 0 51.43,34.5 L 50,30.91 46.58,32.76 a 64.2,64.2 0 0 0 -7.07,4.41 C 39.43,36.89 39.35,36.62 39.25,36.35 36.79,29.35 27.79,22.42 20.19,18.23 L 16.8,16.36 15.28,19.94 C 11.81,28.08 9.4,39.31 11.77,46 c 0.1,0.26 0.2,0.53 0.32,0.79 a 67.27,67.27 0 0 0 -8.27,1 L 0,48.55 1.1,52.27 A 55.6,55.6 0 0 0 9.31,69.2 l -1.89,0.35 1.1,3.73 a 55.7,55.7 0 0 0 8.2,16.93 l -1.89,0.35 1.11,3.73 a 55.9,55.9 0 0 0 8.19,16.93 l -1.88,0.35 1.1,3.72 a 55.6,55.6 0 0 0 8.21,16.93 l -1.89,0.35 1.1,3.72 A 56,56 0 0 0 39,153.23 l -1.88,0.35 1.1,3.72 a 55.75,55.75 0 0 0 8.2,16.94 l -1.89,0.35 1.11,3.72 c 2.5,8.47 7.76,18.68 13.87,22.38 a 14.18,14.18 0 0 0 10.88,1.63 c 0.43,-0.11 0.85,-0.24 1.27,-0.38 a 14.58,14.58 0 0 0 5.63,-3.65 l 18.07,51.18 13.64,38.66 a 3.22,3.22 0 0 1 0.09,-0.87 v 0.85 a 1.72,1.72 0 0 0 0,0.32 l 0.27,0.77 a 3.14,3.14 0 0 0 0.57,1 c 0,0 0,0 0,0 a 3.31,3.31 0 0 0 5.26,0 v 0 a 3.32,3.32 0 0 0 0.56,-1 l 0.28,-0.79 c 0,-0.1 0,-0.2 0,-0.3 v -0.85 a 3.22,3.22 0 0 1 0.09,0.87 l 13.65,-38.66 18.07,-51.18 a 14.58,14.58 0 0 0 5.63,3.65 c 0.42,0.14 0.84,0.27 1.27,0.38 a 14.17,14.17 0 0 0 10.88,-1.63 c 6.11,-3.7 11.37,-13.91 13.87,-22.38 l 1.11,-3.72 -1.88,-0.35 A 56,56 0 0 0 187,157.3 l 1.11,-3.72 -1.89,-0.35 a 55.75,55.75 0 0 0 8.2,-16.94 l 1.1,-3.72 -1.89,-0.35 a 55.6,55.6 0 0 0 8.21,-16.93 l 1.1,-3.72 -1.88,-0.35 a 55.67,55.67 0 0 0 8.19,-16.93 l 1.11,-3.73 -1.88,-0.35 a 55.9,55.9 0 0 0 8.19,-16.93 l 1.11,-3.73 -1.9,-0.35 A 55.6,55.6 0 0 0 224,52.27 Z m -32.61,-9.87 c 0.08,-0.22 0.17,-0.44 0.27,-0.67 0.1,-0.23 0.11,-0.22 0.17,-0.34 0.06,-0.12 0.25,-0.47 0.39,-0.71 0.14,-0.24 0.3,-0.48 0.47,-0.72 0.17,-0.24 0.35,-0.5 0.55,-0.75 l 0.3,-0.38 c 0.2,-0.25 0.41,-0.51 0.65,-0.77 0.24,-0.26 0.46,-0.52 0.71,-0.79 0.25,-0.27 0.64,-0.66 1,-1 l 0.64,-0.6 c 0.29,-0.27 0.58,-0.54 0.89,-0.8 0.31,-0.26 0.62,-0.53 0.94,-0.8 0.32,-0.27 0.65,-0.53 1,-0.8 1,-0.8 2.1,-1.59 3.24,-2.35 0,0 0,0 0,0 0.37,-0.26 0.76,-0.51 1.15,-0.76 v 0 c 2.28,6.84 3.1,13.81 1.89,17.26 a 4.19,4.19 0 0 1 -0.2,0.49 l -0.09,0.2 c 0,0 0,0 0,0.07 v 0 a 5.07,5.07 0 0 1 -0.35,0.65 c -0.12,0.2 -0.26,0.4 -0.39,0.58 l -0.08,0.1 c -0.15,0.18 -0.3,0.36 -0.46,0.52 l -0.36,0.35 -0.38,0.32 h -0.22 -0.24 c -0.21,0 -0.44,0.08 -0.68,0.13 l -0.5,0.11 -0.52,0.13 -0.27,0.07 -0.81,0.22 -0.55,0.15 -0.79,0.23 h -0.18 l -0.33,0.1 -0.26,0.07 -0.44,0.14 -0.8,0.22 h -0.17 -0.15 -0.23 -0.13 -0.21 a 0.48,0.48 0 0 1 -0.11,-0.08 l -0.07,-0.07 a 2.18,2.18 0 0 1 -0.17,-0.21 l -0.13,-0.16 -0.2,-0.28 c -0.09,-0.11 -0.18,-0.24 -0.27,-0.37 l -0.45,-0.64 c -0.58,-0.83 -1.26,-1.83 -1.91,-2.71 -0.36,-0.48 -0.71,-0.92 -1,-1.28 l -0.31,-0.33 a 7.19,7.19 0 0 1 0.15,-3.74 z M 178.77,41 v 0 c 0.36,0.22 0.71,0.45 1.05,0.68 0.34,0.23 0.61,0.4 0.9,0.61 0.29,0.21 0.59,0.4 0.87,0.61 0.28,0.21 0.57,0.41 0.85,0.62 0.28,0.21 0.83,0.62 1.23,0.94 0.4,0.32 0.64,0.51 0.95,0.77 l 0.21,0.18 c 0.25,0.2 0.49,0.41 0.73,0.63 l 0.7,0.63 v 0 l 0.83,0.8 a 20.6,20.6 0 0 1 1.65,1.78 l 0.48,0.58 a 13,13 0 0 1 1.83,2.89 l 0.16,0.42 a 0.64,0.64 0 0 0 0,0.07 2,2 0 0 1 0.11,0.35 1.21,1.21 0 0 1 0,0.18 c 0,0.06 0,0.12 0.05,0.18 0.05,0.06 0,0.24 0.07,0.36 a 7.18,7.18 0 0 1 0.14,1.38 c 0,0.17 0,0.34 0,0.51 a 0.19,0.19 0 0 0 0,0.08 4.1,4.1 0 0 1 -0.06,0.49 5.5,5.5 0 0 1 -0.21,1 v 0.09 A 6.14,6.14 0 0 1 190.8,59 l -0.07,0.14 a 5.69,5.69 0 0 1 -0.33,0.52 c -0.14,0.2 -0.28,0.39 -0.44,0.58 a 6.39,6.39 0 0 1 -0.5,0.54 6.93,6.93 0 0 1 -0.64,0.56 v 0 a 6.85,6.85 0 0 1 -0.59,0.42 8.22,8.22 0 0 1 -1.6,0.79 6.36,6.36 0 0 1 -0.62,0.19 l -0.46,0.11 -0.33,0.07 h -0.06 L 185,63 h -0.36 a 3.4,3.4 0 0 1 -0.45,0 54.12,54.12 0 0 0 -7.46,-5.93 c -0.79,-3.67 0.03,-9.94 2.04,-16.07 z m -9.44,29.63 c 0.07,-0.52 0.15,-1 0.25,-1.58 a 52.66,52.66 0 0 1 1.64,-6.61 c 0,-0.07 0,-0.14 0.07,-0.22 0.07,-0.08 0.05,-0.15 0.07,-0.22 0.36,0.22 0.71,0.45 1,0.68 0.29,0.23 0.61,0.4 0.9,0.61 0.29,0.21 0.59,0.4 0.87,0.61 0.28,0.21 0.57,0.41 0.85,0.62 0.28,0.21 0.45,0.33 0.67,0.51 a 0.35,0.35 0 0 1 0.1,0.08 c 0.32,0.23 0.62,0.48 0.92,0.72 l 0.49,0.4 0.21,0.18 c 0.25,0.2 0.49,0.41 0.73,0.63 l 0.3,0.27 0.79,0.73 0.45,0.43 0.29,0.3 c 0.32,0.32 0.63,0.65 0.92,1 0.16,0.17 0.3,0.34 0.44,0.51 l 0.48,0.58 c 0.32,0.4 0.62,0.8 0.88,1.19 0.12,0.17 0.21,0.34 0.32,0.5 l 0.21,0.38 0.11,0.2 a 5.56,5.56 0 0 1 0.27,0.55 c 0.07,0.17 0.14,0.32 0.2,0.49 a 0.64,0.64 0 0 0 0,0.07 2,2 0 0 1 0.11,0.35 1.21,1.21 0 0 1 0.05,0.18 c 0,0.06 0,0.12 0,0.18 0,0.06 0.05,0.24 0.07,0.36 a 6.6,6.6 0 0 1 0.14,1.38 c 0,0.17 0,0.34 0,0.51 a 0.19,0.19 0 0 0 0,0.08 4.1,4.1 0 0 1 -0.06,0.49 5.5,5.5 0 0 1 -0.21,1 v 0.09 a 3.17,3.17 0 0 1 -0.17,0.49 c 0,0 0,0 0,0.06 a 0.85,0.85 0 0 1 -0.09,0.22 2.39,2.39 0 0 1 -0.13,0.28 l -0.06,0.11 -0.06,0.11 -0.07,0.14 v 0 a 4.89,4.89 0 0 1 -0.33,0.51 0.94,0.94 0 0 1 -0.12,0.18 l -0.09,0.11 -0.23,0.29 a 6.39,6.39 0 0 1 -0.5,0.54 v 0 c -0.2,0.2 -0.42,0.38 -0.64,0.56 -0.22,0.18 -0.39,0.29 -0.59,0.42 a 2.27,2.27 0 0 1 -0.34,0.19 h -0.05 a 5,5 0 0 1 -0.61,0.31 l -0.56,0.23 a 6.36,6.36 0 0 1 -0.62,0.19 l -0.46,0.11 -0.33,0.07 h -0.11 -0.12 -0.36 a 3.4,3.4 0 0 1 -0.45,0 c -0.59,-0.57 -1.21,-1.14 -1.85,-1.68 -0.21,-0.19 -0.43,-0.37 -0.65,-0.55 l -0.5,-0.41 c -0.19,-0.16 -0.38,-0.32 -0.58,-0.47 L 172.25,80.15 171,79.26 v 0 l -0.81,-0.57 -0.82,-0.55 v 0 a 19.82,19.82 0 0 1 -0.21,-5.31 q 0.02,-1.1 0.17,-2.24 z m -7.65,23.26 v 0 c 0,-0.24 0,-0.48 0.07,-0.72 0.07,-0.24 0.05,-0.49 0.08,-0.74 0.03,-0.25 0.06,-0.51 0.09,-0.77 0.03,-0.26 0.07,-0.52 0.12,-0.78 0.05,-0.26 0.07,-0.47 0.12,-0.71 v -0.18 c 0,-0.23 0.08,-0.47 0.13,-0.71 0.21,-1.08 0.46,-2.18 0.76,-3.3 0.14,-0.56 0.3,-1.12 0.47,-1.68 0.08,-0.28 0.17,-0.56 0.26,-0.84 0.09,-0.28 0.08,-0.29 0.13,-0.43 a 46.69,46.69 0 0 1 9.58,7.77 14.32,14.32 0 0 1 2.87,4.37 c 0,0 0,0 0,0.07 a 6.36,6.36 0 0 1 0.21,0.71 7.05,7.05 0 0 1 0.18,2.32 3.15,3.15 0 0 1 -0.05,0.43 6.25,6.25 0 0 1 -0.18,0.86 c 0,0.14 -0.08,0.28 -0.13,0.42 a 4.73,4.73 0 0 1 -0.25,0.62 1.73,1.73 0 0 1 -0.14,0.31 3,3 0 0 1 -0.16,0.31 l -0.22,0.36 a 7.63,7.63 0 0 1 -0.49,0.67 7.52,7.52 0 0 1 -1.21,1.18 c -0.19,0.15 -0.39,0.29 -0.59,0.42 a 8.35,8.35 0 0 1 -0.77,0.43 c -0.27,0.13 -0.54,0.25 -0.83,0.36 -0.29,0.11 -0.41,0.14 -0.61,0.19 -0.2,0.05 -0.42,0.1 -0.62,0.14 L 170,105 c -0.2,0 -0.41,0 -0.61,0 -0.2,-0.2 -0.42,-0.4 -0.63,-0.59 l -0.58,-0.52 -0.06,-0.06 c -0.45,-0.4 -0.9,-0.79 -1.37,-1.18 l -0.94,-0.76 c -0.49,-0.39 -1,-0.77 -1.5,-1.15 -0.78,-0.57 -1.58,-1.13 -2.38,-1.67 v 0 a 0.5,0.5 0 0 1 0,-0.12 c 0,-0.19 -0.07,-0.39 -0.1,-0.59 -0.03,-0.2 -0.07,-0.51 -0.09,-0.78 a 21.59,21.59 0 0 1 -0.06,-3.73 z m -7.42,21 v 0 c 0,-0.24 0,-0.48 0.07,-0.72 0,-0.49 0.1,-1 0.18,-1.51 0,-0.26 0.07,-0.52 0.11,-0.78 0.07,-0.53 0.17,-1.06 0.28,-1.6 v 0 c 0.21,-1.08 0.46,-2.18 0.76,-3.29 v 0 c 0.08,-0.29 0.15,-0.57 0.24,-0.86 0.09,-0.29 0.15,-0.55 0.24,-0.82 0.09,-0.27 0.16,-0.56 0.25,-0.84 0.09,-0.28 0.08,-0.28 0.13,-0.42 v 0 l 0.72,0.47 0.7,0.46 q 1.58,1.05 3,2.16 c 0.32,0.24 0.63,0.49 0.94,0.74 l 0.59,0.49 c 0.78,0.65 1.52,1.32 2.19,2 0.21,0.2 0.41,0.41 0.61,0.61 0.2,0.2 0.54,0.56 0.79,0.84 v 0 c 0.52,0.59 1,1.17 1.41,1.74 0.22,0.3 0.42,0.6 0.6,0.89 a 9.69,9.69 0 0 1 0.88,1.77 c 0,0 0,0 0,0.07 a 6.36,6.36 0 0 1 0.21,0.71 7.05,7.05 0 0 1 0.18,2.32 3.15,3.15 0 0 1 0,0.43 3.11,3.11 0 0 1 -0.08,0.44 3.2,3.2 0 0 1 -0.1,0.42 c 0,0.14 -0.08,0.28 -0.13,0.42 a 4.73,4.73 0 0 1 -0.25,0.62 1.73,1.73 0 0 1 -0.14,0.31 3,3 0 0 1 -0.16,0.31 l -0.22,0.36 a 7.63,7.63 0 0 1 -0.49,0.67 7.52,7.52 0 0 1 -1.21,1.18 l -0.59,0.41 a 7.3,7.3 0 0 1 -0.77,0.44 6.89,6.89 0 0 1 -0.83,0.35 4.11,4.11 0 0 1 -0.46,0.15 l -0.29,0.08 v 0 l -0.41,0.09 h -0.07 -0.08 l -0.42,0.06 h -0.09 c -0.2,0 -0.4,0 -0.6,0 -0.28,-0.27 -0.56,-0.54 -0.85,-0.8 -0.29,-0.26 -0.59,-0.53 -0.89,-0.79 -0.45,-0.39 -0.9,-0.77 -1.37,-1.15 -0.47,-0.38 -0.94,-0.75 -1.42,-1.11 -0.48,-0.36 -1,-0.72 -1.45,-1.07 -0.45,-0.35 -1,-0.69 -1.48,-1 a 19.1,19.1 0 0 1 -0.23,-5.28 z m -7.49,22.3 v -0.59 c 0,-0.27 0,-0.55 0,-0.83 0.07,-0.85 0.17,-1.75 0.32,-2.67 0,-0.27 0.08,-0.55 0.13,-0.83 0.05,-0.28 0.14,-0.77 0.21,-1.16 0.07,-0.39 0.18,-0.86 0.28,-1.29 0.1,-0.43 0.15,-0.68 0.24,-1 0.09,-0.32 0.11,-0.44 0.17,-0.66 0.12,-0.45 0.24,-0.9 0.37,-1.35 0.13,-0.45 0.27,-0.9 0.41,-1.35 l 0.06,-0.21 0.06,-0.21 v 0 c 0.24,0.15 0.48,0.3 0.72,0.47 l 0.7,0.46 1,0.71 c 0.34,0.23 0.67,0.47 1,0.72 0.33,0.25 0.66,0.48 1,0.73 0.64,0.49 1.24,1 1.81,1.47 l 0.68,0.58 0.12,0.11 v 0 l 0.53,0.49 0.25,0.24 c 0.26,0.24 0.51,0.48 0.75,0.73 l 0.47,0.48 0.44,0.48 a 14.4,14.4 0 0 1 2.91,4.41 v 0.08 c 0,0.14 0.1,0.28 0.14,0.42 0.04,0.14 0,0.06 0,0.09 0,0.06 0,0.11 0,0.17 a 7.24,7.24 0 0 1 -2.64,7.48 l -0.28,0.19 a 3.62,3.62 0 0 1 -0.32,0.22 7.22,7.22 0 0 1 -0.77,0.43 7.64,7.64 0 0 1 -0.83,0.35 7.75,7.75 0 0 1 -1.23,0.34 2.32,2.32 0 0 1 -0.46,0.07 v 0 a 5.85,5.85 0 0 1 -0.72,0.07 l -0.47,-0.44 v 0 l -0.39,-0.36 c -0.43,-0.4 -0.88,-0.79 -1.34,-1.18 -0.46,-0.39 -0.64,-0.54 -1,-0.8 l -0.22,-0.19 -0.16,-0.12 c -0.4,-0.32 -0.81,-0.63 -1.21,-0.93 -0.4,-0.3 -0.88,-0.66 -1.33,-1 -0.45,-0.34 -0.89,-0.63 -1.34,-0.93 v 0 a 12.62,12.62 0 0 1 -0.2,-1.48 22.08,22.08 0 0 1 0.14,-2.44 z M 123.37,35.91 a 51.75,51.75 0 0 1 8.95,-2.85 v 0 c -0.15,6.49 -1.47,12.67 -3.43,15.91 v 0 a 54.32,54.32 0 0 0 -9,3.11 v 0 a 7.81,7.81 0 0 1 -2.14,-1.26 5.73,5.73 0 0 1 -0.67,-0.63 c -0.11,-0.11 -0.21,-0.22 -0.31,-0.34 a 4.47,4.47 0 0 1 -0.29,-0.35 14.47,14.47 0 0 0 0,-9.06 l 0.06,-0.08 0.29,-0.34 v 0 l 0.26,-0.27 a 17.56,17.56 0 0 1 4.22,-2.87 c 0.69,-0.34 1.34,-0.66 2.06,-0.97 z m -6.88,138.19 0.06,-0.08 a 4.72,4.72 0 0 1 0.37,-0.41 15.5,15.5 0 0 1 3.85,-2.78 31.6,31.6 0 0 1 3.81,-1.75 c 0.46,-0.19 0.93,-0.37 1.42,-0.54 l 0.6,-0.2 a 52.09,52.09 0 0 1 5.72,-1.62 v 0 c 0,0.15 0,0.3 0,0.45 q 0,1.32 -0.15,2.61 c 0,0.3 0,0.6 -0.08,0.9 l -0.12,1.11 c -0.13,1.11 -0.3,2.17 -0.49,3.19 -0.1,0.55 -0.22,1.08 -0.34,1.6 -0.16,0.68 -0.33,1.34 -0.52,2 -0.25,0.83 -0.53,1.61 -0.82,2.31 l -0.18,0.41 a 11,11 0 0 1 -1,1.85 l -0.36,0.48 a 5.16,5.16 0 0 1 -0.5,0.54 7.37,7.37 0 0 1 -4.45,2.08 7.58,7.58 0 0 1 -5.54,-1.74 5.73,5.73 0 0 1 -0.67,-0.63 c -0.11,-0.11 -0.21,-0.22 -0.31,-0.34 a 4.47,4.47 0 0 1 -0.29,-0.35 14.47,14.47 0 0 0 -0.01,-9.09 z m 15.82,-29.21 c -0.19,6.32 -1.5,12.3 -3.41,15.46 v 0 a 55.36,55.36 0 0 0 -9,3.11 7.81,7.81 0 0 1 -2.14,-1.26 6.76,6.76 0 0 1 -0.68,-0.63 6.5,6.5 0 0 1 -0.59,-0.69 14.44,14.44 0 0 0 0,-9 l 0.06,-0.08 a 4.72,4.72 0 0 1 0.37,-0.41 15.8,15.8 0 0 1 3.83,-2.78 v 0 c 0.76,-0.41 1.58,-0.81 2.46,-1.19 l 1.34,-0.57 a 55.52,55.52 0 0 1 7.76,-2.36 v 0 c 0.02,0.1 0.01,0.25 0,0.4 z m 0,-22.28 c -0.19,6.32 -1.49,12.29 -3.4,15.46 v 0 a 55.25,55.25 0 0 0 -9,3.11 v 0 c -0.19,-0.07 -0.37,-0.15 -0.56,-0.24 a 9.06,9.06 0 0 1 -1.07,-0.63 c -0.17,-0.12 -0.35,-0.25 -0.52,-0.39 a 6.76,6.76 0 0 1 -0.68,-0.63 6.5,6.5 0 0 1 -0.59,-0.69 14.41,14.41 0 0 0 0,-9 0.47,0.47 0 0 1 0.06,-0.09 4.72,4.72 0 0 1 0.37,-0.41 15.8,15.8 0 0 1 3.83,-2.78 v 0 c 0.76,-0.41 1.58,-0.81 2.46,-1.19 0.43,-0.19 0.88,-0.38 1.34,-0.56 a 53,53 0 0 1 7.76,-2.36 v 0 c 0.02,0.11 0.01,0.25 0,0.4 z m 0,-22.27 c -0.19,6.32 -1.5,12.3 -3.41,15.46 v 0 a 54.32,54.32 0 0 0 -9,3.11 v 0 a 7.81,7.81 0 0 1 -2.14,-1.26 5.73,5.73 0 0 1 -0.67,-0.63 c -0.11,-0.11 -0.21,-0.22 -0.31,-0.34 l -0.15,-0.18 c 0,0 -0.09,-0.11 -0.14,-0.17 a 14.44,14.44 0 0 0 0,-9 0.47,0.47 0 0 1 0.06,-0.09 2.79,2.79 0 0 1 0.37,-0.4 5.28,5.28 0 0 1 0.41,-0.41 17,17 0 0 1 3.41,-2.37 v 0 a 46.39,46.39 0 0 1 11.57,-4.12 v 0 c 0.02,0.06 0.01,0.25 0,0.4 z m 0,-22.28 c -0.19,6.32 -1.5,12.3 -3.41,15.46 v 0 a 54.29,54.29 0 0 0 -9,3.1 v 0 a 7.81,7.81 0 0 1 -2.14,-1.26 5.73,5.73 0 0 1 -0.67,-0.63 c -0.11,-0.11 -0.21,-0.22 -0.31,-0.34 l -0.15,-0.18 c 0,0 -0.09,-0.11 -0.14,-0.17 a 14.44,14.44 0 0 0 0,-9 0.47,0.47 0 0 1 0.06,-0.09 4.72,4.72 0 0 1 0.37,-0.41 l 0.4,-0.4 a 16.67,16.67 0 0 1 3.39,-2.35 46.41,46.41 0 0 1 11.61,-4.14 v 0 c 0.01,0.11 0,0.26 -0.01,0.41 z m 0,-22.27 a 49.63,49.63 0 0 1 -0.86,7.9 c -0.14,0.69 -0.29,1.36 -0.44,2 a 20.19,20.19 0 0 1 -2.12,5.55 v 0 a 54,54 0 0 0 -9,3.09 7.5,7.5 0 0 1 -2.16,-1.26 6.76,6.76 0 0 1 -0.68,-0.63 6.5,6.5 0 0 1 -0.59,-0.69 14.44,14.44 0 0 0 0,-9 l 0.06,-0.08 a 4.72,4.72 0 0 1 0.37,-0.41 15.54,15.54 0 0 1 3.83,-2.78 v 0 c 0.76,-0.41 1.58,-0.81 2.46,-1.19 0.43,-0.19 0.88,-0.38 1.34,-0.56 a 54.19,54.19 0 0 1 7.76,-2.37 v 0 c 0.05,0.12 0.04,0.28 0.03,0.43 z m -57.7,70.13 c 0.46,-0.32 0.94,-0.63 1.42,-0.93 v 0 c 0,0.14 0.09,0.27 0.13,0.42 0.27,0.84 0.51,1.69 0.73,2.53 0.29,1.06 0.53,2.11 0.73,3.14 0.13,0.67 0.25,1.34 0.34,2 0.15,0.94 0.26,1.86 0.32,2.73 a 23.54,23.54 0 0 1 0,3.84 12.62,12.62 0 0 1 -0.2,1.48 v 0 a 58.62,58.62 0 0 0 -5.23,3.94 l -0.7,0.61 -0.64,0.57 a 1.12,1.12 0 0 0 -0.2,0.18 l -0.69,0.65 h -0.11 c -0.2,0 -0.41,0 -0.61,-0.06 l -0.5,-0.08 a 8.06,8.06 0 0 1 -1.23,-0.34 6.89,6.89 0 0 1 -0.83,-0.35 7.22,7.22 0 0 1 -0.77,-0.43 3.62,3.62 0 0 1 -0.32,-0.22 l -0.28,-0.19 a 6.92,6.92 0 0 1 -0.93,-0.86 l -0.27,-0.32 a 7.63,7.63 0 0 1 -0.49,-0.67 6.59,6.59 0 0 1 -0.52,-1 4.73,4.73 0 0 1 -0.25,-0.62 6.43,6.43 0 0 1 -0.28,-1.13 3.11,3.11 0 0 1 -0.06,-0.44 1.36,1.36 0 0 1 0,-0.2 6.76,6.76 0 0 1 0,-1.42 6.17,6.17 0 0 1 0.15,-0.84 c 0,-0.1 0,-0.19 0.07,-0.29 0.07,-0.1 0.09,-0.28 0.14,-0.42 v -0.08 c 0.06,-0.16 0.13,-0.33 0.2,-0.5 a 8.88,8.88 0 0 1 0.55,-1.05 19.52,19.52 0 0 1 2.16,-2.86 l 0.44,-0.48 0.47,-0.48 a 47.14,47.14 0 0 1 7.26,-5.83 z m -6,-21.94 c 0,0.14 0.09,0.27 0.13,0.42 0.27,0.84 0.51,1.68 0.73,2.52 v 0 c 0.3,1.11 0.55,2.21 0.76,3.29 0.11,0.54 0.21,1.08 0.28,1.61 0.17,1 0.29,2 0.36,3 a 19.23,19.23 0 0 1 -0.2,5.28 57.8,57.8 0 0 0 -5.67,4.37 q -0.9,0.78 -1.74,1.59 c -0.2,0 -0.4,0 -0.6,0 a 7.67,7.67 0 0 1 -1.84,-0.43 v 0 a 6.89,6.89 0 0 1 -0.83,-0.35 7.3,7.3 0 0 1 -0.77,-0.44 l -0.59,-0.41 a 7.52,7.52 0 0 1 -1.21,-1.18 7.63,7.63 0 0 1 -0.49,-0.67 l -0.22,-0.36 a 5,5 0 0 1 -0.3,-0.62 4.73,4.73 0 0 1 -0.25,-0.62 6.43,6.43 0 0 1 -0.28,-1.13 3.11,3.11 0 0 1 -0.06,-0.44 1.36,1.36 0 0 1 0,-0.2 6.76,6.76 0 0 1 0,-1.42 6.17,6.17 0 0 1 0.15,-0.84 6.36,6.36 0 0 1 0.21,-0.71 c 0,0 0,0 0,-0.07 a 9.69,9.69 0 0 1 0.88,-1.77 c 0.18,-0.29 0.38,-0.59 0.6,-0.89 0.41,-0.57 0.89,-1.15 1.41,-1.74 v 0 A 46.33,46.33 0 0 1 68.62,104 Z M 61.2,83 c 0,0.14 0.09,0.29 0.13,0.43 0.04,0.14 0.18,0.56 0.26,0.84 0.17,0.56 0.33,1.12 0.47,1.68 0.3,1.12 0.55,2.22 0.76,3.3 0.16,0.81 0.3,1.6 0.4,2.38 0.1,0.78 0.18,1.51 0.24,2.23 a 19.23,19.23 0 0 1 -0.2,5.28 v 0 c -0.8,0.54 -1.6,1.1 -2.38,1.67 -0.51,0.38 -1,0.76 -1.5,1.15 l -0.94,0.76 c -0.47,0.39 -0.92,0.78 -1.37,1.18 -0.45,0.4 -0.86,0.77 -1.27,1.17 a 7.81,7.81 0 0 1 -1.83,-0.28 c -0.21,0 -0.41,-0.12 -0.62,-0.19 a 7.54,7.54 0 0 1 -0.82,-0.36 6.36,6.36 0 0 1 -0.77,-0.43 6.42,6.42 0 0 1 -0.6,-0.42 7.24,7.24 0 0 1 -2.64,-7.48 4.72,4.72 0 0 1 0.2,-0.71 V 95.13 A 14.32,14.32 0 0 1 51.59,90.76 46.69,46.69 0 0 1 61.2,83 Z M 51,63.85 c 0.9,-0.64 1.84,-1.28 2.81,-1.89 0,0.07 0,0.14 0.07,0.22 0.07,0.08 0,0.15 0.07,0.22 0.18,0.56 0.35,1.12 0.5,1.68 0.15,0.56 0.31,1.11 0.44,1.67 0.13,0.56 0.27,1.11 0.38,1.66 0.29,1.36 0.51,2.67 0.66,3.92 0,0.26 0.06,0.52 0.08,0.77 a 20.53,20.53 0 0 1 -0.14,6 v 0 A 53.74,53.74 0 0 0 48.4,84 v 0 A 7.23,7.23 0 0 1 47,83.87 l -0.46,-0.11 -0.61,-0.19 -0.49,-0.2 a 5.39,5.39 0 0 1 -0.68,-0.34 h -0.1 l -0.34,-0.19 -0.3,-0.21 -0.28,-0.21 c -0.23,-0.18 -0.45,-0.37 -0.65,-0.56 a 7.35,7.35 0 0 1 -0.82,-1 6.79,6.79 0 0 1 -0.64,-1.06 6.14,6.14 0 0 1 -0.45,-1.14 7.29,7.29 0 0 1 -0.09,-3.77 6.36,6.36 0 0 1 0.21,-0.71 c 0,0 0,-0.05 0,-0.07 0.06,-0.17 0.13,-0.33 0.2,-0.5 a 12.54,12.54 0 0 1 0.69,-1.28 c 0.18,-0.29 0.38,-0.59 0.6,-0.89 l 0.44,-0.58 0.36,-0.44 c 0.12,-0.14 0.24,-0.29 0.38,-0.44 l 0.12,-0.14 0.12,-0.14 c 0.14,-0.16 0.3,-0.32 0.45,-0.48 0.15,-0.16 0.31,-0.33 0.47,-0.49 1,-1 2.06,-2 3.26,-2.94 0.4,-0.33 0.82,-0.65 1.24,-1 0.42,-0.35 0.89,-0.62 1.37,-0.94 z M 33.59,54.31 a 3.29,3.29 0 0 1 0.09,-0.43 c 0,-0.06 0,-0.12 0,-0.18 a 1.21,1.21 0 0 1 0.05,-0.18 2,2 0 0 1 0.11,-0.35 0.64,0.64 0 0 0 0,-0.07 L 34,52.68 A 13,13 0 0 1 35.83,49.79 22.58,22.58 0 0 1 38,47.43 c 0.27,-0.27 0.54,-0.54 0.83,-0.8 v 0 a 51.37,51.37 0 0 1 6.44,-5 c 0.34,-0.23 0.69,-0.46 1,-0.68 v 0 c 2,6.17 2.83,12.44 2.06,16.15 A 54.12,54.12 0 0 0 41,63 a 5.59,5.59 0 0 1 -0.91,-0.08 9.4,9.4 0 0 1 -0.92,-0.2 6.36,6.36 0 0 1 -0.62,-0.19 8.22,8.22 0 0 1 -1.6,-0.79 c -0.21,-0.13 -0.4,-0.28 -0.59,-0.42 -0.19,-0.14 -0.45,-0.37 -0.65,-0.56 a 7.37,7.37 0 0 1 -1.88,-3 7.24,7.24 0 0 1 -0.24,-3.45 z M 20.26,26.45 v 0 a 51.76,51.76 0 0 1 4.39,3.12 39.52,39.52 0 0 1 3.66,3.2 l 0.4,0.4 c 0.52,0.52 1,1.05 1.43,1.56 0.43,0.51 0.82,1 1.16,1.52 0.17,0.24 0.33,0.49 0.47,0.72 0.14,0.23 0.28,0.48 0.39,0.71 l 0.17,0.34 c 0.1,0.23 0.19,0.45 0.27,0.67 a 7.19,7.19 0 0 1 0.24,4 l -0.31,0.33 c -0.08,0.09 -0.16,0.19 -0.25,0.28 -0.25,0.3 -0.51,0.64 -0.78,1 -0.65,0.88 -1.33,1.88 -1.91,2.71 l -0.45,0.64 -0.17,0.24 a 4.85,4.85 0 0 1 -0.3,0.41 l -0.13,0.16 a 2.18,2.18 0 0 1 -0.17,0.21 l -0.07,0.07 a 0.48,0.48 0 0 1 -0.11,0.08 8.34,8.34 0 0 1 -1.69,-0.39 l -0.44,-0.14 a 45.26,45.26 0 0 0 -4.89,-1.26 l -0.3,-0.05 H 20.71 L 20.33,46.66 20,46.33 C 19.88,46.21 19.77,46.08 19.66,45.95 A 6.81,6.81 0 0 1 19.07,45.13 C 18.94,44.91 18.81,44.68 18.7,44.45 A 6.81,6.81 0 0 1 18.39,43.71 C 17.15,40.26 18,33.28 20.26,26.45 Z M 9.11,54.12 a 51.35,51.35 0 0 1 9.39,-0.3 c 0.66,0 1.3,0.11 1.92,0.19 l 0.6,0.08 0.78,0.13 a 14.89,14.89 0 0 1 4.2,1.31 l 0.38,0.22 v 0 h 0.05 a 14.42,14.42 0 0 0 0.38,3 c 0.08,0.33 0.17,0.65 0.27,1 a 14.51,14.51 0 0 0 2.38,4.56 7.56,7.56 0 0 1 -0.69,1.69 c -0.11,0.19 -0.23,0.36 -0.35,0.54 a 7.5,7.5 0 0 1 -0.81,1 5.51,5.51 0 0 1 -0.43,0.41 v 0 a 55.21,55.21 0 0 0 -9.53,0.07 C 14.72,65.57 11.41,60.19 9.11,54.12 Z m 11.63,29.59 c -0.32,-0.51 -0.64,-1 -0.94,-1.59 -0.16,-0.27 -0.31,-0.55 -0.46,-0.83 -0.46,-0.85 -0.9,-1.73 -1.32,-2.65 -0.15,-0.3 -0.28,-0.61 -0.42,-0.92 -0.31,-0.71 -0.61,-1.44 -0.9,-2.18 l -0.09,-0.21 a 1.89,1.89 0 0 1 -0.09,-0.21 v 0 a 46.74,46.74 0 0 1 12.27,0 v 0 a 14.37,14.37 0 0 1 5,1.61 v 0 h 0.05 c 0,0.43 0,0.87 0.08,1.3 0.08,0.43 0.12,0.86 0.2,1.28 a 15,15 0 0 0 0.45,1.66 13.88,13.88 0 0 0 0.64,1.59 c 0.12,0.26 0.25,0.52 0.39,0.77 0.14,0.25 0.19,0.34 0.29,0.5 0.2,0.33 0.41,0.65 0.63,1 l 0.35,0.46 A 7.13,7.13 0 0 1 36.19,87 c -0.11,0.19 -0.23,0.36 -0.35,0.54 a 7.88,7.88 0 0 1 -1.27,1.37 l -1,-0.08 c -1.46,-0.09 -3,-0.11 -4.47,-0.08 v 0 c -0.89,0 -1.78,0.07 -2.66,0.12 L 25.08,89 v 0 A 20.5,20.5 0 0 1 21.23,84.47 Z M 26,100.8 c -0.34,-0.68 -0.66,-1.37 -1,-2.09 -0.34,-0.72 -0.61,-1.43 -0.9,-2.17 a 1.19,1.19 0 0 1 -0.08,-0.2 1.89,1.89 0 0 1 -0.09,-0.21 v 0 c 1.25,-0.15 2.49,-0.25 3.7,-0.31 h 1.2 c 1.63,-0.05 3.18,0 4.63,0.08 l 0.73,0.06 1.4,0.16 0.66,0.1 a 14.21,14.21 0 0 1 5,1.6 l 0.08,0.06 a 14.24,14.24 0 0 0 0.14,1.73 c 0.06,0.38 0.13,0.76 0.21,1.13 l 0.14,0.56 a 14.9,14.9 0 0 0 1.28,3.18 c 0.1,0.17 0.19,0.34 0.29,0.5 0.2,0.33 0.41,0.65 0.63,1 l 0.35,0.46 a 7.56,7.56 0 0 1 -0.76,1.67 c -0.11,0.18 -0.23,0.36 -0.35,0.53 v 0 a 7.06,7.06 0 0 1 -0.6,0.73 l -0.2,0.21 a 1.58,1.58 0 0 1 -0.23,0.22 1.94,1.94 0 0 1 -0.21,0.2 v 0 l -1.16,-0.09 a 57,57 0 0 0 -8.36,0.17 v 0 a 22.15,22.15 0 0 1 -4.39,-5.39 C 27.36,103.43 26.65,102.15 26,100.8 Z M 37.15,128 c -0.28,-0.37 -0.56,-0.75 -0.83,-1.16 -0.27,-0.41 -0.55,-0.83 -0.82,-1.27 -0.72,-1.16 -1.43,-2.44 -2.1,-3.79 -0.34,-0.68 -0.66,-1.37 -1,-2.08 -0.34,-0.71 -0.61,-1.44 -0.9,-2.18 -0.06,-0.14 -0.12,-0.28 -0.17,-0.42 1.11,-0.13 2.2,-0.23 3.26,-0.29 0.54,0 1.07,-0.06 1.59,-0.07 1,0 2,0 3,0 0.48,0 1,0 1.43,0.07 l 0.91,0.07 v 0 l 1.39,0.16 0.68,0.1 v 0 a 14.52,14.52 0 0 1 5,1.61 l 0.08,0.06 a 14.34,14.34 0 0 0 0.83,4.51 c 0.13,0.36 0.27,0.72 0.43,1.06 0.16,0.34 0.33,0.7 0.51,1 a 15.22,15.22 0 0 0 1.26,1.93 6.25,6.25 0 0 1 -0.39,1 3.59,3.59 0 0 1 -0.17,0.34 3.9,3.9 0 0 1 -0.14,0.35 7.21,7.21 0 0 1 -1.17,1.48 4.24,4.24 0 0 1 -0.43,0.42 v 0 a 54.1,54.1 0 0 0 -9.52,0.06 12.43,12.43 0 0 1 -1.09,-1 c -0.27,-0.28 -0.55,-0.58 -0.83,-0.91 -0.28,-0.33 -0.54,-0.65 -0.81,-1.05 z m 7.41,21 v 0 c -0.28,-0.37 -0.56,-0.75 -0.83,-1.15 -0.27,-0.4 -0.55,-0.83 -0.82,-1.27 a 43.29,43.29 0 0 1 -2.1,-3.79 c -0.17,-0.34 -0.33,-0.68 -0.49,-1 -0.49,-1 -1,-2.13 -1.38,-3.23 a 1.67,1.67 0 0 1 -0.08,-0.2 l -0.08,-0.21 c 1.14,-0.13 2.26,-0.23 3.36,-0.29 0.56,0 1.11,-0.06 1.66,-0.07 1,0 2,0 3,0 0.51,0 1,0 1.5,0.08 0,0 0,0 0,0 0.49,0 1,0.07 1.42,0.13 0.42,0.06 0.91,0.11 1.35,0.18 v 0 a 18.18,18.18 0 0 1 3.46,0.87 8,8 0 0 1 0.83,0.35 c 0.13,0.06 0.26,0.12 0.38,0.19 a 3.9,3.9 0 0 1 0.35,0.19 h 0.05 c 0,0 0,0 0,0 a 13.47,13.47 0 0 0 0.23,2.29 q 0.08,0.42 0.18,0.84 a 15,15 0 0 0 0.84,2.44 16.9,16.9 0 0 0 0.8,1.52 15.09,15.09 0 0 0 1,1.43 3.12,3.12 0 0 1 -0.15,0.43 7,7 0 0 1 -0.61,1.23 7.73,7.73 0 0 1 -1.61,1.91 v 0 a 55.1,55.1 0 0 0 -9.52,0.07 12.47,12.47 0 0 1 -1.08,-1 c -0.28,-0.28 -0.55,-0.59 -0.83,-0.92 -0.28,-0.33 -0.55,-0.62 -0.83,-1.02 z m 5.1,17.46 A 47,47 0 0 1 47.38,162 c -0.18,-0.4 -0.35,-0.8 -0.52,-1.21 -0.17,-0.41 -0.34,-0.81 -0.5,-1.23 -0.06,-0.14 -0.12,-0.28 -0.17,-0.42 h 0.16 a 51.64,51.64 0 0 1 9.26,-0.28 l 0.88,0.08 q 0.67,0.06 1.32,0.15 l 0.66,0.1 v 0 l 0.39,0.07 0.37,0.07 0.74,0.16 c 0.47,0.11 0.92,0.23 1.34,0.37 a 9.85,9.85 0 0 1 2.18,0.94 l 0.08,0.06 v 0 c 0,0.19 0,0.38 0,0.58 a 14.38,14.38 0 0 0 3,8 7.1,7.1 0 0 1 -0.53,1.25 c -0.07,0.14 -0.15,0.28 -0.23,0.41 a 8.6,8.6 0 0 1 -1.16,1.49 5.77,5.77 0 0 1 -0.44,0.42 c -0.69,-0.06 -1.38,-0.1 -2.08,-0.14 a 58,58 0 0 0 -7.45,0.2 20.74,20.74 0 0 1 -3.85,-4.53 c -0.36,-0.69 -0.77,-1.35 -1.17,-2.05 z M 74,190.38 a 6.85,6.85 0 0 1 -0.75,1.66 7.41,7.41 0 0 1 -1,1.36 l -0.39,0.39 a 6.47,6.47 0 0 1 -0.57,0.47 7,7 0 0 1 -1.29,0.74 7.55,7.55 0 0 1 -1.4,0.51 7.22,7.22 0 0 1 -5.53,-0.83 17.47,17.47 0 0 1 -4.85,-5.3 c -0.61,-0.93 -1.21,-1.94 -1.79,-3 -0.39,-0.72 -0.77,-1.46 -1.13,-2.23 q -0.27,-0.57 -0.54,-1.17 c -0.35,-0.78 -0.69,-1.59 -1,-2.41 -0.06,-0.14 -0.12,-0.28 -0.17,-0.42 v 0 a 46.24,46.24 0 0 1 12.26,0 14.44,14.44 0 0 1 5,1.6 l 0.08,0.06 a 14.7,14.7 0 0 0 0.24,2.3 q 0.08,0.42 0.18,0.84 a 14.28,14.28 0 0 0 2.65,5.42 z m 1.58,-22.79 A 7.77,7.77 0 0 1 74,166.8 c -0.2,-0.13 -0.4,-0.27 -0.59,-0.42 a 6.93,6.93 0 0 1 -0.64,-0.56 7.27,7.27 0 0 1 -0.82,-0.94 5.62,5.62 0 0 1 -0.63,-1 6.12,6.12 0 0 1 -0.33,-0.75 7.08,7.08 0 0 1 -0.22,-4.16 l 0.09,-0.36 0.12,-0.35 c 0,0 0,-0.05 0,-0.08 a 5.32,5.32 0 0 1 0.21,-0.5 13.4,13.4 0 0 1 1.72,-2.74 l 0.34,-0.41 c 0.15,-0.19 0.32,-0.39 0.5,-0.59 l 0.14,-0.17 c 0.15,-0.16 0.29,-0.32 0.45,-0.48 0.16,-0.16 0.31,-0.33 0.47,-0.49 a 49.74,49.74 0 0 1 8.64,-6.8 c 0,0.14 0.09,0.27 0.13,0.42 q 0.27,0.84 0.51,1.68 c 0.15,0.56 0.3,1.12 0.44,1.68 0.14,0.56 0.27,1.11 0.38,1.65 0.11,0.54 0.21,1 0.3,1.56 0.09,0.56 0.17,1 0.24,1.51 0.07,0.51 0.16,1.1 0.2,1.63 a 21.61,21.61 0 0 1 0,5.29 q 0,0.38 -0.12,0.72 v 0 a 55.73,55.73 0 0 0 -7.46,5.94 7.83,7.83 0 0 1 -2.46,-0.49 z m 5.81,20.22 a 6.27,6.27 0 0 1 -0.59,-0.42 7.23,7.23 0 0 1 -2.64,-7.48 l 0.09,-0.35 a 2,2 0 0 1 0.11,-0.35 v -0.08 A 2.87,2.87 0 0 1 78.51,178.76 8.08,8.08 0 0 1 79,178 l 0.23,-0.4 a 19,19 0 0 1 2.16,-2.85 c 0.14,-0.16 0.3,-0.32 0.45,-0.48 0.15,-0.16 0.31,-0.33 0.47,-0.49 A 40.88,40.88 0 0 1 86,170.42 c 0.52,6.29 2,12.63 4.77,16.66 a 6.85,6.85 0 0 1 -2,1.32 l -0.37,0.16 a 7.66,7.66 0 0 1 -0.77,0.25 7.25,7.25 0 0 1 -0.78,0.17 v 0 a 6.94,6.94 0 0 1 -1.2,0.1 7.59,7.59 0 0 1 -1.34,-0.12 7.94,7.94 0 0 1 -1.31,-0.36 8.6,8.6 0 0 1 -1.58,-0.79 z m 27.65,79.55 -6.32,-17.89 L 83.86,196 a 14.36,14.36 0 0 0 6.66,-0.7 11.9,11.9 0 0 0 1.24,-0.5 14.13,14.13 0 0 0 4.3,-3 14,14 0 0 0 5.16,1.49 c 0.45,0 0.89,0.06 1.33,0.06 a 14.49,14.49 0 0 0 6.52,-1.56 z m 0,-84.75 c -0.13,0.2 -0.27,0.4 -0.42,0.59 a 7.44,7.44 0 0 1 -0.59,0.67 c -0.21,0.21 -0.43,0.41 -0.67,0.61 a 7.59,7.59 0 0 1 -5.54,1.74 6.76,6.76 0 0 1 -2.32,-0.62 6.65,6.65 0 0 1 -2.12,-1.46 5.16,5.16 0 0 1 -0.5,-0.54 c -0.09,-0.11 -0.18,-0.22 -0.26,-0.34 a 10.65,10.65 0 0 1 -0.75,-1.22 l -0.19,-0.38 a 19.8,19.8 0 0 1 -0.87,-2.14 c -0.22,-0.63 -0.42,-1.3 -0.6,-2 -0.1,-0.37 -0.19,-0.76 -0.28,-1.15 -0.18,-0.78 -0.34,-1.61 -0.48,-2.45 a 49.64,49.64 0 0 1 -0.66,-6.76 c 0,-0.15 0,-0.29 0,-0.44 v 0 a 54.4,54.4 0 0 1 5.72,1.62 l 0.6,0.2 c 0.49,0.17 1,0.35 1.42,0.54 a 35.72,35.72 0 0 1 3.8,1.75 15.72,15.72 0 0 1 3.87,2.78 4.72,4.72 0 0 1 0.37,0.41 l 0.05,0.06 a 6,6 0 0 1 0.43,0.6 7.25,7.25 0 0 1 0.03,7.93 z m 0,-22.28 c -0.13,0.2 -0.27,0.4 -0.42,0.59 -0.15,0.19 -0.18,0.23 -0.28,0.34 -0.1,0.11 -0.2,0.22 -0.31,0.33 -0.11,0.11 -0.43,0.41 -0.67,0.61 a 7.81,7.81 0 0 1 -2.14,1.26 55.36,55.36 0 0 0 -9,-3.11 v 0 c -1.91,-3.16 -3.21,-9.14 -3.41,-15.47 0,-0.15 0,-0.29 0,-0.44 v 0 a 46.7,46.7 0 0 1 11.56,4.12 15.76,15.76 0 0 1 3.85,2.78 4.72,4.72 0 0 1 0.37,0.41 l 0.05,0.06 a 6,6 0 0 1 0.43,0.6 7.23,7.23 0 0 1 0.01,7.92 z m 0,-22.27 c -0.13,0.2 -0.27,0.4 -0.42,0.59 a 6.17,6.17 0 0 1 -0.59,0.66 c -0.21,0.21 -0.43,0.41 -0.67,0.61 a 8.17,8.17 0 0 1 -2.15,1.27 54.46,54.46 0 0 0 -9,-3.12 v 0 c -1.9,-3.17 -3.2,-9.14 -3.4,-15.46 0,-0.15 0,-0.29 0,-0.44 v 0 a 46.71,46.71 0 0 1 11.56,4.11 15.76,15.76 0 0 1 3.85,2.78 4.72,4.72 0 0 1 0.37,0.41 l 0.05,0.06 a 6,6 0 0 1 0.43,0.6 7.25,7.25 0 0 1 0.01,7.93 z m 0,-22.28 c -0.13,0.2 -0.27,0.4 -0.42,0.59 a 7.44,7.44 0 0 1 -0.59,0.67 8.17,8.17 0 0 1 -2.82,1.87 54.32,54.32 0 0 0 -9,-3.11 v 0 C 94.3,112.64 93,106.66 92.8,100.33 c 0,-0.15 0,-0.29 0,-0.44 v 0 a 58,58 0 0 1 6.34,1.82 c 0.49,0.17 1,0.35 1.42,0.54 l 1.37,0.57 c 0.43,0.19 0.85,0.38 1.26,0.58 0.41,0.2 0.8,0.4 1.18,0.61 v 0 a 17.21,17.21 0 0 1 3.42,2.37 5.28,5.28 0 0 1 0.41,0.41 2.79,2.79 0 0 1 0.37,0.4 l 0.05,0.06 a 6,6 0 0 1 0.43,0.6 7.25,7.25 0 0 1 0.03,7.93 z m 0,-22.28 a 6.42,6.42 0 0 1 -0.42,0.6 6.17,6.17 0 0 1 -0.59,0.66 8.17,8.17 0 0 1 -2.82,1.87 54.29,54.29 0 0 0 -9,-3.1 v 0 C 94.3,90.37 93,84.39 92.8,78.07 c 0,-0.15 0,-0.3 0,-0.45 v 0 a 46.41,46.41 0 0 1 11.61,4.14 17.61,17.61 0 0 1 3.4,2.35 l 0.41,0.4 0.36,0.41 0.05,0.06 a 6,6 0 0 1 0.43,0.6 7.25,7.25 0 0 1 0.02,7.92 z m 0,-22.27 c -0.13,0.2 -0.27,0.4 -0.42,0.59 a 6.17,6.17 0 0 1 -0.59,0.66 7.83,7.83 0 0 1 -0.67,0.61 7.73,7.73 0 0 1 -2.16,1.26 54,54 0 0 0 -9,-3.09 v 0 a 20.19,20.19 0 0 1 -2.12,-5.55 c -0.16,-0.65 -0.31,-1.32 -0.44,-2 a 49.63,49.63 0 0 1 -0.86,-7.9 c 0,-0.15 0,-0.31 0,-0.46 v 0 a 46.7,46.7 0 0 1 11.56,4.12 17.28,17.28 0 0 1 3.44,2.37 l 0.41,0.41 a 4.72,4.72 0 0 1 0.37,0.41 l 0.05,0.06 a 6,6 0 0 1 0.43,0.6 7.25,7.25 0 0 1 0.04,7.91 z m 0,-22.28 c -0.13,0.2 -0.27,0.4 -0.42,0.59 a 7.44,7.44 0 0 1 -0.59,0.67 c -0.21,0.21 -0.43,0.41 -0.67,0.61 a 7.87,7.87 0 0 1 -2.15,1.26 54.32,54.32 0 0 0 -9,-3.11 v 0 c -2,-3.24 -3.27,-9.42 -3.43,-15.91 v 0 a 51.75,51.75 0 0 1 9,2.85 21.24,21.24 0 0 1 6.22,3.84 l 0.27,0.27 0.29,0.34 0.05,0.06 a 6,6 0 0 1 0.43,0.6 7.25,7.25 0 0 1 0.04,7.98 z m 3.49,-14.5 a 3.15,3.15 0 0 1 -0.92,-0.52 c -0.11,-0.09 -0.24,-0.17 -0.36,-0.26 -0.27,-0.18 -0.56,-0.4 -0.87,-0.62 L 110,32.7 c -0.81,-0.58 -1.69,-1.21 -2.5,-1.73 l -0.68,-0.42 -0.62,-0.33 v 0 a 7.23,7.23 0 0 1 -1.2,-3.89 8.85,8.85 0 0 1 0.18,-1.69 c 0.06,-0.3 0.12,-0.62 0.21,-0.94 0,-0.16 0.09,-0.32 0.14,-0.49 q 0.14,-0.5 0.33,-1 c 0.12,-0.35 0.26,-0.7 0.41,-1.06 0.07,-0.18 0.15,-0.37 0.23,-0.55 0.16,-0.37 0.33,-0.74 0.52,-1.12 0.19,-0.38 0.38,-0.77 0.58,-1.16 0.2,-0.39 0.57,-1.05 0.88,-1.59 0.31,-0.54 0.64,-1.07 1,-1.62 0.36,-0.55 0.71,-1.09 1.09,-1.65 0.38,-0.56 0.77,-1.1 1.18,-1.65 l 0.84,-1.1 v 0 c 4.43,5.68 7.53,12 7.53,15.65 A 7.11,7.11 0 0 1 119,30.21 v 0 l -0.41,0.21 -0.41,0.24 c -0.29,0.17 -0.59,0.36 -0.9,0.56 l -0.47,0.32 c -1.92,1.3 -3.98,2.91 -4.24,2.91 z m 9.82,215 -6.32,17.89 V 191.7 a 14.49,14.49 0 0 0 6.52,1.56 q 0.66,0 1.32,-0.06 a 14.29,14.29 0 0 0 5.17,-1.49 14.13,14.13 0 0 0 4.3,3 11.9,11.9 0 0 0 1.24,0.5 14.36,14.36 0 0 0 6.66,0.7 z m 24.75,-67.24 c 0,0.15 0,0.29 0,0.44 a 6.25,6.25 0 0 1 -0.18,0.86 c 0,0.14 -0.08,0.28 -0.13,0.42 a 4.73,4.73 0 0 1 -0.25,0.62 c -0.06,0.15 -0.13,0.29 -0.2,0.43 a 3.38,3.38 0 0 1 -0.24,0.41 2.11,2.11 0 0 1 -0.18,0.27 3.16,3.16 0 0 1 -0.28,0.39 7.17,7.17 0 0 1 -1.32,1.32 c -0.19,0.15 -0.39,0.29 -0.59,0.42 a 8,8 0 0 1 -1.61,0.79 7.94,7.94 0 0 1 -1.33,0.36 7.7,7.7 0 0 1 -1.35,0.12 6.83,6.83 0 0 1 -1.19,-0.1 v 0 c -0.26,0 -0.52,-0.1 -0.78,-0.17 a 7.66,7.66 0 0 1 -0.77,-0.25 l -0.37,-0.16 a 5.28,5.28 0 0 1 -0.53,-0.27 2.39,2.39 0 0 1 -0.34,-0.21 1.9,1.9 0 0 1 -0.33,-0.22 l -0.09,-0.07 a 4.63,4.63 0 0 1 -0.42,-0.32 l -0.25,-0.23 c 2.76,-4 4.26,-10.37 4.78,-16.66 0.37,0.3 0.74,0.59 1.09,0.89 l 0.9,0.78 c 0.63,0.55 1.22,1.11 1.76,1.66 l 0.47,0.49 c 0.15,0.16 0.31,0.32 0.45,0.48 0.14,0.16 0.35,0.39 0.51,0.59 0.33,0.39 0.64,0.77 0.91,1.15 a 12.58,12.58 0 0 1 0.74,1.11 l 0.23,0.41 c 0.07,0.13 0.14,0.26 0.2,0.39 a 3.39,3.39 0 0 1 0.18,0.39 c 0.05,0.12 0.11,0.25 0.15,0.37 a 0.26,0.26 0 0 1 0,0.08 5.79,5.79 0 0 1 0.21,0.71 7,7 0 0 1 0.19,2.33 z m 0,-14.16 c -0.28,-0.27 -0.56,-0.54 -0.85,-0.8 -0.44,-0.39 -0.88,-0.79 -1.33,-1.17 l -1.4,-1.08 -1,-0.74 q -1,-0.72 -1.95,-1.41 l -1,-0.68 v 0 c -0.05,-0.23 -0.09,-0.47 -0.12,-0.71 a 21.87,21.87 0 0 1 -0.07,-4.56 c 0,-0.48 0.08,-1 0.15,-1.48 0,-0.22 0,-0.45 0.08,-0.68 a 0.69,0.69 0 0 1 0,-0.2 c 0.1,-0.74 0.23,-1.5 0.38,-2.27 0.05,-0.27 0.1,-0.54 0.17,-0.81 0.07,-0.27 0.11,-0.55 0.18,-0.82 0.07,-0.27 0.13,-0.55 0.2,-0.83 0.19,-0.83 0.43,-1.67 0.68,-2.52 0.08,-0.28 0.17,-0.56 0.26,-0.84 0.09,-0.28 0.08,-0.28 0.13,-0.42 a 47.11,47.11 0 0 1 9.54,7.73 q 0.28,0.32 0.54,0.63 l 0.44,0.54 c 0.16,0.2 0.3,0.39 0.43,0.58 a 5.72,5.72 0 0 1 0.39,0.56 3.59,3.59 0 0 1 0.28,0.44 c 0.13,0.2 0.24,0.4 0.34,0.59 l 0.28,0.57 a 5.32,5.32 0 0 1 0.21,0.5 v 0 c 0,0 0,0 0,0 a 5.79,5.79 0 0 1 0.21,0.71 7.21,7.21 0 0 1 -2.64,7.46 6.27,6.27 0 0 1 -0.59,0.42 8.2,8.2 0 0 1 -4,1.27 z m 24.27,12.5 c -0.64,1.64 -1.35,3.23 -2.1,4.71 -0.38,0.75 -0.77,1.47 -1.16,2.16 -0.2,0.34 -0.4,0.68 -0.6,1 -0.2,0.32 -0.38,0.61 -0.57,0.9 -0.38,0.59 -0.76,1.14 -1.15,1.65 l -0.11,0.15 c -0.15,0.21 -0.31,0.4 -0.47,0.59 l -0.46,0.56 c -0.15,0.18 -0.3,0.35 -0.46,0.51 l -0.46,0.47 c -0.3,0.3 -0.61,0.57 -0.9,0.81 a 7.51,7.51 0 0 1 -0.88,0.62 7.21,7.21 0 0 1 -5.53,0.83 c -0.24,-0.06 -0.48,-0.14 -0.71,-0.22 -0.23,-0.08 -0.38,-0.15 -0.57,-0.24 A 1.23,1.23 0 0 1 155,195 v 0 l -0.28,-0.15 v 0 l -0.33,-0.2 c -0.15,-0.09 -0.3,-0.2 -0.45,-0.31 a 3.13,3.13 0 0 1 -0.45,-0.38 0.43,0.43 0 0 1 -0.1,-0.09 c 0,0 0,0 0,0 l -0.26,-0.25 a 2.23,2.23 0 0 1 -0.26,-0.27 6.71,6.71 0 0 1 -0.48,-0.58 c -0.15,-0.21 -0.3,-0.42 -0.43,-0.64 a 7.19,7.19 0 0 1 -0.41,-0.77 c 0,0 0,0 0,-0.05 a 3.69,3.69 0 0 1 -0.17,-0.42 c 0,-0.11 -0.08,-0.21 -0.11,-0.32 a 0.49,0.49 0 0 1 0,-0.11 l 0.39,-0.52 0.36,-0.54 c 0.12,-0.18 0.23,-0.37 0.34,-0.55 l 0.31,-0.57 c 0.1,-0.19 0.19,-0.38 0.28,-0.58 0.09,-0.2 0.18,-0.39 0.26,-0.59 0.08,-0.2 0.16,-0.39 0.23,-0.59 0.07,-0.2 0.14,-0.41 0.21,-0.61 v 0 a 14.72,14.72 0 0 0 0.65,-4 v 0 l 0.07,-0.06 a 14.5,14.5 0 0 1 5.05,-1.6 46.16,46.16 0 0 1 12.25,0 v 0 c -0.19,0.04 -0.25,0.18 -0.31,0.32 z m 7.42,-21 c -0.16,0.41 -0.32,0.82 -0.5,1.23 -0.18,0.41 -0.35,0.81 -0.52,1.21 -0.35,0.8 -0.72,1.58 -1.11,2.33 v 0 c -0.19,0.37 -0.39,0.73 -0.58,1.09 -0.19,0.36 -0.39,0.72 -0.59,1.06 -0.2,0.34 -0.4,0.69 -0.61,1 -0.21,0.31 -0.4,0.65 -0.61,1 -0.4,0.6 -0.8,1.17 -1.2,1.69 -0.15,0.2 -0.3,0.4 -0.46,0.58 a 15.79,15.79 0 0 1 -1.24,1.39 c -0.32,0.32 -0.63,0.61 -0.94,0.87 v 0 a 57.83,57.83 0 0 0 -7.44,-0.2 c -0.7,0 -1.4,0.08 -2.09,0.14 a 5.77,5.77 0 0 1 -0.44,-0.42 l -0.31,-0.33 v 0 l -0.19,-0.24 v 0 0 l -0.22,-0.3 a 0.83,0.83 0 0 1 -0.08,-0.12 c -0.09,-0.13 -0.19,-0.26 -0.27,-0.4 a 7.25,7.25 0 0 1 -0.76,-1.66 c 0.26,-0.34 0.52,-0.69 0.75,-1.05 0.23,-0.36 0.45,-0.74 0.65,-1.12 0.2,-0.38 0.26,-0.51 0.38,-0.78 0.12,-0.27 0.17,-0.39 0.25,-0.59 0.16,-0.4 0.3,-0.81 0.42,-1.22 0.06,-0.21 0.12,-0.42 0.17,-0.63 0.05,-0.21 0.13,-0.56 0.18,-0.84 v 0 a 14.58,14.58 0 0 0 0.24,-2.29 l 0.08,-0.06 a 9.85,9.85 0 0 1 2.18,-0.94 c 0.42,-0.14 0.87,-0.26 1.34,-0.37 v 0 l 0.73,-0.16 0.38,-0.07 0.38,-0.07 v 0 l 0.67,-0.1 1.39,-0.16 0.77,-0.06 0.88,-0.05 c 0.43,0 0.88,0 1.33,0 q 0.94,0 1.92,0 h 0.79 l 1.24,0.06 c 1,0.06 2.07,0.15 3.13,0.27 H 179 c -0.1,0.04 -0.16,0.18 -0.22,0.32 z m 7.5,-21.21 a 1.67,1.67 0 0 1 -0.08,0.2 c -0.43,1.1 -0.89,2.19 -1.38,3.23 -0.16,0.35 -0.32,0.69 -0.49,1 -0.33,0.67 -0.67,1.33 -1,2 -0.17,0.32 -0.35,0.63 -0.53,0.94 -0.18,0.31 -0.35,0.6 -0.54,0.89 -0.19,0.29 -0.34,0.55 -0.51,0.81 a 25.77,25.77 0 0 1 -2,2.69 3.9,3.9 0 0 1 -0.33,0.38 l -0.33,0.36 c -0.1,0.11 -0.19,0.21 -0.29,0.3 l -0.39,0.38 -0.54,0.48 a 55.1,55.1 0 0 0 -9.52,-0.07 v 0 a 7.73,7.73 0 0 1 -1.66,-1.93 4.91,4.91 0 0 1 -0.28,-0.5 1.15,1.15 0 0 1 -0.12,-0.25 5,5 0 0 1 -0.21,-0.48 3.12,3.12 0 0 1 -0.15,-0.43 c 0.26,-0.34 0.52,-0.7 0.75,-1.06 0.23,-0.36 0.45,-0.74 0.65,-1.12 0.11,-0.21 0.21,-0.42 0.31,-0.63 l 0.11,-0.24 v 0 c 0.09,-0.19 0.16,-0.37 0.24,-0.56 a 15.8,15.8 0 0 0 0.56,-1.77 q 0.1,-0.42 0.18,-0.84 l 0.09,-0.57 c 0.06,-0.38 0.09,-0.76 0.12,-1.14 0,-0.2 0,-0.39 0,-0.58 v 0 0 H 169 a 5.19,5.19 0 0 1 0.47,-0.25 l 0.53,-0.25 c 0.18,-0.08 0.36,-0.16 0.56,-0.23 0.4,-0.15 0.82,-0.28 1.27,-0.4 l 0.63,-0.16 h 0.19 l 0.6,-0.12 0.77,-0.14 v 0 c 0.43,-0.07 0.89,-0.13 1.35,-0.18 0.46,-0.05 0.93,-0.1 1.42,-0.13 0,0 0,0 0,0 h 0.74 c 1.15,-0.07 2.37,-0.08 3.63,0 h 0.54 0.89 0.32 l 1.66,0.12 1.7,0.17 z m 7.33,-20.8 c -0.29,0.74 -0.59,1.46 -0.9,2.18 -0.31,0.72 -0.63,1.4 -1,2.08 -0.67,1.35 -1.38,2.63 -2.1,3.79 -0.14,0.22 -0.27,0.44 -0.41,0.65 l -0.36,0.55 c -0.16,0.23 -0.31,0.45 -0.47,0.66 -0.27,0.39 -0.54,0.75 -0.83,1.1 -0.15,0.2 -0.31,0.39 -0.46,0.57 l -0.06,0.06 a 3.9,3.9 0 0 1 -0.33,0.38 5.16,5.16 0 0 1 -0.39,0.41 12.43,12.43 0 0 1 -1.09,1 54.1,54.1 0 0 0 -9.52,-0.06 v 0 l -0.22,-0.21 a 1.39,1.39 0 0 1 -0.21,-0.21 6.86,6.86 0 0 1 -0.81,-0.95 c -0.12,-0.17 -0.24,-0.34 -0.35,-0.53 a 7.77,7.77 0 0 1 -0.76,-1.67 c 0.24,-0.3 0.46,-0.62 0.67,-0.94 0.21,-0.32 0.41,-0.65 0.59,-1 0.18,-0.35 0.35,-0.68 0.51,-1 0.16,-0.32 0.3,-0.7 0.43,-1.06 a 14.34,14.34 0 0 0 0.83,-4.51 l 0.09,-0.06 a 14.45,14.45 0 0 1 5,-1.61 v 0 l 0.68,-0.1 1.39,-0.16 v 0 l 0.91,-0.07 c 0.47,0 1,-0.06 1.43,-0.07 1,0 2,0 3,0 0.52,0 1,0 1.59,0.07 1.07,0.06 2.16,0.16 3.26,0.29 0,0.15 -0.06,0.29 -0.12,0.43 z m 7.59,-21.42 c 0,0.15 -0.11,0.27 -0.17,0.41 -0.29,0.74 -0.59,1.46 -0.9,2.17 -0.31,0.71 -0.63,1.41 -1,2.09 -0.67,1.35 -1.38,2.63 -2.1,3.8 a 22.15,22.15 0 0 1 -4.39,5.39 v 0 c -1.71,-0.15 -3.44,-0.24 -5.16,-0.25 h -1.43 a 2.54,2.54 0 0 0 -0.39,0 q -0.72,0 -1.44,0.06 l -1.1,0.08 v 0 a 5.77,5.77 0 0 1 -0.44,-0.42 7.34,7.34 0 0 1 -0.8,-0.94 v 0 c -0.12,-0.17 -0.24,-0.35 -0.35,-0.53 a 5.85,5.85 0 0 1 -0.43,-0.82 8.71,8.71 0 0 1 -0.32,-0.85 c 0.24,-0.31 0.46,-0.62 0.67,-0.94 0.21,-0.32 0.41,-0.65 0.59,-1 0.18,-0.35 0.35,-0.68 0.51,-1 0.16,-0.32 0.3,-0.7 0.43,-1.06 a 14.34,14.34 0 0 0 0.83,-4.51 l 0.08,-0.06 a 14.21,14.21 0 0 1 5,-1.6 l 0.75,-0.11 1.24,-0.14 0.8,-0.07 h 0.78 0.11 c 0.45,0 0.92,0 1.39,0 0.79,0 1.6,0 2.43,0 1.56,0 3.18,0.17 4.83,0.36 z m 7.25,-20.59 q -0.64,1.67 -1.38,3.24 c -0.16,0.35 -0.33,0.69 -0.5,1 -0.17,0.31 -0.33,0.67 -0.51,1 -0.34,0.66 -0.69,1.29 -1.05,1.9 l -0.54,0.89 c -0.18,0.29 -0.36,0.58 -0.55,0.85 a 25,25 0 0 1 -2.08,2.77 l -0.32,0.37 A 14.23,14.23 0 0 1 200.07,89 v 0 l -1.33,-0.11 c -0.88,0 -1.77,-0.09 -2.66,-0.12 v 0 c -1.15,0 -2.3,0 -3.43,0 h -1 l -1,0.08 -0.34,-0.31 -0.11,-0.11 a 4.68,4.68 0 0 1 -0.43,-0.46 c -0.13,-0.16 -0.26,-0.31 -0.38,-0.49 v 0 c -0.12,-0.17 -0.24,-0.34 -0.35,-0.53 a 7.13,7.13 0 0 1 -0.76,-1.67 l 0.35,-0.46 c 0.22,-0.32 0.43,-0.64 0.63,-1 0.1,-0.16 0.19,-0.33 0.29,-0.5 0.1,-0.17 0.23,-0.44 0.34,-0.67 l 0.17,-0.36 a 14.12,14.12 0 0 0 0.52,-1.33 c 0.09,-0.27 0.17,-0.54 0.25,-0.82 l 0.14,-0.56 c 0.08,-0.37 0.15,-0.75 0.21,-1.13 0.06,-0.38 0.08,-0.64 0.11,-1 0.03,-0.36 0,-0.5 0,-0.75 v 0 0 a 14.37,14.37 0 0 1 5,-1.61 v 0 a 46.75,46.75 0 0 1 12.27,0 v 0 c 0.01,0.17 -0.05,0.32 -0.11,0.45 z M 216,54.32 a 49,49 0 0 1 -3.46,7.27 l -0.07,0.11 A 23.92,23.92 0 0 1 207.5,68 v 0 h -0.46 c -0.44,0 -0.9,-0.07 -1.35,-0.09 -0.45,-0.02 -1,-0.06 -1.52,-0.07 -1.37,-0.06 -2.72,-0.06 -4.07,0 v 0 h -1 l -1,0.08 -0.34,-0.31 -0.11,-0.1 a 2.28,2.28 0 0 1 -0.22,-0.22 L 197.1,67 c -0.13,-0.16 -0.26,-0.31 -0.38,-0.49 -0.11,-0.17 -0.23,-0.34 -0.34,-0.52 a 7.23,7.23 0 0 1 -0.44,-0.82 c -0.12,-0.28 -0.22,-0.56 -0.31,-0.84 l 0.25,-0.35 0.09,-0.12 v 0 a 3.46,3.46 0 0 0 0.22,-0.31 l 0.1,-0.15 c 0.1,-0.16 0.21,-0.33 0.3,-0.5 a 1,1 0 0 0 0.11,-0.17 l 0.09,-0.17 0.09,-0.16 a 1.18,1.18 0 0 0 0.11,-0.19 c 0.08,-0.15 0.14,-0.29 0.21,-0.44 0.07,-0.15 0,0 0,0 l 0.17,-0.36 c 0.06,-0.12 0.12,-0.25 0.17,-0.38 0.05,-0.13 0.07,-0.18 0.1,-0.27 0.03,-0.09 0.09,-0.22 0.13,-0.33 a 2.06,2.06 0 0 0 0.12,-0.35 2.67,2.67 0 0 0 0.09,-0.26 c 0,-0.12 0.07,-0.23 0.1,-0.36 l 0.06,-0.2 c 0,0 0,-0.1 0,-0.15 a 2,2 0 0 0 0.07,-0.26 V 58.7 c 0.06,-0.28 0.11,-0.56 0.16,-0.84 0,-0.09 0,-0.19 0.05,-0.29 a 3.93,3.93 0 0 0 0.06,-0.48 c 0,-0.41 0.07,-0.82 0.08,-1.24 v 0 0 a 6.94,6.94 0 0 1 0.77,-0.4 l 0.32,-0.14 a 2.54,2.54 0 0 1 0.38,-0.16 l 0.4,-0.14 a 3,3 0 0 1 0.45,-0.15 l 0.76,-0.2 h 0.11 l 0.45,-0.11 1,-0.2 c 0.34,-0.06 0.68,-0.12 1,-0.16 l 0.55,-0.08 a 5.14,5.14 0 0 1 0.55,-0.06 c 0.57,-0.06 1.17,-0.11 1.78,-0.14 1.3,-0.07 2.69,-0.07 4.13,0 l 1.34,0.07 1.63,0.12 1.66,0.18 C 216,54.19 216,54.26 216,54.32 Z" id="path20" inkscape:connector-curvature="0" style="fill:#1d1d1b" />
   <path class="cls-2" d="m 17.64,68 a 55.21,55.21 0 0 1 9.53,-0.07 v 0 a 5.51,5.51 0 0 0 0.43,-0.41 7.5,7.5 0 0 0 0.81,-1 c 0.12,-0.18 0.24,-0.35 0.35,-0.54 a 7.56,7.56 0 0 0 0.76,-1.67 14.51,14.51 0 0 1 -2.38,-4.56 c -0.1,-0.32 -0.19,-0.64 -0.27,-1 a 14.42,14.42 0 0 1 -0.38,-3 h -0.05 v 0 L 26,55.53 A 14.89,14.89 0 0 0 21.77,54.22 L 21,54.09 20.4,54.01 c -0.62,-0.08 -1.26,-0.15 -1.92,-0.19 a 51.35,51.35 0 0 0 -9.39,0.3 c 2.32,6.07 5.63,11.45 8.55,13.88 z" id="path22" inkscape:connector-curvature="0" style="fill:#ffffff" />
   <path class="cls-2" d="m 18.68,44.45 c 0.11,0.23 0.24,0.46 0.37,0.68 a 6.81,6.81 0 0 0 0.59,0.82 c 0.11,0.13 0.22,0.26 0.34,0.38 l 0.36,0.35 0.38,0.32 h 0.16 l 0.3,0.05 a 45.26,45.26 0 0 1 4.89,1.26 l 0.44,0.14 a 8.34,8.34 0 0 0 1.69,0.39 0.48,0.48 0 0 0 0.11,-0.08 l 0.07,-0.07 a 2.18,2.18 0 0 0 0.17,-0.21 l 0.13,-0.16 a 4.85,4.85 0 0 0 0.3,-0.41 L 29.15,47.67 29.6,47 c 0.58,-0.83 1.26,-1.83 1.91,-2.71 0.27,-0.36 0.53,-0.7 0.78,-1 0.09,-0.09 0.17,-0.19 0.25,-0.28 l 0.31,-0.33 a 7.19,7.19 0 0 0 -0.24,-4 c -0.08,-0.22 -0.17,-0.44 -0.27,-0.67 l -0.17,-0.34 c -0.11,-0.23 -0.25,-0.47 -0.39,-0.71 -0.14,-0.24 -0.3,-0.48 -0.47,-0.72 -0.34,-0.5 -0.73,-1 -1.16,-1.52 -0.43,-0.52 -0.91,-1 -1.43,-1.56 l -0.4,-0.4 a 39.52,39.52 0 0 0 -3.66,-3.2 51.76,51.76 0 0 0 -4.39,-3.12 v 0 C 18,33.28 17.15,40.26 18.37,43.71 a 6.81,6.81 0 0 0 0.31,0.74 z" id="path24" inkscape:connector-curvature="0" style="fill:#ffffff" />
   <path class="cls-2" d="m 25.07,89 v 0 l 1.32,-0.11 c 0.88,0 1.77,-0.09 2.66,-0.12 v 0 c 1.51,0 3,0 4.47,0.08 l 1,0.08 a 7.88,7.88 0 0 0 1.27,-1.37 c 0.12,-0.18 0.24,-0.35 0.35,-0.54 A 7.13,7.13 0 0 0 37,85.34 l -0.35,-0.46 c -0.22,-0.32 -0.43,-0.64 -0.63,-1 -0.1,-0.16 -0.19,-0.33 -0.29,-0.5 -0.1,-0.17 -0.27,-0.51 -0.39,-0.77 A 13.88,13.88 0 0 1 34.7,81.02 15,15 0 0 1 34.25,79.36 C 34.17,78.94 34.1,78.51 34.05,78.08 34,77.65 33.98,77.21 33.97,76.78 h -0.05 v 0 a 14.37,14.37 0 0 0 -5,-1.61 v 0 a 46.74,46.74 0 0 0 -12.27,0 v 0 a 1.89,1.89 0 0 0 0.09,0.21 l 0.09,0.21 c 0.29,0.74 0.59,1.47 0.9,2.18 0.14,0.31 0.27,0.62 0.42,0.92 0.42,0.92 0.86,1.8 1.32,2.65 0.15,0.28 0.3,0.56 0.46,0.83 0.3,0.55 0.62,1.08 0.94,1.59 l 0.48,0.74 a 20.5,20.5 0 0 0 3.72,4.5 z" id="path26" inkscape:connector-curvature="0" style="fill:#ffffff" />
   <path class="cls-2" d="m 32.47,110 v 0 a 57,57 0 0 1 8.36,-0.17 l 1.16,0.09 v 0 a 1.94,1.94 0 0 0 0.21,-0.2 1.58,1.58 0 0 0 0.23,-0.22 l 0.2,-0.21 a 7.06,7.06 0 0 0 0.6,-0.73 v 0 c 0.12,-0.17 0.24,-0.35 0.35,-0.53 a 7.56,7.56 0 0 0 0.76,-1.67 l -0.35,-0.46 c -0.22,-0.32 -0.43,-0.64 -0.63,-1 -0.1,-0.16 -0.19,-0.33 -0.29,-0.5 a 14.9,14.9 0 0 1 -1.28,-3.18 l -0.14,-0.56 C 41.57,100.29 41.5,99.91 41.44,99.53 A 14.24,14.24 0 0 1 41.3,97.8 l -0.08,-0.06 a 14.21,14.21 0 0 0 -5,-1.6 l -0.66,-0.1 -1.4,-0.16 -0.73,-0.06 c -1.45,-0.1 -3,-0.13 -4.63,-0.08 h -1.2 c -1.21,0.06 -2.45,0.16 -3.7,0.31 v 0 a 1.89,1.89 0 0 0 0.09,0.21 1.19,1.19 0 0 0 0.08,0.2 c 0.29,0.74 0.59,1.46 0.9,2.17 0.31,0.71 0.63,1.41 1,2.09 0.67,1.35 1.38,2.63 2.1,3.8 a 22.15,22.15 0 0 0 4.4,5.48 z" id="path28" inkscape:connector-curvature="0" style="fill:#ffffff" />
   <path class="cls-2" d="m 35.68,60.8 c 0.2,0.19 0.42,0.38 0.65,0.56 0.23,0.18 0.38,0.29 0.59,0.42 a 8.22,8.22 0 0 0 1.6,0.79 6.36,6.36 0 0 0 0.62,0.19 9.4,9.4 0 0 0 0.92,0.2 A 5.59,5.59 0 0 0 41,63 54.12,54.12 0 0 1 48.46,57.07 c 0.77,-3.71 0,-10 -2.06,-16.15 v 0 c -0.36,0.22 -0.71,0.45 -1,0.68 a 51.37,51.37 0 0 0 -6.44,5 v 0 c -0.29,0.26 -0.56,0.53 -0.83,0.8 A 22.58,22.58 0 0 0 36,49.76 13,13 0 0 0 34.17,52.65 l -0.16,0.42 a 0.64,0.64 0 0 1 0,0.07 2,2 0 0 0 -0.11,0.35 1.21,1.21 0 0 0 -0.05,0.18 c 0,0.06 0,0.12 0,0.18 a 3.29,3.29 0 0 0 -0.09,0.43 7.24,7.24 0 0 0 0.21,3.44 7.37,7.37 0 0 0 1.71,3.08 z" id="path30" inkscape:connector-curvature="0" style="fill:#ffffff" />
   <path class="cls-2" d="m 39.9,131 a 54.1,54.1 0 0 1 9.52,-0.06 v 0 a 4.24,4.24 0 0 0 0.43,-0.42 7.21,7.21 0 0 0 1.15,-1.52 3.9,3.9 0 0 0 0.19,-0.35 3.59,3.59 0 0 0 0.17,-0.34 6.25,6.25 0 0 0 0.39,-1 15.22,15.22 0 0 1 -1.26,-1.93 c -0.18,-0.33 -0.35,-0.68 -0.51,-1 -0.16,-0.32 -0.3,-0.7 -0.43,-1.06 a 14.34,14.34 0 0 1 -0.83,-4.51 l -0.08,-0.06 a 14.52,14.52 0 0 0 -5,-1.61 v 0 l -0.68,-0.1 -1.39,-0.16 v 0 l -0.91,-0.07 c -0.47,0 -0.95,-0.06 -1.43,-0.07 -1,0 -2,0 -3,0 -0.52,0 -1.05,0 -1.59,0.07 -1.06,0.06 -2.15,0.16 -3.26,0.29 0.05,0.14 0.11,0.28 0.17,0.42 0.29,0.74 0.59,1.46 0.9,2.18 0.31,0.72 0.63,1.4 1,2.08 0.67,1.35 1.38,2.63 2.1,3.79 0.27,0.44 0.54,0.86 0.82,1.27 0.28,0.41 0.55,0.79 0.83,1.16 0.28,0.37 0.55,0.71 0.83,1 0.28,0.29 0.56,0.63 0.83,0.91 A 12.43,12.43 0 0 0 39.9,131 Z" id="path32" inkscape:connector-curvature="0" style="fill:#ffffff" />
   <path class="cls-2" d="m 45.16,68.73 c -0.16,0.16 -0.32,0.32 -0.47,0.49 -0.15,0.17 -0.31,0.32 -0.45,0.48 L 44.12,69.84 44,70 c -0.14,0.15 -0.26,0.3 -0.38,0.44 l -0.36,0.44 -0.44,0.58 c -0.22,0.3 -0.42,0.6 -0.6,0.89 a 12.54,12.54 0 0 0 -0.69,1.28 c -0.07,0.17 -0.14,0.33 -0.2,0.5 0,0 0,0 0,0.07 a 6.36,6.36 0 0 0 -0.21,0.71 7.29,7.29 0 0 0 0.09,3.77 6.14,6.14 0 0 0 0.45,1.14 6.79,6.79 0 0 0 0.64,1.06 7.35,7.35 0 0 0 0.82,1 c 0.2,0.19 0.42,0.38 0.65,0.56 l 0.28,0.21 0.3,0.21 0.34,0.19 h 0.1 a 5.39,5.39 0 0 0 0.68,0.34 l 0.49,0.2 0.61,0.19 0.46,0.11 a 7.23,7.23 0 0 0 1.38,0.17 v 0 a 53.74,53.74 0 0 1 7.44,-5.9 v 0 a 20.53,20.53 0 0 0 0.14,-6 c 0,-0.25 0,-0.51 -0.08,-0.77 -0.15,-1.25 -0.37,-2.56 -0.66,-3.92 -0.11,-0.55 -0.23,-1.1 -0.38,-1.66 -0.15,-0.56 -0.28,-1.11 -0.44,-1.67 -0.16,-0.56 -0.32,-1.12 -0.5,-1.68 0,-0.07 0,-0.14 -0.07,-0.22 C 53.79,62.16 53.8,62 53.78,62 c -1,0.61 -1.91,1.25 -2.81,1.89 -0.45,0.32 -0.88,0.64 -1.31,1 -0.43,0.36 -0.84,0.64 -1.24,1 -1.2,0.89 -2.3,1.87 -3.26,2.84 z" id="path34" inkscape:connector-curvature="0" style="fill:#ffffff" />
   <path class="cls-2" d="m 47.3,152 a 55.1,55.1 0 0 1 9.52,-0.07 v 0 a 7.73,7.73 0 0 0 1.62,-1.93 7,7 0 0 0 0.61,-1.23 3.12,3.12 0 0 0 0.15,-0.43 15.09,15.09 0 0 1 -1,-1.43 16.9,16.9 0 0 1 -0.8,-1.52 15,15 0 0 1 -0.84,-2.44 q -0.11,-0.42 -0.18,-0.84 a 13.47,13.47 0 0 1 -0.23,-2.29 c 0,0 0,0 0,0 H 56.1 a 3.9,3.9 0 0 0 -0.35,-0.19 c -0.12,-0.07 -0.25,-0.13 -0.38,-0.19 a 8,8 0 0 0 -0.83,-0.35 18.18,18.18 0 0 0 -3.46,-0.87 v 0 q -0.66,-0.1 -1.35,-0.18 c -0.46,-0.06 -0.93,-0.1 -1.42,-0.13 0,0 0,0 0,0 -0.49,0 -1,-0.06 -1.5,-0.08 -0.95,0 -1.94,0 -3,0 -0.55,0 -1.1,0 -1.66,0.07 -1.1,0.06 -2.22,0.16 -3.36,0.29 l 0.08,0.21 a 1.67,1.67 0 0 0 0.08,0.2 c 0.43,1.1 0.89,2.19 1.38,3.23 0.16,0.35 0.32,0.69 0.49,1 a 43.29,43.29 0 0 0 2.1,3.79 c 0.27,0.44 0.54,0.86 0.82,1.27 0.28,0.41 0.55,0.78 0.83,1.15 v 0 c 0.28,0.37 0.55,0.72 0.83,1 0.28,0.28 0.55,0.64 0.83,0.92 A 12.47,12.47 0 0 0 47.3,152 Z" id="path36" inkscape:connector-curvature="0" style="fill:#ffffff" />
   <path class="cls-2" d="m 51.62,90.74 a 14.32,14.32 0 0 0 -2.87,4.37 v 0.07 a 4.72,4.72 0 0 0 -0.2,0.71 7.24,7.24 0 0 0 2.64,7.48 6.42,6.42 0 0 0 0.6,0.42 6.36,6.36 0 0 0 0.77,0.43 7.54,7.54 0 0 0 0.82,0.36 c 0.21,0.07 0.41,0.14 0.62,0.19 a 7.81,7.81 0 0 0 1.83,0.28 c 0.41,-0.4 0.84,-0.79 1.27,-1.17 0.43,-0.38 0.9,-0.79 1.37,-1.18 l 0.94,-0.76 c 0.49,-0.39 1,-0.77 1.5,-1.15 0.78,-0.57 1.58,-1.13 2.38,-1.67 v 0 a 19.23,19.23 0 0 0 0.2,-5.28 C 63.43,93.12 63.35,92.38 63.25,91.61 63.15,90.84 63,90 62.82,89.22 62.61,88.14 62.36,87.04 62.06,85.92 61.92,85.36 61.76,84.8 61.59,84.24 61.51,83.96 61.42,83.68 61.33,83.4 61.24,83.12 61.25,83.11 61.2,82.97 a 46.69,46.69 0 0 0 -9.58,7.77 z" id="path38" inkscape:connector-curvature="0" style="fill:#ffffff" />
   <path class="cls-2" d="m 54.73,173 a 58,58 0 0 1 7.45,-0.2 c 0.7,0 1.39,0.08 2.08,0.14 a 5.77,5.77 0 0 0 0.44,-0.42 8.6,8.6 0 0 0 1.16,-1.52 c 0.08,-0.13 0.16,-0.27 0.23,-0.41 a 7.1,7.1 0 0 0 0.53,-1.25 14.38,14.38 0 0 1 -3,-8 c 0,-0.2 0,-0.39 0,-0.58 v 0 l -0.08,-0.06 a 9.85,9.85 0 0 0 -2.18,-0.94 c -0.42,-0.14 -0.87,-0.26 -1.34,-0.37 l -0.74,-0.16 -0.37,-0.07 -0.39,-0.07 v 0 l -0.66,-0.1 q -0.64,-0.09 -1.32,-0.15 l -0.88,-0.08 a 51.64,51.64 0 0 0 -9.26,0.28 h -0.16 c 0.05,0.14 0.11,0.28 0.17,0.42 0.16,0.42 0.33,0.83 0.5,1.23 0.17,0.4 0.34,0.81 0.52,1.21 a 47,47 0 0 0 2.28,4.49 c 0.4,0.7 0.81,1.36 1.22,2 a 20.74,20.74 0 0 0 3.8,4.61 z" id="path40" inkscape:connector-curvature="0" style="fill:#ffffff" />
   <path class="cls-2" d="m 59.07,111.72 v 0 c -0.52,0.59 -1,1.17 -1.41,1.74 -0.22,0.3 -0.42,0.6 -0.6,0.89 a 9.69,9.69 0 0 0 -0.88,1.77 c 0,0 0,0 0,0.07 a 6.36,6.36 0 0 0 -0.21,0.71 6.17,6.17 0 0 0 -0.15,0.84 6.76,6.76 0 0 0 0,1.42 1.36,1.36 0 0 0 0,0.2 3.11,3.11 0 0 0 0.06,0.44 6.43,6.43 0 0 0 0.28,1.13 4.73,4.73 0 0 0 0.25,0.62 5,5 0 0 0 0.3,0.62 l 0.22,0.36 a 7.63,7.63 0 0 0 0.49,0.67 7.52,7.52 0 0 0 1.21,1.18 l 0.59,0.41 a 7.3,7.3 0 0 0 0.77,0.44 6.89,6.89 0 0 0 0.83,0.35 v 0 a 7.67,7.67 0 0 0 1.84,0.43 c 0.2,0 0.4,0 0.6,0 Q 64.1,125.2 65,124.42 a 57.8,57.8 0 0 1 5.72,-4.35 19.23,19.23 0 0 0 0.2,-5.28 c -0.07,-1 -0.19,-2 -0.36,-3 -0.07,-0.53 -0.17,-1.07 -0.28,-1.61 -0.21,-1.08 -0.46,-2.18 -0.76,-3.29 v 0 c -0.22,-0.84 -0.46,-1.68 -0.73,-2.52 0,-0.15 -0.08,-0.28 -0.13,-0.42 a 46.33,46.33 0 0 0 -9.59,7.77 z" id="path42" inkscape:connector-curvature="0" style="fill:#ffffff" />
   <path class="cls-2" d="m 71.42,185 q -0.11,-0.42 -0.18,-0.84 A 14.7,14.7 0 0 1 71,181.86 l -0.08,-0.06 a 14.44,14.44 0 0 0 -5,-1.6 46.24,46.24 0 0 0 -12.26,0 v 0 c 0,0.14 0.11,0.28 0.17,0.42 0.32,0.82 0.66,1.63 1,2.41 q 0.27,0.6 0.54,1.17 c 0.36,0.77 0.74,1.51 1.13,2.23 0.58,1.08 1.18,2.09 1.79,3 a 17.47,17.47 0 0 0 4.85,5.3 7.22,7.22 0 0 0 5.53,0.83 7.55,7.55 0 0 0 1.33,-0.56 7,7 0 0 0 1.25,-0.76 6.47,6.47 0 0 0 0.57,-0.47 l 0.39,-0.39 a 7.41,7.41 0 0 0 1,-1.36 6.85,6.85 0 0 0 0.75,-1.66 v 0 A 14.28,14.28 0 0 1 71.42,185 Z" id="path44" inkscape:connector-curvature="0" style="fill:#ffffff" />
   <path class="cls-2" d="m 66.94,132.23 -0.44,0.48 a 19.52,19.52 0 0 0 -2.16,2.86 8.88,8.88 0 0 0 -0.55,1.05 c -0.07,0.17 -0.14,0.34 -0.2,0.5 v 0.08 c -0.05,0.14 -0.1,0.28 -0.14,0.42 -0.04,0.14 -0.05,0.19 -0.07,0.29 a 6.17,6.17 0 0 0 -0.15,0.84 6.76,6.76 0 0 0 0,1.42 1.36,1.36 0 0 0 0,0.2 3.11,3.11 0 0 0 0.06,0.44 6.43,6.43 0 0 0 0.28,1.13 4.73,4.73 0 0 0 0.25,0.62 6.59,6.59 0 0 0 0.52,1 7.63,7.63 0 0 0 0.49,0.67 l 0.27,0.32 a 6.92,6.92 0 0 0 0.93,0.86 l 0.28,0.19 a 3.62,3.62 0 0 0 0.32,0.22 7.22,7.22 0 0 0 0.77,0.43 6.89,6.89 0 0 0 0.83,0.35 8.06,8.06 0 0 0 1.23,0.34 l 0.5,0.08 c 0.2,0 0.41,0.05 0.61,0.06 h 0.11 l 0.69,-0.65 a 1.12,1.12 0 0 1 0.2,-0.18 l 0.64,-0.57 0.7,-0.61 a 58.62,58.62 0 0 1 5.23,-3.94 v 0 a 12.62,12.62 0 0 0 0.2,-1.48 23.54,23.54 0 0 0 0,-3.84 c -0.06,-0.87 -0.17,-1.79 -0.32,-2.73 -0.09,-0.65 -0.21,-1.32 -0.34,-2 -0.2,-1 -0.44,-2.08 -0.73,-3.14 -0.22,-0.84 -0.46,-1.69 -0.73,-2.53 0,-0.15 -0.08,-0.28 -0.13,-0.42 v 0 c -0.48,0.3 -1,0.61 -1.42,0.93 a 47.14,47.14 0 0 0 -7.2,5.83 z" id="path46" inkscape:connector-curvature="0" style="fill:#ffffff" />
   <path class="cls-2" d="m 85.51,162.13 v 0 q 0.08,-0.34 0.12,-0.72 a 21.61,21.61 0 0 0 0,-5.29 c 0,-0.53 -0.11,-1.07 -0.2,-1.63 -0.09,-0.56 -0.15,-1 -0.24,-1.51 -0.09,-0.51 -0.19,-1 -0.3,-1.56 -0.11,-0.56 -0.24,-1.1 -0.38,-1.65 -0.14,-0.55 -0.29,-1.12 -0.44,-1.68 -0.15,-0.56 -0.33,-1.12 -0.51,-1.68 0,-0.15 -0.08,-0.28 -0.13,-0.42 a 49.74,49.74 0 0 0 -8.62,6.76 c -0.16,0.16 -0.32,0.32 -0.47,0.49 -0.15,0.17 -0.3,0.32 -0.45,0.48 l -0.14,0.17 c -0.18,0.2 -0.35,0.4 -0.5,0.59 l -0.34,0.41 a 13.4,13.4 0 0 0 -1.72,2.74 5.32,5.32 0 0 0 -0.21,0.5 c 0,0 0,0.05 0,0.08 l -0.12,0.35 -0.09,0.36 a 7.08,7.08 0 0 0 0.22,4.16 6.12,6.12 0 0 0 0.33,0.75 5.62,5.62 0 0 0 0.63,1 7.27,7.27 0 0 0 0.82,0.94 6.93,6.93 0 0 0 0.64,0.56 c 0.19,0.15 0.39,0.29 0.59,0.42 a 8.2,8.2 0 0 0 4,1.27 55.73,55.73 0 0 1 7.51,-5.89 z" id="path48" inkscape:connector-curvature="0" style="fill:#ffffff" />
   <path class="cls-2" d="m 82.26,173.75 c -0.16,0.16 -0.32,0.32 -0.47,0.49 -0.15,0.17 -0.31,0.32 -0.45,0.48 a 19,19 0 0 0 -2.16,2.85 L 79,178 a 8.08,8.08 0 0 0 -0.38,0.79 2.87,2.87 0 0 0 -0.15,0.37 v 0.08 a 2,2 0 0 0 -0.11,0.35 l -0.09,0.35 a 7.23,7.23 0 0 0 2.64,7.48 6.27,6.27 0 0 0 0.59,0.42 8.6,8.6 0 0 0 1.61,0.79 7.94,7.94 0 0 0 1.33,0.36 7.59,7.59 0 0 0 1.34,0.12 6.94,6.94 0 0 0 1.2,-0.1 v 0 a 7.25,7.25 0 0 0 0.78,-0.17 7.66,7.66 0 0 0 0.77,-0.25 l 0.37,-0.16 a 6.85,6.85 0 0 0 2,-1.32 c -2.75,-4 -4.25,-10.37 -4.77,-16.66 a 40.88,40.88 0 0 0 -3.87,3.3 z" id="path50" inkscape:connector-curvature="0" style="fill:#ffffff" />
   <path class="cls-2" d="m 108.65,174.08 -0.05,-0.06 a 4.72,4.72 0 0 0 -0.37,-0.41 15.72,15.72 0 0 0 -3.87,-2.78 35.72,35.72 0 0 0 -3.8,-1.75 c -0.46,-0.19 -0.93,-0.37 -1.42,-0.54 l -0.6,-0.2 a 54.4,54.4 0 0 0 -5.72,-1.62 v 0 c 0,0.15 0,0.29 0,0.44 a 49.64,49.64 0 0 0 0.66,6.76 c 0.14,0.84 0.3,1.67 0.48,2.45 0.09,0.39 0.18,0.78 0.28,1.15 0.18,0.7 0.38,1.37 0.6,2 a 19.8,19.8 0 0 0 0.87,2.14 l 0.19,0.38 a 10.65,10.65 0 0 0 0.75,1.22 c 0.08,0.12 0.17,0.23 0.26,0.34 a 5.16,5.16 0 0 0 0.5,0.54 6.65,6.65 0 0 0 2.12,1.46 6.76,6.76 0 0 0 2.32,0.62 7.59,7.59 0 0 0 5.54,-1.74 c 0.24,-0.2 0.46,-0.4 0.67,-0.61 a 7.44,7.44 0 0 0 0.59,-0.67 c 0.15,-0.19 0.29,-0.39 0.42,-0.59 a 7.25,7.25 0 0 0 0,-7.93 6,6 0 0 0 -0.42,-0.6 z" id="path52" inkscape:connector-curvature="0" style="fill:#ffffff" />
   <path class="cls-2" d="m 108.65,151.81 -0.05,-0.06 a 4.72,4.72 0 0 0 -0.37,-0.41 15.76,15.76 0 0 0 -3.85,-2.78 46.7,46.7 0 0 0 -11.56,-4.12 v 0 c 0,0.15 0,0.29 0,0.44 0.2,6.33 1.5,12.31 3.41,15.47 v 0 a 55.36,55.36 0 0 1 9,3.11 7.81,7.81 0 0 0 2.14,-1.26 c 0.24,-0.2 0.46,-0.4 0.67,-0.61 0.21,-0.21 0.21,-0.21 0.31,-0.33 0.1,-0.12 0.19,-0.22 0.28,-0.34 0.09,-0.12 0.29,-0.39 0.42,-0.59 a 7.23,7.23 0 0 0 0,-7.92 6,6 0 0 0 -0.4,-0.6 z" id="path54" inkscape:connector-curvature="0" style="fill:#ffffff" />
   <path class="cls-2" d="m 108.65,129.53 -0.05,-0.06 a 4.72,4.72 0 0 0 -0.37,-0.41 15.76,15.76 0 0 0 -3.85,-2.78 46.71,46.71 0 0 0 -11.56,-4.11 v 0 c 0,0.15 0,0.29 0,0.44 0.2,6.32 1.5,12.29 3.4,15.46 v 0 a 54.46,54.46 0 0 1 9,3.12 8.17,8.17 0 0 0 2.15,-1.27 c 0.24,-0.2 0.46,-0.4 0.67,-0.61 a 6.17,6.17 0 0 0 0.59,-0.66 c 0.15,-0.19 0.29,-0.39 0.42,-0.59 a 7.25,7.25 0 0 0 0,-7.93 6,6 0 0 0 -0.4,-0.6 z" id="path56" inkscape:connector-curvature="0" style="fill:#ffffff" />
   <path class="cls-2" d="m 108.65,107.25 -0.05,-0.06 a 2.79,2.79 0 0 0 -0.37,-0.4 5.28,5.28 0 0 0 -0.41,-0.41 17.21,17.21 0 0 0 -3.42,-2.38 v 0 c -0.38,-0.21 -0.77,-0.41 -1.18,-0.61 -0.41,-0.2 -0.83,-0.39 -1.26,-0.58 l -1.37,-0.57 c -0.46,-0.19 -0.93,-0.37 -1.42,-0.54 a 58,58 0 0 0 -6.34,-1.82 v 0 c 0,0.15 0,0.29 0,0.44 0.2,6.33 1.5,12.31 3.41,15.47 v 0 a 54.32,54.32 0 0 1 9,3.11 8.17,8.17 0 0 0 2.82,-1.87 7.44,7.44 0 0 0 0.59,-0.67 c 0.15,-0.19 0.29,-0.39 0.42,-0.59 a 7.25,7.25 0 0 0 0,-7.93 6,6 0 0 0 -0.42,-0.59 z" id="path58" inkscape:connector-curvature="0" style="fill:#ffffff" />
   <path class="cls-2" d="m 108.65,85 -0.05,-0.06 -0.36,-0.41 -0.41,-0.4 a 17.61,17.61 0 0 0 -3.4,-2.35 46.41,46.41 0 0 0 -11.61,-4.14 v 0 c 0,0.15 0,0.3 0,0.45 0.2,6.32 1.5,12.3 3.41,15.46 v 0 a 54.29,54.29 0 0 1 9,3.1 8.17,8.17 0 0 0 2.82,-1.87 6.17,6.17 0 0 0 0.59,-0.66 6.42,6.42 0 0 0 0.42,-0.6 7.25,7.25 0 0 0 0,-7.93 6,6 0 0 0 -0.41,-0.59 z" id="path60" inkscape:connector-curvature="0" style="fill:#ffffff" />
   <path class="cls-2" d="m 108.65,62.7 -0.05,-0.06 a 4.72,4.72 0 0 0 -0.37,-0.41 l -0.41,-0.41 a 17.28,17.28 0 0 0 -3.44,-2.37 46.7,46.7 0 0 0 -11.56,-4.12 v 0 c 0,0.15 0,0.31 0,0.46 a 49.63,49.63 0 0 0 0.86,7.9 c 0.13,0.69 0.28,1.36 0.44,2 a 20.19,20.19 0 0 0 2.12,5.55 v 0 a 54,54 0 0 1 9,3.09 7.73,7.73 0 0 0 2.16,-1.26 7.83,7.83 0 0 0 0.67,-0.61 6.17,6.17 0 0 0 0.59,-0.66 c 0.15,-0.19 0.29,-0.39 0.42,-0.59 a 7.25,7.25 0 0 0 0,-7.93 6,6 0 0 0 -0.43,-0.58 z" id="path62" inkscape:connector-curvature="0" style="fill:#ffffff" />
   <path class="cls-2" d="m 108.65,40.42 -0.05,-0.06 -0.29,-0.34 -0.27,-0.27 a 21.24,21.24 0 0 0 -6.27,-3.84 51.75,51.75 0 0 0 -9,-2.85 v 0 C 93,39.55 94.28,45.73 96.24,49 v 0 a 54.32,54.32 0 0 1 9,3.11 7.87,7.87 0 0 0 2.15,-1.26 c 0.24,-0.2 0.46,-0.4 0.67,-0.61 a 7.44,7.44 0 0 0 0.59,-0.67 c 0.15,-0.19 0.29,-0.39 0.42,-0.59 a 7.25,7.25 0 0 0 0,-7.93 6,6 0 0 0 -0.42,-0.63 z" id="path64" inkscape:connector-curvature="0" style="fill:#ffffff" />
   <path class="cls-2" d="m 117.28,31.22 c 0.31,-0.2 0.61,-0.39 0.9,-0.56 l 0.41,-0.24 0.41,-0.21 v 0 a 7.11,7.11 0 0 0 1.12,-3.88 c 0,-3.66 -3.1,-10 -7.53,-15.65 v 0 l -0.84,1.1 c -0.41,0.55 -0.8,1.1 -1.18,1.65 -0.38,0.55 -0.75,1.1 -1.09,1.65 -0.34,0.55 -0.67,1.09 -1,1.62 -0.33,0.53 -0.61,1.07 -0.88,1.59 -0.27,0.52 -0.4,0.78 -0.58,1.16 -0.18,0.38 -0.36,0.75 -0.52,1.12 -0.08,0.18 -0.16,0.37 -0.23,0.55 -0.15,0.36 -0.29,0.71 -0.41,1.06 -0.12,0.35 -0.24,0.69 -0.33,1 0,0.17 -0.09,0.33 -0.14,0.49 -0.09,0.32 -0.15,0.64 -0.21,0.94 a 8.85,8.85 0 0 0 -0.18,1.69 7.23,7.23 0 0 0 1.12,3.89 v 0 l 0.62,0.33 0.68,0.42 c 0.81,0.52 1.69,1.15 2.5,1.73 l 0.47,0.35 c 0.31,0.22 0.6,0.44 0.87,0.62 0.12,0.09 0.25,0.17 0.36,0.26 a 3.15,3.15 0 0 0 0.92,0.52 c 0.26,0 2.32,-1.61 4.24,-2.91 z" id="path66" inkscape:connector-curvature="0" style="fill:#ffffff" />
   <path class="cls-2" d="m 123.37,35.91 c -0.72,0.31 -1.4,0.63 -2,1 a 17.56,17.56 0 0 0 -4.22,2.87 l -0.26,0.27 v 0 l -0.29,0.34 -0.06,0.08 a 14.47,14.47 0 0 1 0,9.06 4.47,4.47 0 0 0 0.29,0.35 c 0.1,0.12 0.2,0.23 0.31,0.34 a 5.73,5.73 0 0 0 0.67,0.63 7.81,7.81 0 0 0 2.14,1.26 v 0 a 54.32,54.32 0 0 1 9,-3.11 v 0 c 2,-3.24 3.28,-9.42 3.43,-15.91 v 0 a 51.75,51.75 0 0 0 -9.01,2.82 z" id="path68" inkscape:connector-curvature="0" style="fill:#ffffff" />
   <path class="cls-2" d="m 126.6,168.34 -0.6,0.2 c -0.49,0.17 -1,0.35 -1.42,0.54 a 31.6,31.6 0 0 0 -3.81,1.75 15.5,15.5 0 0 0 -3.85,2.78 4.72,4.72 0 0 0 -0.37,0.41 l -0.06,0.08 a 14.47,14.47 0 0 1 0,9.06 4.47,4.47 0 0 0 0.29,0.35 c 0.1,0.12 0.2,0.23 0.31,0.34 a 5.73,5.73 0 0 0 0.67,0.63 7.58,7.58 0 0 0 5.54,1.74 7.37,7.37 0 0 0 4.45,-2.08 5.16,5.16 0 0 0 0.5,-0.54 l 0.36,-0.48 a 11,11 0 0 0 1,-1.85 l 0.18,-0.41 c 0.29,-0.7 0.57,-1.48 0.82,-2.31 0.19,-0.63 0.36,-1.29 0.52,-2 0.12,-0.52 0.24,-1.05 0.34,-1.6 0.19,-1 0.36,-2.08 0.49,-3.19 l 0.12,-1.11 c 0,-0.3 0.06,-0.6 0.08,-0.9 q 0.1,-1.29 0.15,-2.61 c 0,-0.15 0,-0.3 0,-0.45 v 0 a 52.09,52.09 0 0 0 -5.71,1.65 z" id="path70" inkscape:connector-curvature="0" style="fill:#ffffff" />
   <path class="cls-2" d="m 124.56,146.8 -1.34,0.57 c -0.88,0.38 -1.7,0.78 -2.46,1.19 v 0 a 15.8,15.8 0 0 0 -3.83,2.78 4.72,4.72 0 0 0 -0.37,0.41 l -0.06,0.08 a 14.44,14.44 0 0 1 0,9 6.5,6.5 0 0 0 0.59,0.69 6.76,6.76 0 0 0 0.68,0.63 7.81,7.81 0 0 0 2.14,1.26 55.36,55.36 0 0 1 9,-3.11 v 0 c 1.91,-3.16 3.22,-9.14 3.41,-15.46 0,-0.15 0,-0.3 0,-0.45 v 0 a 55.52,55.52 0 0 0 -7.76,2.41 z" id="path72" inkscape:connector-curvature="0" style="fill:#ffffff" />
   <path class="cls-2" d="m 124.56,124.53 c -0.46,0.18 -0.91,0.37 -1.34,0.56 -0.88,0.38 -1.7,0.78 -2.46,1.19 v 0 a 15.8,15.8 0 0 0 -3.83,2.78 4.72,4.72 0 0 0 -0.37,0.41 0.47,0.47 0 0 0 -0.06,0.09 14.41,14.41 0 0 1 0,9 6.5,6.5 0 0 0 0.59,0.69 6.76,6.76 0 0 0 0.68,0.63 c 0.17,0.14 0.35,0.27 0.52,0.39 a 9.06,9.06 0 0 0 1.07,0.63 c 0.19,0.09 0.37,0.17 0.56,0.24 v 0 a 55.25,55.25 0 0 1 9,-3.11 v 0 c 1.91,-3.17 3.21,-9.14 3.4,-15.46 0,-0.15 0,-0.29 0,-0.44 v 0 a 53,53 0 0 0 -7.76,2.4 z" id="path74" inkscape:connector-curvature="0" style="fill:#ffffff" />
   <path class="cls-2" d="m 120.75,104 v 0 a 17,17 0 0 0 -3.41,2.37 5.28,5.28 0 0 0 -0.41,0.41 2.79,2.79 0 0 0 -0.37,0.4 0.47,0.47 0 0 0 -0.06,0.09 14.44,14.44 0 0 1 0,9 c 0,0.06 0.09,0.12 0.14,0.17 l 0.15,0.18 c 0.1,0.12 0.2,0.23 0.31,0.34 a 5.73,5.73 0 0 0 0.67,0.63 7.81,7.81 0 0 0 2.14,1.26 v 0 a 54.32,54.32 0 0 1 9,-3.11 v 0 c 1.91,-3.16 3.22,-9.14 3.41,-15.46 0,-0.15 0,-0.3 0,-0.45 v 0 A 46.39,46.39 0 0 0 120.75,104 Z" id="path76" inkscape:connector-curvature="0" style="fill:#ffffff" />
   <path class="cls-2" d="m 120.71,81.75 a 16.67,16.67 0 0 0 -3.39,2.35 l -0.4,0.4 a 4.72,4.72 0 0 0 -0.37,0.41 0.47,0.47 0 0 0 -0.06,0.09 14.44,14.44 0 0 1 0,9 c 0,0.06 0.09,0.12 0.14,0.17 l 0.15,0.18 c 0.1,0.12 0.2,0.23 0.31,0.34 a 5.73,5.73 0 0 0 0.67,0.63 7.81,7.81 0 0 0 2.14,1.26 v 0 a 54.29,54.29 0 0 1 9,-3.1 v 0 c 1.91,-3.16 3.22,-9.14 3.41,-15.46 0,-0.15 0,-0.3 0,-0.45 v 0 a 46.41,46.41 0 0 0 -11.6,4.18 z" id="path78" inkscape:connector-curvature="0" style="fill:#ffffff" />
   <path class="cls-2" d="m 124.56,57.7 c -0.46,0.18 -0.91,0.37 -1.34,0.56 -0.88,0.38 -1.7,0.78 -2.46,1.19 v 0 a 15.54,15.54 0 0 0 -3.83,2.78 4.72,4.72 0 0 0 -0.37,0.41 l -0.06,0.08 a 14.44,14.44 0 0 1 0,9 6.5,6.5 0 0 0 0.59,0.69 6.76,6.76 0 0 0 0.68,0.63 7.5,7.5 0 0 0 2.16,1.26 54,54 0 0 1 9,-3.09 v 0 A 20.19,20.19 0 0 0 131,65.7 c 0.15,-0.65 0.3,-1.32 0.44,-2 a 49.63,49.63 0 0 0 0.86,-7.9 c 0,-0.15 0,-0.31 0,-0.46 v 0 a 54.19,54.19 0 0 0 -7.74,2.36 z" id="path80" inkscape:connector-curvature="0" style="fill:#ffffff" />
   <path class="cls-2" d="m 146.75,179.21 a 0.26,0.26 0 0 0 0,-0.08 c 0,-0.12 -0.1,-0.25 -0.15,-0.37 a 3.39,3.39 0 0 0 -0.18,-0.39 c -0.06,-0.13 -0.13,-0.26 -0.2,-0.39 l -0.23,-0.41 a 12.58,12.58 0 0 0 -0.74,-1.11 c -0.27,-0.38 -0.58,-0.76 -0.91,-1.15 -0.16,-0.2 -0.33,-0.39 -0.51,-0.59 -0.18,-0.2 -0.3,-0.32 -0.45,-0.48 l -0.47,-0.49 c -0.54,-0.55 -1.13,-1.11 -1.76,-1.66 l -0.9,-0.78 c -0.35,-0.3 -0.72,-0.59 -1.09,-0.89 -0.52,6.29 -2,12.63 -4.78,16.66 l 0.25,0.23 a 4.63,4.63 0 0 0 0.42,0.32 l 0.09,0.07 a 1.9,1.9 0 0 0 0.33,0.22 2.39,2.39 0 0 0 0.34,0.21 5.28,5.28 0 0 0 0.53,0.27 l 0.37,0.16 a 7.66,7.66 0 0 0 0.77,0.25 c 0.26,0.07 0.52,0.12 0.78,0.17 v 0 a 6.83,6.83 0 0 0 1.19,0.1 7.7,7.7 0 0 0 1.35,-0.12 7.94,7.94 0 0 0 1.33,-0.36 8,8 0 0 0 1.61,-0.79 c 0.2,-0.13 0.4,-0.27 0.59,-0.42 a 7.17,7.17 0 0 0 1.32,-1.32 3.16,3.16 0 0 0 0.28,-0.39 2.11,2.11 0 0 0 0.18,-0.27 3.38,3.38 0 0 0 0.24,-0.41 c 0.07,-0.14 0.14,-0.28 0.2,-0.43 a 4.73,4.73 0 0 0 0.25,-0.62 c 0.05,-0.14 0.09,-0.28 0.13,-0.42 a 6.25,6.25 0 0 0 0.18,-0.86 c 0,-0.15 0,-0.29 0,-0.44 a 7,7 0 0 0 -0.18,-2.31 5.79,5.79 0 0 0 -0.18,-0.71 z" id="path82" inkscape:connector-curvature="0" style="fill:#ffffff" />
   <path class="cls-2" d="m 151.73,166.38 a 7.21,7.21 0 0 0 2.64,-7.46 5.79,5.79 0 0 0 -0.21,-0.71 c 0,0 0,0 0,0 v 0 a 5.32,5.32 0 0 0 -0.21,-0.5 l -0.28,-0.57 c -0.1,-0.19 -0.21,-0.39 -0.34,-0.59 A 3.59,3.59 0 0 0 153,156 a 5.72,5.72 0 0 0 -0.39,-0.56 c -0.13,-0.19 -0.27,-0.38 -0.43,-0.58 l -0.44,-0.54 q -0.26,-0.32 -0.54,-0.63 a 47.11,47.11 0 0 0 -9.54,-7.73 c -0.05,0.14 -0.09,0.27 -0.13,0.42 -0.04,0.15 -0.18,0.56 -0.26,0.84 -0.25,0.85 -0.49,1.69 -0.68,2.52 -0.07,0.28 -0.14,0.55 -0.2,0.83 -0.06,0.28 -0.13,0.55 -0.18,0.82 -0.05,0.27 -0.12,0.54 -0.17,0.81 -0.15,0.77 -0.28,1.53 -0.38,2.27 a 0.69,0.69 0 0 0 0,0.2 c 0,0.23 -0.06,0.46 -0.08,0.68 -0.07,0.51 -0.12,1 -0.15,1.48 a 21.87,21.87 0 0 0 0.07,4.56 c 0,0.24 0.07,0.48 0.12,0.71 v 0 l 1,0.68 q 1,0.69 1.95,1.41 l 1,0.74 1.39,1.14 c 0.45,0.38 0.89,0.78 1.33,1.17 0.29,0.26 0.57,0.53 0.85,0.8 a 8.2,8.2 0 0 0 4,-1.27 6.27,6.27 0 0 0 0.59,-0.39 z" id="path84" inkscape:connector-curvature="0" style="fill:#ffffff" />
   <path class="cls-2" d="m 147,141.12 v 0 c 0.45,0.3 0.9,0.61 1.34,0.93 0.44,0.32 0.89,0.64 1.33,1 0.44,0.36 0.81,0.61 1.21,0.93 l 0.16,0.12 0.22,0.19 c 0.33,0.26 0.65,0.53 1,0.8 0.35,0.27 0.91,0.78 1.34,1.18 l 0.39,0.36 v 0 l 0.47,0.44 a 5.85,5.85 0 0 0 0.72,-0.07 v 0 a 2.32,2.32 0 0 0 0.46,-0.07 7.75,7.75 0 0 0 1.23,-0.34 7.64,7.64 0 0 0 0.83,-0.35 7.22,7.22 0 0 0 0.77,-0.43 3.62,3.62 0 0 0 0.32,-0.22 l 0.28,-0.19 a 7.24,7.24 0 0 0 2.64,-7.48 c 0,-0.06 0,-0.11 0,-0.17 0,-0.06 0,-0.06 0,-0.09 0,-0.03 -0.09,-0.28 -0.14,-0.42 v -0.08 a 14.4,14.4 0 0 0 -2.91,-4.41 l -0.44,-0.48 -0.47,-0.48 c -0.24,-0.25 -0.49,-0.49 -0.75,-0.73 l -0.25,-0.24 -0.53,-0.49 v 0 l -0.12,-0.11 -0.68,-0.58 c -0.57,-0.49 -1.17,-1 -1.81,-1.47 -0.31,-0.25 -0.64,-0.5 -1,-0.73 -0.36,-0.23 -0.66,-0.49 -1,-0.72 l -1,-0.71 -0.7,-0.46 c -0.24,-0.17 -0.48,-0.32 -0.72,-0.47 v 0 l -0.06,0.21 -0.06,0.21 c -0.14,0.45 -0.28,0.9 -0.41,1.35 -0.13,0.45 -0.25,0.9 -0.37,1.35 -0.06,0.22 -0.12,0.44 -0.17,0.66 -0.05,0.22 -0.17,0.68 -0.24,1 -0.07,0.32 -0.19,0.86 -0.28,1.29 -0.09,0.43 -0.15,0.78 -0.21,1.16 -0.06,0.38 -0.09,0.56 -0.13,0.83 -0.15,0.92 -0.25,1.82 -0.32,2.67 0,0.28 0,0.56 0,0.83 v 0.59 a 22.08,22.08 0 0 0 0.06,2.48 12.62,12.62 0 0 0 0,1.41 z" id="path86" inkscape:connector-curvature="0" style="fill:#ffffff" />
   <path class="cls-2" d="m 155.94,121.14 c 0.49,0.35 1,0.71 1.45,1.07 0.45,0.36 1,0.73 1.42,1.11 0.42,0.38 0.92,0.76 1.37,1.15 0.3,0.26 0.6,0.52 0.89,0.79 0.29,0.27 0.57,0.53 0.85,0.8 0.2,0 0.4,0 0.6,0 h 0.09 l 0.42,-0.06 h 0.08 0.07 l 0.41,-0.09 v 0 l 0.29,-0.08 a 4.11,4.11 0 0 0 0.46,-0.15 6.89,6.89 0 0 0 0.83,-0.35 7.3,7.3 0 0 0 0.77,-0.44 l 0.59,-0.41 a 7.52,7.52 0 0 0 1.21,-1.18 7.63,7.63 0 0 0 0.49,-0.67 l 0.22,-0.36 a 3,3 0 0 0 0.16,-0.31 1.73,1.73 0 0 0 0.14,-0.31 4.73,4.73 0 0 0 0.25,-0.62 c 0.05,-0.14 0.09,-0.28 0.13,-0.42 a 3.2,3.2 0 0 0 0.1,-0.42 3.11,3.11 0 0 0 0.08,-0.44 3.15,3.15 0 0 0 0,-0.43 7.05,7.05 0 0 0 -0.18,-2.32 6.36,6.36 0 0 0 -0.21,-0.71 c 0,0 0,0 0,-0.07 a 9.69,9.69 0 0 0 -0.88,-1.77 c -0.18,-0.29 -0.38,-0.59 -0.6,-0.89 -0.41,-0.57 -0.89,-1.15 -1.41,-1.74 v 0 c -0.25,-0.28 -0.52,-0.56 -0.79,-0.84 -0.27,-0.28 -0.4,-0.41 -0.61,-0.61 -0.67,-0.65 -1.41,-1.32 -2.19,-2 l -0.59,-0.49 c -0.31,-0.25 -0.62,-0.5 -0.94,-0.74 q -1.42,-1.11 -3,-2.16 l -0.7,-0.46 -0.72,-0.47 v 0 c -0.05,0.14 -0.09,0.27 -0.13,0.42 -0.04,0.15 -0.18,0.56 -0.25,0.84 -0.07,0.28 -0.17,0.55 -0.24,0.82 -0.07,0.27 -0.16,0.57 -0.24,0.86 v 0 c -0.3,1.11 -0.55,2.21 -0.76,3.29 v 0 c -0.11,0.54 -0.21,1.07 -0.28,1.6 0,0.26 -0.08,0.52 -0.11,0.78 -0.08,0.51 -0.14,1 -0.18,1.51 0,0.24 -0.05,0.48 -0.07,0.72 v 0 a 19.1,19.1 0 0 0 0.2,5.26 c 0.57,0.3 1.02,0.64 1.51,0.99 z" id="path88" inkscape:connector-curvature="0" style="fill:#ffffff" />
   <path class="cls-2" d="m 159.27,180.18 a 14.5,14.5 0 0 0 -5.05,1.6 l -0.07,0.06 v 0 a 14.72,14.72 0 0 1 -0.65,4 v 0 c -0.07,0.2 -0.13,0.41 -0.21,0.61 -0.08,0.2 -0.15,0.39 -0.23,0.59 -0.08,0.2 -0.17,0.4 -0.26,0.59 -0.09,0.19 -0.18,0.39 -0.28,0.58 l -0.31,0.57 c -0.11,0.18 -0.22,0.37 -0.34,0.55 l -0.36,0.54 -0.39,0.52 a 0.49,0.49 0 0 0 0,0.11 c 0,0.11 0.07,0.21 0.11,0.32 a 3.69,3.69 0 0 0 0.17,0.42 c 0,0 0,0 0,0.05 a 7.19,7.19 0 0 0 0.41,0.77 c 0.13,0.22 0.28,0.43 0.43,0.64 a 6.71,6.71 0 0 0 0.48,0.58 2.23,2.23 0 0 0 0.26,0.27 l 0.26,0.25 c 0,0 0,0 0,0 a 0.43,0.43 0 0 0 0.1,0.09 3.13,3.13 0 0 0 0.45,0.38 c 0.15,0.11 0.3,0.22 0.45,0.31 l 0.33,0.2 v 0 l 0.28,0.15 v 0 a 1.23,1.23 0 0 0 0.26,0.12 q 0.28,0.13 0.57,0.24 c 0.23,0.08 0.47,0.16 0.71,0.22 a 7.21,7.21 0 0 0 5.53,-0.83 7.51,7.51 0 0 0 0.88,-0.62 c 0.29,-0.24 0.6,-0.51 0.9,-0.81 l 0.46,-0.47 c 0.16,-0.16 0.31,-0.33 0.46,-0.51 l 0.46,-0.56 c 0.16,-0.19 0.32,-0.38 0.47,-0.59 l 0.11,-0.15 c 0.39,-0.51 0.77,-1.06 1.15,-1.65 q 0.28,-0.43 0.57,-0.9 c 0.2,-0.32 0.4,-0.66 0.6,-1 0.39,-0.69 0.78,-1.41 1.16,-2.16 0.75,-1.48 1.46,-3.07 2.1,-4.71 0.06,-0.14 0.12,-0.28 0.17,-0.42 v 0 a 46.16,46.16 0 0 0 -12.14,0.05 z" id="path90" inkscape:connector-curvature="0" style="fill:#ffffff" />
   <path class="cls-2" d="m 161.76,98.4 c 0,0.2 0.06,0.4 0.1,0.59 a 0.5,0.5 0 0 0 0,0.12 v 0 c 0.8,0.54 1.6,1.1 2.38,1.67 0.51,0.38 1,0.76 1.5,1.15 l 0.94,0.76 c 0.47,0.39 0.92,0.78 1.37,1.18 l 0.06,0.06 0.58,0.52 c 0.21,0.19 0.43,0.39 0.63,0.59 0.2,0 0.41,0 0.61,0 l 0.61,-0.09 c 0.2,0 0.41,-0.08 0.62,-0.14 0.21,-0.06 0.4,-0.12 0.61,-0.19 0.21,-0.07 0.56,-0.23 0.83,-0.36 a 8.35,8.35 0 0 0 0.77,-0.43 c 0.2,-0.13 0.4,-0.27 0.59,-0.42 a 7.52,7.52 0 0 0 1.21,-1.18 7.63,7.63 0 0 0 0.49,-0.67 l 0.22,-0.36 a 3,3 0 0 0 0.16,-0.31 1.73,1.73 0 0 0 0.14,-0.31 4.73,4.73 0 0 0 0.25,-0.62 c 0.05,-0.14 0.09,-0.28 0.13,-0.42 a 6.25,6.25 0 0 0 0.18,-0.86 3.15,3.15 0 0 0 0.05,-0.43 7.05,7.05 0 0 0 -0.18,-2.32 6.36,6.36 0 0 0 -0.21,-0.71 c 0,0 0,-0.05 0,-0.07 A 14.32,14.32 0 0 0 173.53,90.78 46.69,46.69 0 0 0 163.94,83 c -0.05,0.14 -0.09,0.29 -0.13,0.43 -0.04,0.14 -0.18,0.56 -0.26,0.84 -0.17,0.56 -0.33,1.12 -0.47,1.68 -0.3,1.12 -0.55,2.22 -0.76,3.3 0,0.24 -0.1,0.48 -0.13,0.71 v 0.18 c 0,0.24 -0.09,0.48 -0.12,0.71 -0.03,0.23 -0.09,0.52 -0.12,0.78 -0.03,0.26 -0.07,0.52 -0.09,0.77 -0.02,0.25 -0.06,0.5 -0.08,0.74 -0.02,0.24 -0.05,0.48 -0.07,0.72 v 0 a 21.59,21.59 0 0 0 0,3.77 q -0.01,0.37 0.05,0.77 z" id="path92" inkscape:connector-curvature="0" style="fill:#ffffff" />
   <path class="cls-2" d="m 178.79,159.13 c -1.06,-0.12 -2.1,-0.21 -3.13,-0.27 l -1.24,-0.06 h -0.79 q -1,0 -1.92,0 c -0.45,0 -0.9,0 -1.33,0 l -0.88,0.05 -0.77,0.06 -1.39,0.16 -0.67,0.1 v 0 l -0.38,0.07 -0.38,0.07 -0.73,0.16 v 0 c -0.47,0.11 -0.92,0.23 -1.34,0.37 a 9.85,9.85 0 0 0 -2.18,0.94 l -0.08,0.06 a 14.58,14.58 0 0 1 -0.24,2.29 v 0 c 0,0.28 -0.11,0.57 -0.18,0.84 -0.07,0.27 -0.11,0.42 -0.17,0.63 -0.12,0.41 -0.26,0.82 -0.42,1.22 -0.08,0.2 -0.16,0.39 -0.25,0.59 -0.09,0.2 -0.25,0.52 -0.38,0.78 -0.13,0.26 -0.42,0.75 -0.65,1.12 -0.23,0.37 -0.49,0.71 -0.75,1.05 a 7.25,7.25 0 0 0 0.76,1.66 c 0.08,0.14 0.18,0.27 0.27,0.4 a 0.83,0.83 0 0 0 0.08,0.12 l 0.22,0.3 v 0 0 l 0.19,0.24 v 0 l 0.31,0.33 a 5.77,5.77 0 0 0 0.44,0.42 c 0.69,-0.06 1.39,-0.1 2.09,-0.14 a 57.83,57.83 0 0 1 7.44,0.2 v 0 c 0.31,-0.26 0.62,-0.55 0.94,-0.87 a 15.79,15.79 0 0 0 1.24,-1.39 c 0.16,-0.18 0.31,-0.38 0.46,-0.58 0.4,-0.52 0.8,-1.09 1.2,-1.69 0.21,-0.31 0.42,-0.63 0.61,-1 0.19,-0.37 0.41,-0.67 0.61,-1 0.2,-0.33 0.39,-0.7 0.59,-1.06 0.2,-0.36 0.39,-0.72 0.58,-1.09 v 0 c 0.39,-0.75 0.76,-1.53 1.11,-2.33 0.17,-0.4 0.35,-0.8 0.52,-1.21 0.17,-0.41 0.34,-0.82 0.5,-1.23 0.06,-0.14 0.12,-0.28 0.17,-0.42 h -0.16 z" id="path94" inkscape:connector-curvature="0" style="fill:#ffffff" />
   <path class="cls-2" d="m 183,137.85 h -0.32 -0.89 -0.54 c -1.26,0 -2.48,0 -3.63,0 h -0.74 c 0,0 0,0 0,0 -0.49,0 -1,0.07 -1.42,0.13 -0.42,0.06 -0.92,0.11 -1.35,0.18 v 0 l -0.77,0.14 -0.6,0.12 h -0.19 l -0.63,0.16 c -0.45,0.12 -0.87,0.25 -1.27,0.4 -0.2,0.07 -0.38,0.15 -0.56,0.23 l -0.53,0.25 a 5.19,5.19 0 0 0 -0.47,0.25 h -0.05 v 0 0 c 0,0.19 0,0.38 0,0.58 0,0.38 -0.06,0.76 -0.12,1.14 l -0.09,0.57 q -0.08,0.42 -0.18,0.84 a 15.8,15.8 0 0 1 -0.56,1.77 c -0.08,0.19 -0.15,0.37 -0.24,0.56 v 0 l -0.11,0.24 c -0.1,0.21 -0.2,0.42 -0.31,0.63 -0.2,0.38 -0.42,0.75 -0.65,1.12 -0.23,0.37 -0.49,0.72 -0.75,1.06 a 3.12,3.12 0 0 0 0.15,0.43 5,5 0 0 0 0.21,0.48 1.15,1.15 0 0 0 0.12,0.25 4.91,4.91 0 0 0 0.28,0.5 7.73,7.73 0 0 0 1.61,1.91 v 0 a 55.1,55.1 0 0 1 9.52,0.07 l 0.54,-0.48 0.39,-0.38 c 0.1,-0.09 0.19,-0.19 0.29,-0.3 l 0.33,-0.36 a 3.9,3.9 0 0 0 0.33,-0.38 25.77,25.77 0 0 0 2,-2.69 c 0.17,-0.26 0.35,-0.53 0.51,-0.81 0.16,-0.28 0.37,-0.59 0.54,-0.89 0.17,-0.3 0.36,-0.62 0.53,-0.94 0.36,-0.63 0.7,-1.29 1,-2 0.17,-0.34 0.33,-0.68 0.49,-1 0.49,-1 1,-2.13 1.38,-3.23 a 1.67,1.67 0 0 0 0.08,-0.2 l 0.08,-0.21 -1.7,-0.17 z" id="path96" inkscape:connector-curvature="0" style="fill:#ffffff" />
   <path class="cls-2" d="m 184.17,63 a 3.4,3.4 0 0 0 0.45,0 h 0.36 0.17 0.06 l 0.33,-0.07 0.46,-0.11 a 6.36,6.36 0 0 0 0.62,-0.19 8.22,8.22 0 0 0 1.6,-0.79 6.85,6.85 0 0 0 0.59,-0.42 v 0 a 6.93,6.93 0 0 0 0.64,-0.56 6.39,6.39 0 0 0 0.5,-0.54 c 0.16,-0.19 0.3,-0.38 0.44,-0.58 a 5.69,5.69 0 0 0 0.33,-0.52 l 0.07,-0.14 a 6.14,6.14 0 0 0 0.54,-1.27 v -0.09 a 5.5,5.5 0 0 0 0.21,-1 4.1,4.1 0 0 0 0.06,-0.49 0.19,0.19 0 0 1 0,-0.08 c 0,-0.17 0,-0.34 0,-0.51 a 7.18,7.18 0 0 0 -0.14,-1.38 c 0,-0.12 0,-0.24 -0.07,-0.36 -0.07,-0.12 0,-0.12 -0.05,-0.18 a 1.21,1.21 0 0 0 0,-0.18 2,2 0 0 0 -0.11,-0.35 0.64,0.64 0 0 1 0,-0.07 l -0.16,-0.42 a 13,13 0 0 0 -1.83,-2.89 l -0.48,-0.58 a 20.6,20.6 0 0 0 -1.65,-1.78 l -0.83,-0.8 v 0 l -0.7,-0.63 c -0.24,-0.22 -0.48,-0.43 -0.73,-0.63 l -0.21,-0.18 c -0.31,-0.26 -0.62,-0.52 -0.95,-0.77 -0.33,-0.25 -0.81,-0.63 -1.23,-0.94 -0.42,-0.31 -0.56,-0.42 -0.85,-0.62 -0.29,-0.2 -0.57,-0.41 -0.87,-0.61 -0.3,-0.2 -0.59,-0.41 -0.9,-0.61 -0.31,-0.2 -0.69,-0.46 -1.05,-0.68 v 0 c -2,6.17 -2.83,12.44 -2.06,16.15 a 54.12,54.12 0 0 1 7.44,5.87 z" id="path98" inkscape:connector-curvature="0" style="fill:#ffffff" />
   <path class="cls-2" d="m 176.75,84 a 3.4,3.4 0 0 0 0.45,0 h 0.36 0.17 0.06 l 0.33,-0.07 0.46,-0.11 a 6.36,6.36 0 0 0 0.62,-0.19 8.22,8.22 0 0 0 1.6,-0.79 6.85,6.85 0 0 0 0.59,-0.42 v 0 a 6.93,6.93 0 0 0 0.64,-0.56 6.39,6.39 0 0 0 0.5,-0.54 c 0.16,-0.19 0.3,-0.38 0.44,-0.58 a 5.69,5.69 0 0 0 0.33,-0.52 l 0.07,-0.14 a 6.14,6.14 0 0 0 0.54,-1.27 v -0.09 a 5.5,5.5 0 0 0 0.21,-1 4.1,4.1 0 0 0 0.06,-0.49 0.19,0.19 0 0 1 0,-0.08 c 0,-0.17 0,-0.34 0,-0.51 a 7.18,7.18 0 0 0 -0.14,-1.38 c 0,-0.12 0,-0.24 -0.07,-0.36 -0.07,-0.12 0,-0.12 0,-0.18 a 1.21,1.21 0 0 0 -0.05,-0.18 2,2 0 0 0 -0.11,-0.35 0.64,0.64 0 0 1 0,-0.07 l -0.16,-0.42 a 13,13 0 0 0 -1.83,-2.89 l -0.48,-0.58 a 20.6,20.6 0 0 0 -1.65,-1.78 l -0.83,-0.8 v 0 l -0.7,-0.63 c -0.24,-0.22 -0.48,-0.43 -0.73,-0.63 l -0.21,-0.18 c -0.31,-0.26 -0.62,-0.52 -1,-0.77 -0.38,-0.25 -0.81,-0.63 -1.23,-0.94 -0.42,-0.31 -0.56,-0.42 -0.85,-0.62 -0.29,-0.2 -0.57,-0.41 -0.87,-0.61 -0.3,-0.2 -0.59,-0.41 -0.9,-0.61 -0.31,-0.2 -0.69,-0.46 -1,-0.68 v 0 c -2,6.17 -2.83,12.44 -2.06,16.15 a 54.12,54.12 0 0 1 7.44,5.87 z" id="path100" inkscape:connector-curvature="0" style="fill:#ffffff" />
   <path class="cls-2" d="m 188.93,116.77 c -1,0 -2.05,0 -3,0 -0.48,0 -1,0 -1.43,0.07 l -0.91,0.07 v 0 l -1.39,0.16 -0.68,0.1 v 0 a 14.45,14.45 0 0 0 -5,1.61 l -0.09,0.06 a 14.34,14.34 0 0 1 -0.83,4.51 c -0.13,0.36 -0.27,0.72 -0.43,1.06 -0.16,0.34 -0.33,0.7 -0.51,1 -0.18,0.3 -0.38,0.67 -0.59,1 -0.21,0.33 -0.43,0.64 -0.67,0.94 a 7.77,7.77 0 0 0 0.76,1.67 c 0.11,0.19 0.23,0.36 0.35,0.53 a 6.86,6.86 0 0 0 0.81,0.95 1.39,1.39 0 0 0 0.21,0.21 l 0.22,0.21 v 0 a 54.1,54.1 0 0 1 9.52,0.06 12.43,12.43 0 0 0 1.09,-1 5.16,5.16 0 0 0 0.39,-0.41 3.9,3.9 0 0 0 0.33,-0.38 l 0.06,-0.06 c 0.15,-0.18 0.31,-0.37 0.46,-0.57 0.29,-0.35 0.56,-0.71 0.83,-1.1 0.16,-0.21 0.31,-0.43 0.47,-0.66 l 0.36,-0.55 c 0.14,-0.21 0.27,-0.43 0.41,-0.65 0.72,-1.16 1.43,-2.44 2.1,-3.79 0.34,-0.68 0.66,-1.37 1,-2.08 0.34,-0.71 0.61,-1.44 0.9,-2.18 0.06,-0.14 0.12,-0.28 0.17,-0.42 -1.1,-0.13 -2.19,-0.23 -3.26,-0.29 -0.58,-0.03 -1.13,-0.06 -1.65,-0.07 z" id="path102" inkscape:connector-curvature="0" style="fill:#ffffff" />
   <path class="cls-2" d="m 193.94,95.75 c -0.47,0 -0.94,0 -1.39,0 h -0.11 -0.78 l -0.8,0.07 -1.24,0.14 -0.75,0.11 a 14.21,14.21 0 0 0 -5,1.6 l -0.08,0.06 a 14.34,14.34 0 0 1 -0.83,4.51 c -0.13,0.36 -0.27,0.71 -0.43,1.06 -0.16,0.35 -0.33,0.7 -0.51,1 -0.18,0.3 -0.38,0.67 -0.59,1 -0.21,0.33 -0.43,0.63 -0.67,0.94 a 8.71,8.71 0 0 0 0.32,0.85 5.85,5.85 0 0 0 0.43,0.82 c 0.11,0.18 0.23,0.36 0.35,0.53 v 0 a 7.34,7.34 0 0 0 0.8,0.94 5.77,5.77 0 0 0 0.44,0.42 v 0 l 1.1,-0.08 q 0.72,0 1.44,-0.06 a 2.54,2.54 0 0 1 0.39,0 h 1.43 c 1.72,0 3.45,0.1 5.16,0.25 v 0 a 22.15,22.15 0 0 0 4.39,-5.39 c 0.72,-1.17 1.43,-2.45 2.1,-3.8 0.34,-0.68 0.66,-1.37 1,-2.09 0.34,-0.72 0.61,-1.43 0.9,-2.17 0.06,-0.14 0.12,-0.26 0.17,-0.41 v 0 c -1.65,-0.19 -3.27,-0.31 -4.83,-0.36 -0.81,0.05 -1.62,0.04 -2.41,0.06 z" id="path104" inkscape:connector-curvature="0" style="fill:#ffffff" />
   <path class="cls-2" d="m 192.6,43.05 c 0.32,0.36 0.67,0.8 1,1.28 0.65,0.88 1.33,1.88 1.91,2.71 l 0.45,0.64 c 0.09,0.13 0.18,0.26 0.27,0.37 l 0.2,0.28 0.13,0.16 a 2.18,2.18 0 0 0 0.17,0.21 l 0.07,0.07 a 0.48,0.48 0 0 0 0.11,0.08 h 0.21 0.13 0.23 0.15 0.17 l 0.8,-0.22 0.44,-0.14 0.26,-0.07 0.33,-0.1 h 0.18 l 0.79,-0.23 0.55,-0.15 0.81,-0.22 0.27,-0.07 0.52,-0.13 0.5,-0.11 c 0.24,0 0.47,-0.1 0.68,-0.13 h 0.24 0.22 l 0.38,-0.32 0.36,-0.35 c 0.16,-0.16 0.31,-0.34 0.46,-0.52 l 0.08,-0.1 c 0.13,-0.18 0.27,-0.38 0.39,-0.58 a 5.07,5.07 0 0 0 0.35,-0.65 v 0 c 0,0 0,0 0,-0.07 l 0.09,-0.2 A 4.19,4.19 0 0 0 206.7,44 c 1.21,-3.45 0.39,-10.42 -1.89,-17.26 v 0 c -0.39,0.25 -0.78,0.5 -1.15,0.76 0,0 0,0 0,0 -1.14,0.76 -2.22,1.55 -3.24,2.35 -0.34,0.27 -0.67,0.53 -1,0.8 -0.33,0.27 -0.64,0.53 -0.94,0.8 -0.3,0.27 -0.6,0.53 -0.89,0.8 l -0.64,0.6 c -0.34,0.33 -0.67,0.66 -1,1 -0.33,0.34 -0.49,0.53 -0.71,0.79 -0.22,0.26 -0.45,0.52 -0.65,0.77 l -0.3,0.38 c -0.2,0.25 -0.38,0.5 -0.55,0.75 -0.17,0.25 -0.33,0.49 -0.47,0.72 -0.14,0.23 -0.27,0.48 -0.39,0.71 -0.12,0.23 -0.12,0.23 -0.17,0.34 -0.05,0.11 -0.19,0.45 -0.27,0.67 a 7.19,7.19 0 0 0 -0.24,4 z" id="path106" inkscape:connector-curvature="0" style="fill:#ffffff" />
   <path class="cls-2" d="m 196.34,75.15 v 0 a 14.37,14.37 0 0 0 -5,1.61 v 0 0 c 0,0.25 0,0.5 0,0.75 0,0.25 -0.06,0.65 -0.11,1 -0.05,0.35 -0.13,0.76 -0.21,1.13 l -0.14,0.56 c -0.08,0.28 -0.16,0.55 -0.25,0.82 a 14.12,14.12 0 0 1 -0.52,1.33 l -0.17,0.36 c -0.11,0.23 -0.22,0.45 -0.34,0.67 -0.12,0.22 -0.19,0.34 -0.29,0.5 -0.2,0.33 -0.41,0.65 -0.63,1 l -0.35,0.46 A 7.13,7.13 0 0 0 189,87 c 0.11,0.19 0.23,0.36 0.35,0.53 v 0 c 0.12,0.18 0.25,0.33 0.38,0.49 a 4.68,4.68 0 0 0 0.43,0.46 l 0.11,0.11 0.34,0.31 1,-0.08 h 1 c 1.13,-0.05 2.28,-0.06 3.43,0 v 0 c 0.89,0 1.78,0.07 2.66,0.12 l 1.33,0.11 v 0 a 14.23,14.23 0 0 0 1.45,-1.39 l 0.32,-0.37 a 25,25 0 0 0 2.08,-2.77 c 0.19,-0.27 0.37,-0.56 0.55,-0.85 l 0.54,-0.89 c 0.36,-0.61 0.71,-1.24 1.05,-1.9 0.18,-0.33 0.35,-0.66 0.51,-1 0.16,-0.34 0.34,-0.68 0.5,-1 q 0.74,-1.57 1.38,-3.24 c 0.06,-0.13 0.12,-0.28 0.17,-0.42 v 0 a 46.75,46.75 0 0 0 -12.24,-0.07 z" id="path108" inkscape:connector-curvature="0" style="fill:#ffffff" />
   <path class="cls-2" d="m 216,54.11 a 46.75,46.75 0 0 0 -12.27,0 v 0 a 14.38,14.38 0 0 0 -5,1.61 v 0 0 c 0,0.25 0,0.5 0,0.75 0,0.25 -0.05,0.65 -0.1,1 -0.05,0.35 -0.13,0.76 -0.21,1.13 a 5.73,5.73 0 0 0 -0.14,0.56 c -0.09,0.28 -0.17,0.55 -0.25,0.82 -0.15,0.46 -0.34,0.9 -0.52,1.33 -0.07,0.12 -0.11,0.24 -0.17,0.36 -0.06,0.12 -0.23,0.45 -0.34,0.67 -0.11,0.22 -0.19,0.34 -0.29,0.5 -0.2,0.33 -0.41,0.65 -0.64,1 -0.11,0.15 -0.22,0.31 -0.34,0.46 a 7.09,7.09 0 0 0 0.75,1.67 c 0.12,0.19 0.24,0.36 0.36,0.53 0.12,0.18 0.25,0.33 0.38,0.49 a 6.2,6.2 0 0 0 0.42,0.46 l 0.12,0.11 0.34,0.31 1,-0.08 h 1 c 1.13,0 2.28,-0.06 3.43,0 v 0 q 1.35,0 2.67,0.12 l 1.33,0.11 v 0 a 15.35,15.35 0 0 0 1.45,-1.39 c 0.09,-0.12 0.21,-0.24 0.32,-0.37 a 26.28,26.28 0 0 0 2.08,-2.77 c 0.19,-0.27 0.36,-0.56 0.55,-0.85 0.19,-0.29 0.35,-0.59 0.54,-0.89 0.35,-0.61 0.71,-1.24 1,-1.9 0.18,-0.33 0.34,-0.66 0.51,-1 0.17,-0.34 0.33,-0.68 0.5,-1 0.49,-1.05 0.95,-2.13 1.37,-3.24 a 2.17,2.17 0 0 0 0.17,-0.42 z" id="path110" inkscape:connector-curvature="0" style="fill:#ffffff" />
</svg>
