<?xml version="1.0" encoding="UTF-8" standalone="no"?>
<svg xmlns:dc="http://purl.org/dc/elements/1.1/"
   xmlns:cc="http://creativecommons.org/ns#"
   xmlns:rdf="http://www.w3.org/1999/02/22-rdf-syntax-ns#"
   xmlns:svg="http://www.w3.org/2000/svg"
   xmlns="http://www.w3.org/2000/svg"
   xmlns:sodipodi="http://sodipodi.sourceforge.net/DTD/sodipodi-0.dtd"
   xmlns:inkscape="http://www.inkscape.org/namespaces/inkscape" id="Capa_1" data-name="Capa 1" viewBox="0 0 227.13892 141.70656" version="1.1" inkscape:version="0.92.5 (2060ec1f9f, 2020-04-08)">
   <metadata id="metadata103">
      <rdf:RDF>
         <cc:Work rdf:about="">
            <dc:format>image/svg+xml</dc:format>
            <dc:type rdf:resource="http://purl.org/dc/dcmitype/StillImage" />
         </cc:Work>
      </rdf:RDF>
   </metadata>
   <sodipodi:namedview pagecolor="#ffffff" bordercolor="#666666" borderopacity="1" objecttolerance="10" gridtolerance="10" guidetolerance="10" inkscape:pageopacity="0" inkscape:pageshadow="2" inkscape:window-width="855" inkscape:window-height="480" id="namedview101" showgrid="false" inkscape:zoom="0.86572528" inkscape:cx="113.21801" inkscape:cy="61.245102" inkscape:window-x="0" inkscape:window-y="27" inkscape:window-maximized="0" inkscape:current-layer="Capa_1" />
   <defs id="defs4">
      <style id="style2">.cls-1{fill:#1d1d1b;}.cls-2{fill:#fff;}.cls-3{fill:none;}</style>
   </defs>
   <path class="cls-2" d="m 227.13892,105.01656 v 0.27 c -0.23,5.91 -2.07,20.6 -14.31,29.35 -10.54,7.53 -25.54,8.45 -44.57,2.73 l -2.67,-0.81 c -11.13,-3.38 -12.56,-3.82 -26.56,0.78 -8.84,2.91 -16.8,4.37 -23.83,4.37 -8.17,0 -15.1,-2 -20.710003,-5.89 -12.4,-8.66 -14.22,-24.25 -14.43,-30.55 v -0.25 c 0.21,-6.299996 2,-21.889996 14.43,-30.549996 10.440003,-7.3 25.430003,-7.81 44.540003,-1.53 14,4.61 15.43,4.17 26.56,0.78 l 2.66,-0.8 v 0 c 19,-5.72 34,-4.8 44.57,2.73 12.25,8.76 14.09,23.45 14.32,29.369996 z" id="path28" inkscape:connector-curvature="0" style="fill:#ffffff" />
   <path class="cls-1" d="m 196.11892,81.696564 h -20 a 23.45,23.45 0 0 0 -22.48,16.84 23.49,23.49 0 0 0 -22.5,-16.84 h -20 a 23.45,23.45 0 0 0 0,46.889996 h 20 a 23.48,23.48 0 0 0 22.5,-16.85 23.44,23.44 0 0 0 22.48,16.85 h 20 a 23.45,23.45 0 0 0 0,-46.889996 z m -65,39.889996 h -20 a 16.45,16.45 0 0 1 0,-32.889996 h 20 a 16.45,16.45 0 1 1 0,32.889996 z m 65,0 h -20 a 16.45,16.45 0 0 1 0,-32.889996 h 20 a 16.45,16.45 0 0 1 0,32.889996 z" id="path30" inkscape:connector-curvature="0" style="fill:#1d1d1b" />
   <path class="cls-1" d="m 212.82892,75.656564 c -10.54,-7.53 -25.53,-8.45 -44.57,-2.73 v 0 l -2.66,0.8 c -11.14,3.39 -12.6,3.83 -26.6,-0.78 -19.11,-6.28 -34.1,-5.77 -44.540003,1.53 -12.37,8.66 -14.19,24.25 -14.4,30.539996 v 0.23 c 0.21,6.3 2,21.89 14.43,30.55 5.610003,3.92 12.540003,5.89 20.710003,5.89 7,0 15,-1.46 23.83,-4.37 14,-4.6 15.43,-4.16 26.56,-0.78 l 2.67,0.81 c 19,5.72 34,4.8 44.57,-2.73 12.24,-8.75 14.08,-23.44 14.31,-29.35 v -0.25 c -0.23,-5.919996 -2.07,-20.609996 -14.31,-29.359996 z m -4.07,53.269996 c -8.69,6.21 -21.64,6.79 -38.49,1.73 l -2.64,-0.8 c -12.11,-3.69 -15.22,-4.29 -30.78,0.82 -16.91,5.57 -29.81,5.36 -38.350003,-0.61 -9.74,-6.8 -11.25,-19.61 -11.44,-24.93 0.19,-5.319996 1.7,-18.119996 11.44,-24.929996 8.540003,-6 21.440003,-6.17 38.350003,-0.61 15.56,5.12 18.67,4.52 30.78,0.83 l 2.64,-0.8 c 16.86,-5.06 29.8,-4.48 38.49,1.72 9.63,6.89 11.17,18.829996 11.38,23.789996 -0.21,4.96 -1.75,16.88 -11.38,23.79 z" id="path32" inkscape:connector-curvature="0" style="fill:#1d1d1b" />
   <path class="cls-2" d="m 84.358917,10.016564 -2.19,3.89 a 78.63,78.63 0 0 0 -8.54,-3.89 c 1.17,-1.0999998 2.14,-1.9199998 2.79,-2.4399998 a 40.66,40.66 0 0 1 7.94,2.4399998 z" id="path34" inkscape:connector-curvature="0" style="fill:#ffffff" />
   <path class="cls-2" d="m 96.668917,19.016564 c -0.12,0.88 -0.33,2.25 -0.71,4 a 93.73,93.73 0 0 0 -7.73,-5.53 l 2.24,-4 a 40.53,40.53 0 0 1 6.2,5.53 z" id="path36" inkscape:connector-curvature="0" style="fill:#ffffff" />
   <path class="cls-2" d="m 48.548917,65.736564 c 0,0 0,0 0,0 a 0.47,0.47 0 0 0 -0.05,0.1 v 0 a 0.64,0.64 0 0 0 0.05,-0.1 z" id="path38" inkscape:connector-curvature="0" style="fill:#ffffff" />
   <path class="cls-2" d="m 37.388917,55.636564 a 75.85,75.85 0 0 0 3.48,-13.25 q 0.38,-1.9 0.81,-3.72 c 2.78,2.35 5.57,4.57 8.32,6.58 a 20.65,20.65 0 0 1 -1.71,4.55 c -1.21,2.3 -2,4.06 -2.79,5.91 -0.47,1.07 -1,2.22 -1.62,3.59" id="path40" inkscape:connector-curvature="0" style="fill:#ffffff" />
   <path class="cls-2" d="m 60.608917,52.256564 -7,12.49 -3.56,-2 c 0.78,-1.64 1.36,-3 1.9,-4.21 0.8,-1.82 1.5,-3.39 2.59,-5.49 a 25.65,25.65 0 0 0 1.56,-3.62 c 1.5,0.99 3.02,1.94 4.51,2.83 z" id="path42" inkscape:connector-curvature="0" style="fill:#ffffff" />
   <path class="cls-2" d="m 71.458917,58.116564 a 27.7,27.7 0 0 0 -2.25,3.19 c -2,3.35 -3,5.09 -4.9,8.57 -0.12,0.22 -0.25,0.45 -0.37,0.69 l -4.25,-2.39 7,-12.48 c 1.65,0.88 3.24,1.68 4.77,2.42 z" id="path44" inkscape:connector-curvature="0" style="fill:#ffffff" />
   <path class="cls-2" d="m 53.428917,28.086564 a 51,51 0 0 0 -2.33,9.2 q -3.68,-2.81 -7.32,-6.09 a 60,60 0 0 1 2.8,-7 z" id="path46" inkscape:connector-curvature="0" style="fill:#ffffff" />
   <path class="cls-2" d="m 61.068917,13.676564 a 57.88,57.88 0 0 0 -4.87,7.94 l -6.1,-3.44 a 29.63,29.63 0 0 1 4.83,-5.41 55,55 0 0 1 6.14,0.91 z" id="path48" inkscape:connector-curvature="0" style="fill:#ffffff" />
   <path class="cls-2" d="m 69.208917,37.016564 -5.15,9.1 c -2.12,-1.27 -4.29,-2.64 -6.48,-4.14 a 44.31,44.31 0 0 1 2.08,-10.38 z" id="path50" inkscape:connector-curvature="0" style="fill:#ffffff" />
   <path class="cls-2" d="m 78.698917,20.096564 -6.06,10.77 -10.28,-5.79 a 52.31,52.31 0 0 1 5.64,-8.82 l 0.47,-0.59 a 68.18,68.18 0 0 1 10.23,4.43 z" id="path52" inkscape:connector-curvature="0" style="fill:#ffffff" />
   <path class="cls-2" d="m 84.868917,45.776564 a 44.92,44.92 0 0 1 -7.82,7.24 c -2.17,-1 -4.48,-2.13 -6.89,-3.41 l 5.16,-9.15 z" id="path54" inkscape:connector-curvature="0" style="fill:#ffffff" />
   <path class="cls-2" d="m 93.788917,30.366564 a 52.49,52.49 0 0 1 -4.79,9.73 l -10.25,-5.79 6,-10.66 a 85.34,85.34 0 0 1 9.04,6.72 z" id="path56" inkscape:connector-curvature="0" style="fill:#ffffff" />
   <path class="cls-2" d="m 14.648917,95.466564 a 57.51,57.51 0 0 0 -4.15,7.999996 q -1.6799998,-1.92 -3.2099998,-4.069996 a 31.14,31.14 0 0 1 1.94,-7 z" id="path58" inkscape:connector-curvature="0" style="fill:#ffffff" />
   <path class="cls-2" d="m 25.388917,82.956564 a 53.61,53.61 0 0 0 -6.65,6.78 l -6.35,-3.57 a 59.43,59.43 0 0 1 4.35,-6.15 c 3,0.87 5.88,1.87 8.65,2.94 z" id="path60" inkscape:connector-curvature="0" style="fill:#ffffff" />
   <path class="cls-2" d="m 40.668917,65.516564 a 32.2,32.2 0 0 1 -3.11,4.5 34.1,34.1 0 0 0 -2.92,4.09 20.29,20.29 0 0 1 -3,3.83 q -4.68,-2 -9.84,-3.67 c 0.86,-0.9 1.77,-1.81 2.71,-2.72 l 2,-1.91 a 70,70 0 0 0 7.49,-7.9 z" id="path62" inkscape:connector-curvature="0" style="fill:#ffffff" />
   <path class="cls-2" d="m 39.668917,89.466564 -5.15,9.15 -9.52,-5.37 a 44.42,44.42 0 0 1 7.81,-7.18 c 2.38,1.1 4.68,2.24 6.86,3.4 z" id="path64" inkscape:connector-curvature="0" style="fill:#ffffff" />
   <path class="cls-2" d="m 50.148917,70.846564 -7,12.48 c -1.53,-0.81 -3.13,-1.61 -4.78,-2.4 a 27.17,27.17 0 0 0 2.29,-3.22 27.47,27.47 0 0 1 2.34,-3.33 40.13,40.13 0 0 0 3.78,-5.42 z" id="path66" inkscape:connector-curvature="0" style="fill:#ffffff" />
   <path class="cls-2" d="m 52.258917,97.016564 a 44.14,44.14 0 0 1 -2.09,10.419996 l -9.55,-5.42 5.16,-9.149996 c 2.34,1.42 4.51,2.8 6.48,4.15 z" id="path68" inkscape:connector-curvature="0" style="fill:#ffffff" />
   <path class="cls-2" d="m 65.798917,107.53656 a 61.84,61.84 0 0 1 -3,7 l -6.36,-3.58 a 50.78,50.78 0 0 0 2.35,-9.26 c 3.43,2.62 5.83,4.75 7.01,5.84 z" id="path70" inkscape:connector-curvature="0" style="fill:#ffffff" />
   <path class="cls-2" d="m 21.558917,121.65656 -2.17,3.86 a 36.9,36.9 0 0 1 -6.17,-5.84 c 0.11,-0.82 0.3,-2 0.6,-3.37 a 71.59,71.59 0 0 0 7.74,5.35 z" id="path72" inkscape:connector-curvature="0" style="fill:#ffffff" />
   <path class="cls-2" d="m 31.088917,104.71656 -6.09,10.79 a 63.54,63.54 0 0 1 -9.08,-6.58 53,53 0 0 1 4.86,-9.999996 z" id="path74" inkscape:connector-curvature="0" style="fill:#ffffff" />
   <path class="cls-2" d="m 36.568917,128.62656 c -1.17,1.13 -2.17,2 -2.88,2.56 v 0 a 36.36,36.36 0 0 1 -8.19,-2.24 l 2.24,-4 a 84.15,84.15 0 0 0 8.83,3.68 z" id="path76" inkscape:connector-curvature="0" style="fill:#ffffff" />
   <path class="cls-2" d="m 47.478917,113.93656 a 52.31,52.31 0 0 1 -5.6,8.82 l -0.11,0.14 a 81.09,81.09 0 0 1 -10.57,-4.1 l 6,-10.65 z" id="path78" inkscape:connector-curvature="0" style="fill:#ffffff" />
   <path class="cls-2" d="m 59.048917,120.44656 a 30.67,30.67 0 0 1 -4.89,5.23 c -0.82,-0.1 -2.6,-0.35 -5,-0.86 a 57.87,57.87 0 0 0 4.5,-7.42 z" id="path80" inkscape:connector-curvature="0" style="fill:#ffffff" />
   <path class="cls-2" d="m 60.518917,76.676564 c -1,1.75 -1.67,2.92 -2.19,3.83 -1.16,2 -1.59,2.76 -3,5.47 a 26.27,26.27 0 0 0 -1.54,3.58 v 0 c -1.43,-0.92 -3,-1.86 -4.54,-2.8 l 7,-12.48 z" id="path82" inkscape:connector-curvature="0" style="fill:#ffffff" />
   <path class="cls-2" d="m 72.428917,83.376564 a 67.4,67.4 0 0 0 -2.86,10.48 c -0.18,0.85 -0.38,1.74 -0.59,2.69 -0.28,1.25 -0.58,2.46 -0.89,3.639996 -2,-1.699996 -4.74,-3.999996 -8.25,-6.489996 a 19.39,19.39 0 0 1 1.69,-4.48 c 1.35,-2.58 1.73,-3.2 2.87,-5.2 0.52,-0.92 1.21,-2.11 2.22,-3.89 z" id="path84" inkscape:connector-curvature="0" style="fill:#ffffff" />
   <path class="cls-2" d="m 88.088917,64.876564 c -0.86,0.85 -1.76,1.7 -2.7,2.56 a 76.43,76.43 0 0 0 -9.51,9.85 l -5.88,-3.27 0.41,-0.75 c 1.93,-3.49 2.81,-5.09 4.76,-8.32 a 20.28,20.28 0 0 1 3,-3.77 c 4.02,1.69 7.43,2.9 9.92,3.7 z" id="path86" inkscape:connector-curvature="0" style="fill:#ffffff" />
   <path class="cls-2" d="m 97.938917,53.136564 a 60.52,60.52 0 0 1 -4.51,6 c -1.4,-0.39 -4.62,-1.36 -9,-3.08 a 50.5,50.5 0 0 0 6.7,-6.81 z" id="path88" inkscape:connector-curvature="0" style="fill:#ffffff" />
   <path class="cls-2" d="m 103.43892,39.886564 a 29.91,29.91 0 0 1 -2.15,7.1 l -6.110003,-3.44 a 56.47,56.47 0 0 0 4.17,-8.06 c 1.890003,1.89 3.270003,3.44 4.090003,4.4 z" id="path90" inkscape:connector-curvature="0" style="fill:#ffffff" />
   <path class="cls-1" d="m 110.62892,33.016564 c -1.47,-15 -14.160003,-24.2699998 -19.550003,-27.5399998 l -0.08,-0.06 -0.1,-0.06 c -5.59,-2.9 -20.07,-9 -33.7,-2.4 -11.5,5.52 -19.3,18.3299998 -23.2,38.0599998 -2.85,14.47 -3.93,15.5 -12.34,23.54 l -2,1.93 q -9.9999998,9.61 -14.9199998,19 c -0.14,0.26 -0.28,0.52 -0.4,0.77 0,0 0,0 0,0 q -5.22,10.45 -4.16,20.409996 a 31.94,31.94 0 0 0 6.12,15.49 v 0 c 0.36,0.49 0.74,1 1.11,1.45 0,0 0,0 0,0 a 45.26,45.26 0 0 0 11.3099998,9.9 l 0.11,0.06 0.12,0.07 a 45,45 0 0 0 14.32,4.53 c 0.59,0.08 1.19,0.15 1.79,0.2 v 0 c 1,0.08 2,0.13 3,0.13 a 31.47,31.47 0 0 0 13.47,-2.94 c 11.73,-5.49 19.88,-18.11 24.24,-37.499996 v 0 l 0.6,-2.71 c 2.5,-11.36 2.83,-12.82 13.7,-22.76 12.500003,-11.36 19.360003,-22.57 20.520003,-33.35 a 29.89,29.89 0 0 0 0.04,-6.22 z m -20.160003,-19.54 a 40.53,40.53 0 0 1 6.2,5.54 c -0.12,0.88 -0.33,2.25 -0.71,4 a 93.73,93.73 0 0 0 -7.73,-5.53 z m 3.32,16.89 a 52.49,52.49 0 0 1 -4.79,9.73 l -10.25,-5.79 6,-10.66 a 85.34,85.34 0 0 1 9.04,6.72 z m -55.45,50.56 a 27.17,27.17 0 0 0 2.29,-3.22 27.47,27.47 0 0 1 2.37,-3.33 40.13,40.13 0 0 0 3.78,-5.42 l 3.36,1.89 -7,12.48 c -1.55,-0.81 -3.14,-1.61 -4.8,-2.4 z m 1.33,8.54 -5.15,9.15 -9.52,-5.37 a 44.42,44.42 0 0 1 7.81,-7.18 c 2.38,1.1 4.68,2.24 6.86,3.4 z m 20.94,-37.21 -7,12.49 -3.56,-2 c 0.78,-1.64 1.36,-3 1.9,-4.21 0.8,-1.82 1.5,-3.39 2.59,-5.49 a 25.65,25.65 0 0 0 1.56,-3.62 c 1.5,0.99 3.02,1.94 4.51,2.83 z m -3.03,-10.24 a 44.31,44.31 0 0 1 2.08,-10.38 l 9.55,5.38 -5.15,9.1 c -2.12,-1.27 -4.29,-2.64 -6.48,-4.1 z m -11.8,50.88 c 2.34,1.39 4.51,2.77 6.48,4.1 a 44.14,44.14 0 0 1 -2.09,10.419996 l -9.55,-5.4 z m 3.45,-6.14 7,-12.48 4.27,2.4 c -1,1.75 -1.67,2.92 -2.19,3.83 -1.16,2 -1.59,2.76 -3,5.47 a 26.27,26.27 0 0 0 -1.54,3.58 v 0 c -1.43,-0.92 -2.95,-1.86 -4.54,-2.8 z m 10.46,-18.58 7,-12.48 c 1.63,0.88 3.22,1.68 4.75,2.42 a 27.7,27.7 0 0 0 -2.25,3.19 c -2,3.35 -3,5.09 -4.9,8.57 -0.12,0.22 -0.25,0.45 -0.37,0.69 z m 10.47,-18.62 5.16,-9.15 9.55,5.37 a 44.92,44.92 0 0 1 -7.82,7.24 c -2.17,-1 -4.48,-2.18 -6.89,-3.46 z m 6.26,-41.9499998 a 40.66,40.66 0 0 1 7.94,2.4099998 l -2.19,3.89 a 78.63,78.63 0 0 0 -8.54,-3.89 c 1.17,-1.0699998 2.14,-1.8899998 2.79,-2.4099998 z m -8.42,8.6499998 0.47,-0.59 a 68.18,68.18 0 0 1 10.23,4.43 l -6.06,10.77 -10.28,-5.79 a 52.31,52.31 0 0 1 5.64,-8.82 z m -13,-3.49 a 55,55 0 0 1 6.14,0.91 57.88,57.88 0 0 0 -4.94,7.94 l -6.1,-3.44 a 29.63,29.63 0 0 1 4.83,-5.41 z m -8.42,11.47 6.85,3.85 a 51,51 0 0 0 -2.33,9.2 q -3.68,-2.81 -7.32,-6.09 a 60,60 0 0 1 2.8,-6.96 z m -5.71,18.15 q 0.38,-1.9 0.81,-3.72 c 2.78,2.35 5.57,4.57 8.32,6.58 a 20.65,20.65 0 0 1 -1.71,4.55 c -1.21,2.3 -2,4.06 -2.79,5.91 -0.47,1.07 -1,2.22 -1.62,3.59 l -6.51,-3.66 a 75.85,75.85 0 0 0 3.5,-13.25 z m -16.36,29.14 2,-1.91 a 70,70 0 0 0 7.49,-7.88 l 6.7,3.78 a 32.2,32.2 0 0 1 -3.14,4.5 34.1,34.1 0 0 0 -2.92,4.09 20.29,20.29 0 0 1 -3,3.83 q -4.68,-2 -9.84,-3.67 c 0.86,-0.92 1.77,-1.83 2.71,-2.74 z m -7.77,8.49 c 3,0.9 5.88,1.9 8.65,3 a 53.61,53.61 0 0 0 -6.65,6.78 l -6.35,-3.57 a 59.43,59.43 0 0 1 4.35,-6.21 z m -6.24,23.499996 q -1.6799998,-1.92 -3.2099998,-4.069996 a 31.14,31.14 0 0 1 1.94,-7 l 5.4199998,3 a 57.51,57.51 0 0 0 -4.15,8.039996 z m 8.89,22 a 36.9,36.9 0 0 1 -6.17,-5.84 c 0.11,-0.82 0.3,-2 0.6,-3.37 a 71.59,71.59 0 0 0 7.74,5.35 z m -3.45,-16.59 a 53,53 0 0 1 4.86,-9.999996 l 10.29,5.789996 -6.09,10.79 a 63.54,63.54 0 0 1 -9.06,-6.58 z m 17.75,22.26 v 0 a 36.36,36.36 0 0 1 -8.19,-2.24 l 2.24,-4 a 84.15,84.15 0 0 0 8.84,3.66 c -1.18,1.15 -2.18,2 -2.89,2.58 z m 8.19,-8.43 -0.11,0.14 a 81.09,81.09 0 0 1 -10.57,-4.1 l 6,-10.65 10.29,5.79 a 52.31,52.31 0 0 1 -5.61,8.82 z m 12.28,2.92 c -0.82,-0.1 -2.6,-0.35 -5,-0.86 a 57.87,57.87 0 0 0 4.5,-7.42 l 5.42,3.05 a 30.67,30.67 0 0 1 -4.92,5.23 z m 8.6,-11.17 -6.36,-3.58 a 50.78,50.78 0 0 0 2.35,-9.26 c 3.47,2.65 5.87,4.78 7,5.87 a 61.84,61.84 0 0 1 -2.99,6.97 z m 6.81,-20.649996 c -0.18,0.85 -0.38,1.74 -0.59,2.69 -0.28,1.25 -0.58,2.46 -0.89,3.639996 -2,-1.699996 -4.74,-3.999996 -8.25,-6.489996 a 19.39,19.39 0 0 1 1.69,-4.48 c 1.35,-2.58 1.73,-3.2 2.87,-5.2 0.52,-0.92 1.21,-2.11 2.22,-3.89 l 5.81,3.27 a 67.4,67.4 0 0 0 -2.86,10.46 z m 15.82,-26.42 a 76.43,76.43 0 0 0 -9.51,9.85 l -5.88,-3.27 0.41,-0.75 c 1.93,-3.49 2.81,-5.09 4.76,-8.32 a 20.28,20.28 0 0 1 3,-3.77 c 4,1.71 7.45,2.92 9.94,3.72 -0.88,0.83 -1.78,1.68 -2.72,2.54 z m 8,-8.27 c -1.4,-0.39 -4.62,-1.36 -9,-3.08 a 50.5,50.5 0 0 0 6.7,-6.81 l 6.85,3.86 a 60.52,60.52 0 0 1 -4.51,6.03 z m 7.900003,-12.15 -6.110003,-3.44 a 56.47,56.47 0 0 0 4.17,-8.06 c 1.890003,1.89 3.270003,3.44 4.090003,4.4 a 29.91,29.91 0 0 1 -2.15,7.1 z" id="path92" inkscape:connector-curvature="0" style="fill:#1d1d1b" />
   <line class="cls-3" x1="7.6489172" y1="87.506561" x2="7.6089172" y2="87.486565" id="line94" style="fill:none" />
   <line class="cls-3" x1="62.388916" y1="118.31657" x2="61.028915" y2="117.54656" id="line96" style="fill:none" />
   <path class="cls-1" d="m 4.7289172,85.516564 c -0.14,0.26 -0.28,0.52 -0.4,0.77 a 2.87,2.87 0 0 1 0.23,-0.51 1.45,1.45 0 0 1 0.17,-0.26 z" id="path98" inkscape:connector-curvature="0" style="fill:#1d1d1b" />
</svg>
