<?xml version="1.0" encoding="UTF-8" standalone="no"?>
<svg xmlns:dc="http://purl.org/dc/elements/1.1/"
   xmlns:cc="http://creativecommons.org/ns#"
   xmlns:rdf="http://www.w3.org/1999/02/22-rdf-syntax-ns#"
   xmlns:svg="http://www.w3.org/2000/svg"
   xmlns="http://www.w3.org/2000/svg"
   xmlns:sodipodi="http://sodipodi.sourceforge.net/DTD/sodipodi-0.dtd"
   xmlns:inkscape="http://www.inkscape.org/namespaces/inkscape" id="Capa_1" data-name="Capa 1" viewBox="0 0 291.02558 217.58545" version="1.1" inkscape:version="0.92.5 (2060ec1f9f, 2020-04-08)">
   <metadata id="metadata39">
      <rdf:RDF>
         <cc:Work rdf:about="">
            <dc:format>image/svg+xml</dc:format>
            <dc:type rdf:resource="http://purl.org/dc/dcmitype/StillImage" />
         </cc:Work>
      </rdf:RDF>
   </metadata>
   <sodipodi:namedview pagecolor="#ffffff" bordercolor="#666666" borderopacity="1" objecttolerance="10" gridtolerance="10" guidetolerance="10" inkscape:pageopacity="0" inkscape:pageshadow="2" inkscape:window-width="855" inkscape:window-height="480" id="namedview37" showgrid="false" inkscape:zoom="0.8783029" inkscape:cx="145.53191" inkscape:cy="83.190002" inkscape:window-x="0" inkscape:window-y="27" inkscape:window-maximized="0" inkscape:current-layer="Capa_1" />
   <defs id="defs4">
      <style id="style2">.cls-1{fill:#1d1d1b;}.cls-2{fill:#fff;}</style>
   </defs>
   <path class="cls-1" d="m 261.55191,4.1054561 c -20.22,-8.69 -46.41,-3 -59.64,12.9999999 a 3.49,3.49 0 0 0 2.9,5.72 71.69,71.69 0 0 1 14,1 24.83,24.83 0 0 0 -0.41,14.08 c 1.43,5.83 6.07,16.65 21.1,23.58 a 19.3,19.3 0 0 1 11,14.48 c 1,6.57 -1.37,13 -6.79,18 -4.64,4.3 -11.4,7.100004 -18.19,8.920004 -6.49,-9.100004 -18.8,-19.330004 -42.06,-24.420004 l 8.19,-11.92 a 3.5104451,3.5104451 0 1 0 -5.77,-4 l -9.94,14.5 a 168.1,168.1 0 0 0 -25.75,-1.84 h -8.94 a 174.18,174.18 0 0 0 -26.13,1.84 l -9.94,-14.47 a 3.5104451,3.5104451 0 1 0 -5.769998,4 l 8.169998,11.9 c -23.579998,5.03 -35.909998,15.28 -42.319998,24.320004 -6.69,-1.83 -13.34,-4.610004 -17.92,-8.850004 -5.42,-5 -7.83,-11.41 -6.79,-18 a 19.32,19.32 0 0 1 11,-14.48 c 15,-6.93 19.67,-17.75 21.1,-23.58 a 24.84,24.84 0 0 0 -0.4,-14.08 72.57,72.57 0 0 1 14,-1 3.49,3.49 0 0 0 2.9,-5.76 c -13.23,-15.9999999 -39.42,-21.6599999 -59.63,-12.9999999 -22.18,9.5899999 -32.64,33.7799999 -28.70999999,66.4399999 2.18999999,18.56 11.71999999,35.210004 26.04999999,45.770004 a 65.77,65.77 0 0 0 30.7,12 46.67,46.67 0 0 0 2.18,12.67 h -22.74 a 3.5,3.5 0 0 0 -3.2,2.08 l -12.87,29.04 a 3.49,3.49 0 0 0 1.78,4.62 3.38,3.38 0 0 0 1.41,0.3 3.5,3.5 0 0 0 3.21,-2.08 l 12,-27 h 23.2 a 59.24,59.24 0 0 0 9.08,13.54 h -25.33 a 3.52,3.52 0 0 0 -3.2,2.08 l -12.89,29 a 3.51,3.51 0 0 0 1.81,4.74 3.55,3.55 0 0 0 1.42,0.3 3.51,3.51 0 0 0 3.2,-2.08 l 12,-27 h 29.47 l 12.23,13.12 h -34.89 a 3.48,3.48 0 0 0 -3.2,2.08 l -12.89,29 a 3.49,3.49 0 0 0 1.78,4.62 3.54,3.54 0 0 0 1.41,0.3 3.49,3.49 0 0 0 3.2,-2.08 l 12,-26.95 h 39.12 l 0.23,0.25 c 7.559998,8.11 30.079998,11 48.639998,11 18.56,0 41.07,-2.89 48.63,-11 l 0.23,-0.25 h 38.78 l 12,26.95 a 3.49,3.49 0 0 0 3.2,2.08 3.59,3.59 0 0 0 1.42,-0.3 3.51,3.51 0 0 0 1.78,-4.62 l -12.9,-29 a 3.48,3.48 0 0 0 -3.2,-2.08 h -34.55 l 12.23,-13.12 h 29.16 l 12,27 a 3.51,3.51 0 0 0 3.2,2.08 3.55,3.55 0 0 0 1.42,-0.3 3.51,3.51 0 0 0 1.78,-4.62 l -12.89,-29 a 3.51,3.51 0 0 0 -3.2,-2.08 h -24.98 a 58,58 0 0 0 9,-13.54 h 23 l 12,27 a 3.49,3.49 0 0 0 3.2,2.08 3.45,3.45 0 0 0 1.42,-0.3 3.5,3.5 0 0 0 1.77,-4.62 l -12.89,-29 a 3.48,3.48 0 0 0 -3.2,-2.08 h -22.64 a 46,46 0 0 0 2,-12.67 65.81,65.81 0 0 0 30.7,-12 c 14.32,-10.56 23.81,-27.240004 26,-45.770004 3.99,-32.82 -6.47,-57.01 -28.64,-66.5399999 z M 61.001912,110.36546 a 41,41 0 0 0 -3.05,10.94 c -1.33,-0.18 -2.64,-0.41 -3.93,-0.67 a 57.76,57.76 0 0 1 -23,-10 c -12.77,-9.41 -21.25,-24.350004 -23.25,-41.000004 -4.85,-40.17 13.28,-54.27 24.51,-59.1 a 44.28,44.28 0 0 1 17.48,-3.4399999 c 10.24,0 20.51,3.1599999 28.17,8.9499999 -11.69,1 -32.39,5.14 -45.45,22.06 a 3.5,3.5 0 1 0 5.52,4.25 c 7.41,-9.6 18,-14.52 27.33,-17 a 17.67,17.67 0 0 1 0.55,10.91 c -1.12,4.58 -4.88,13.16 -17.22,18.87 a 26.26,26.26 0 0 0 -15,19.73 c -1.4,8.82 1.86,17.64 9,24.21 5.06,4.700004 12,7.840004 19,9.940004 -0.3,0.46 -0.51,0.91 -0.66,1.35 z m 165.519998,18.56 a 39.93,39.93 0 0 1 -2.36,12 44.7,44.7 0 0 1 -3.2,7 51.68,51.68 0 0 1 -7.42,10.12 l -3.24,3.48 -6.53,7 -12.23,13.12 -2.31,2.48 a 9.55,9.55 0 0 1 -1.8,1.48 c -6.58,4.36 -23,7.29 -41.71,7.29 -19.08,0 -35.7,-3 -42,-7.53 a 8.91,8.91 0 0 1 -1.47,-1.25 l -2.299998,-2.47 -12.28,-13.14 -6.53,-7 -3.24,-3.46 a 54.41,54.41 0 0 1 -7.46,-10.06 48.16,48.16 0 0 1 -3.29,-7 41,41 0 0 1 -2.56,-12 c -0.06,-1.16 -0.06,-2.31 0,-3.46 0.06,-1.15 0.16,-2.35 0.32,-3.51 a 34,34 0 0 1 2.49,-8.79 c 0.35,-0.81 0.73,-1.6 1.15,-2.37 a 32.4,32.4 0 0 1 1.91,-3.19 36.37,36.37 0 0 1 2.35,-3.12 c 8,-9.550004 21.45,-16.290004 39.149998,-19.710004 q 3.44,-0.66 7.06,-1.15 a 165.29,165.29 0 0 1 22.27,-1.42 h 8.56 a 1.81,1.81 0 0 0 0.33,0 160.13,160.13 0 0 1 21.9,1.42 q 3.62,0.49 7,1.17 c 17.47,3.43 30.82,10.18 38.87,19.750004 a 36.84,36.84 0 0 1 4.32,6.3 c 0.48,0.9 0.93,1.81 1.34,2.75 a 34.94,34.94 0 0 1 2.82,11.87 33.26,33.26 0 0 1 0.05,3.4 z m 56.78,-59.280004 c -2,16.62 -10.47,31.560004 -23.25,41.000004 a 57.7,57.7 0 0 1 -23,10 q -2,0.41 -4,0.69 a 41.47,41.47 0 0 0 -3,-10.53 c -0.24,-0.55 -0.5,-1.12 -0.79,-1.71 7.08,-2.1 14.1,-5.26 19.22,-10.000004 7.08,-6.57 10.34,-15.39 8.94,-24.21 a 26.26,26.26 0 0 0 -15,-19.73 c -12.42,-5.73 -16.12,-14.31 -17.25,-18.92 a 17.6,17.6 0 0 1 0.55,-10.91 c 9.35,2.51 19.91,7.43 27.32,17 a 3.5043152,3.5043152 0 0 0 5.55,-4.28 c -13.06,-16.89 -33.77,-21.07 -45.46,-22 12.19,-9.1599999 31,-11.7599999 45.65,-5.48 11.22,4.8 29.36,18.9 24.52,59.08 z" id="path28" inkscape:connector-curvature="0" style="fill:#1d1d1b" />
   <path class="cls-2" d="m 65.351912,25.325456 a 17.67,17.67 0 0 1 0.55,10.91 c -1.14,4.61 -4.9,13.19 -17.24,18.9 a 26.26,26.26 0 0 0 -15,19.73 c -1.4,8.82 1.86,17.64 9,24.21 5.06,4.700004 12,7.840004 19,9.940004 -0.21,0.46 -0.42,0.91 -0.61,1.35 a 41,41 0 0 0 -3.05,10.94 c -1.33,-0.18 -2.64,-0.41 -3.93,-0.67 a 57.76,57.76 0 0 1 -23,-10 c -12.77,-9.41 -21.25,-24.350004 -23.25,-41.000004 -4.9,-40.17 13.23,-54.27 24.46,-59.1 a 44.28,44.28 0 0 1 17.48,-3.4399999 c 10.24,0 20.51,3.1599999 28.17,8.9499999 -11.69,1 -32.39,5.14 -45.45,22.06 a 3.5,3.5 0 1 0 5.52,4.25 c 7.43,-9.6 18,-14.52 27.35,-17.03 z" id="path30" inkscape:connector-curvature="0" style="fill:#ffffff" />
   <path class="cls-2" d="m 283.30191,69.645456 c -2,16.62 -10.47,31.560004 -23.25,41.000004 a 57.7,57.7 0 0 1 -23,10 q -2,0.41 -4,0.69 a 41.47,41.47 0 0 0 -3,-10.53 c -0.24,-0.55 -0.5,-1.12 -0.79,-1.71 7.08,-2.1 14.1,-5.26 19.22,-10.000004 7.08,-6.57 10.34,-15.39 8.94,-24.21 a 26.26,26.26 0 0 0 -15,-19.73 c -12.42,-5.73 -16.12,-14.31 -17.25,-18.92 a 17.6,17.6 0 0 1 0.55,-10.91 c 9.35,2.51 19.91,7.43 27.32,17 a 3.5043152,3.5043152 0 0 0 5.55,-4.28 c -13.06,-16.89 -33.77,-21.07 -45.46,-22 12.19,-9.1599999 31,-11.7599999 45.65,-5.48 11.22,4.8 29.36,18.9 24.52,59.08 z" id="path32" inkscape:connector-curvature="0" style="fill:#ffffff" />
   <path class="cls-2" d="m 226.48191,128.92546 a 39.93,39.93 0 0 1 -2.36,12 44.7,44.7 0 0 1 -3.2,7 51.68,51.68 0 0 1 -7.38,10.12 l -3.24,3.48 -6.53,7 -12.23,13.12 -2.31,2.48 a 9.55,9.55 0 0 1 -1.8,1.48 c -6.58,4.36 -23,7.29 -41.71,7.29 -19.08,0 -35.7,-3 -42,-7.53 a 8.91,8.91 0 0 1 -1.47,-1.25 l -2.299998,-2.47 -12.28,-13.14 -6.53,-7 -3.24,-3.46 a 54.41,54.41 0 0 1 -7.46,-10.06 48.16,48.16 0 0 1 -3.29,-7 41,41 0 0 1 -2.56,-12 c -0.06,-1.16 -0.06,-2.31 0,-3.46 0.06,-1.15 0.16,-2.35 0.32,-3.51 a 34,34 0 0 1 2.49,-8.79 c 0.35,-0.81 0.73,-1.6 1.15,-2.37 a 32.4,32.4 0 0 1 1.91,-3.19 36.37,36.37 0 0 1 2.35,-3.12 c 8,-9.550004 21.45,-16.290004 39.149998,-19.710004 q 3.44,-0.66 7.06,-1.15 a 165.29,165.29 0 0 1 22.27,-1.42 h 8.56 a 1.81,1.81 0 0 0 0.33,0 160.13,160.13 0 0 1 21.9,1.42 q 3.62,0.49 7,1.17 c 17.47,3.43 30.82,10.18 38.87,19.750004 a 36.84,36.84 0 0 1 4.32,6.3 c 0.48,0.9 0.93,1.81 1.34,2.75 a 34.94,34.94 0 0 1 2.82,11.87 33.26,33.26 0 0 1 0.05,3.4 z" id="path34" inkscape:connector-curvature="0" style="fill:#ffffff" />
</svg>
