<?xml version="1.0" encoding="UTF-8" standalone="no"?>
<svg xmlns:dc="http://purl.org/dc/elements/1.1/"
   xmlns:cc="http://creativecommons.org/ns#"
   xmlns:rdf="http://www.w3.org/1999/02/22-rdf-syntax-ns#"
   xmlns:svg="http://www.w3.org/2000/svg"
   xmlns="http://www.w3.org/2000/svg"
   xmlns:sodipodi="http://sodipodi.sourceforge.net/DTD/sodipodi-0.dtd"
   xmlns:inkscape="http://www.inkscape.org/namespaces/inkscape" id="Capa_1" data-name="Capa 1" viewBox="0 0 112.51273 128.90472" version="1.1" inkscape:version="0.92.5 (2060ec1f9f, 2020-04-08)">
   <metadata id="metadata43">
      <rdf:RDF>
         <cc:Work rdf:about="">
            <dc:format>image/svg+xml</dc:format>
            <dc:type rdf:resource="http://purl.org/dc/dcmitype/StillImage" />
         </cc:Work>
      </rdf:RDF>
   </metadata>
   <sodipodi:namedview pagecolor="#ffffff" bordercolor="#666666" borderopacity="1" objecttolerance="10" gridtolerance="10" guidetolerance="10" inkscape:pageopacity="0" inkscape:pageshadow="2" inkscape:window-width="855" inkscape:window-height="480" id="namedview41" showgrid="false" inkscape:zoom="1.2629776" inkscape:cx="56.237384" inkscape:cy="35.51" inkscape:window-x="0" inkscape:window-y="27" inkscape:window-maximized="0" inkscape:current-layer="Capa_1" />
   <defs id="defs4">
      <style id="style2">.cls-1{fill:#fff;}.cls-2{fill:#1d1d1b;}</style>
   </defs>
   <path class="cls-1" d="m 90.957382,35.904722 -2.3,6.12 a 17,17 0 0 1 -21.84,9.94 l -16,-6 a 17,17 0 0 1 -9.89,-21.89 l 2.31,-6.11 a 16.94,16.94 0 0 1 21.84,-9.9 l 16,6 a 16.94,16.94 0 0 1 9.9,21.84 z" id="path6" inkscape:connector-curvature="0" style="fill:#ffffff" />
   <path class="cls-2" d="m 112.06738,95.014722 a 23.78,23.78 0 0 0 -10.08,-15.32 l -14.129998,-9.58 a 24,24 0 0 0 -31.44,4 24,24 0 0 0 -26,-4.92 l -15.78,6.63 A 24,24 0 0 0 1.8673819,107.20472 l 2.53,6 a 23.92,23.92 0 0 0 31.3800001,12.78 l 15.74,-6.63 a 23.88,23.88 0 0 0 6.27,-3.86 l 13.64,9.27 a 23.79,23.79 0 0 0 13.39,4.14 24.29,24.29 0 0 0 4.56,-0.44 23.76,23.76 0 0 0 15.349998,-10.08 l 3.67,-5.41 a 23.8,23.8 0 0 0 3.67,-17.959998 z M 20.067382,119.63472 a 16.8,16.8 0 0 1 -9.24,-9.12 l -2.5300001,-6 A 17,17 0 0 1 17.297382,82.294722 l 15.74,-6.62 a 16.8,16.8 0 0 1 6.69,-1.36 17,17 0 0 1 12.54,5.65 l -1.35,2 a 24,24 0 0 0 1.53,28.919998 16.64,16.64 0 0 1 -3.65,2.08 l -15.73,6.6 a 16.84,16.84 0 0 1 -12.98,0.07 z m 82.489998,-10.59 -3.669998,5.41 a 16.93,16.93 0 0 1 -23.53,4.51 l -12.95,-8.78 -1.19,-0.81 a 17.42,17.42 0 0 1 -1.64,-1.27 16.59,16.59 0 0 1 -2.48,-2.7 17,17 0 0 1 -0.94,-18.709998 c 0.17,-0.29 0.36,-0.58 0.55,-0.87 l 1.77,-2.61 1.9,-2.8 a 6.55,6.55 0 0 1 0.39,-0.53 16.94,16.94 0 0 1 23.16,-4 l 14.13,9.59 a 17,17 0 0 1 4.519998,23.549998 z" id="path8" inkscape:connector-curvature="0" style="fill:#1d1d1b" />
   <path class="cls-1" d="m 52.447382,110.82472 a 16.64,16.64 0 0 1 -3.65,2.14 l -15.73,6.6 a 17,17 0 0 1 -22.22,-9 l -2.5300001,-6 A 17,17 0 0 1 17.317382,82.344722 l 15.74,-6.62 a 16.8,16.8 0 0 1 6.67,-1.41 17,17 0 0 1 12.54,5.65 l -1.35,2 a 24,24 0 0 0 1.53,28.859998 z" id="path10" inkscape:connector-curvature="0" style="fill:#ffffff" />
   <path class="cls-1" d="m 105.19738,96.334722 a 16.82,16.82 0 0 0 -7.139998,-10.84 l -14.13,-9.59 a 16.94,16.94 0 0 0 -23.16,4 6.55,6.55 0 0 0 -0.39,0.53 l -1.9,2.8 -1.75,2.6 c -0.19,0.29 -0.38,0.58 -0.55,0.87 a 17,17 0 0 0 0.94,18.709998 16.59,16.59 0 0 0 2.48,2.7 17.42,17.42 0 0 0 1.64,1.27 l 1.19,0.81 12.93,8.77 a 17,17 0 0 0 23.55,-4.52 l 3.669998,-5.41 a 16.87,16.87 0 0 0 2.62,-12.699998 z m -12.319998,-3.64 h -0.15 c -9.48,-0.4 -14.94,-11.69 -15.17,-12.18 a 3.5024598,3.5024598 0 0 1 6.33,-3 c 1.06,2.22 4.78,8 9.14,8.19 a 3.5008035,3.5008035 0 0 1 -0.15,7 z" id="path12" inkscape:connector-curvature="0" style="fill:#ffffff" />
   <path class="cls-2" d="m 96.907382,20.044722 a 23.78,23.78 0 0 0 -13.39,-12.53 l -16,-6 a 23.95,23.95 0 0 0 -30.79,13.98 l -2.3,6.12 a 24,24 0 0 0 14,30.86 l 16,6 a 24,24 0 0 0 30.85,-14 l 2.31,-6.12 a 23.83,23.83 0 0 0 -0.68,-18.31 z m -8.25,22 a 17,17 0 0 1 -21.84,9.92 l -16,-6 a 17,17 0 0 1 -9.89,-21.89 l 2.31,-6.11 a 16.94,16.94 0 0 1 21.84,-9.9 l 16,6 a 16.94,16.94 0 0 1 9.9,21.84 z" id="path32" inkscape:connector-curvature="0" style="fill:#1d1d1b" />
   <path class="cls-2" d="m 75.187382,22.534722 a 12.83,12.83 0 0 0 2.37,-0.22 3.5006928,3.5006928 0 0 0 -1.35,-6.87 c -4.28,0.84 -9.25,-3.92 -10.81,-5.82 a 3.5,3.5 0 0 0 -5.44,4.4 c 0.31,0.38 6.97,8.51 15.23,8.51 z" id="path34" inkscape:connector-curvature="0" style="fill:#1d1d1b" />
   <path class="cls-2" d="m 35.397382,79.164722 a 3.5,3.5 0 0 0 -4.88,0.82 c -2.53,3.56 -9.41,3.52 -11.84,3.21 a 3.5,3.5 0 1 0 -0.95,6.93 23.74,23.74 0 0 0 3.19,0.18 c 4.18,0 11.43,-0.85 15.29,-6.26 a 3.5,3.5 0 0 0 -0.81,-4.88 z" id="path36" inkscape:connector-curvature="0" style="fill:#1d1d1b" />
   <path class="cls-2" d="m 93.027382,85.694722 c -4.36,-0.19 -8.08,-6 -9.14,-8.19 a 3.5024598,3.5024598 0 0 0 -6.33,3 c 0.23,0.49 5.69,11.78 15.17,12.18 h 0.15 a 3.5008035,3.5008035 0 0 0 0.15,-7 z" id="path38" inkscape:connector-curvature="0" style="fill:#1d1d1b" />
</svg>
