<?xml version="1.0" encoding="UTF-8" standalone="no"?>
<svg xmlns:dc="http://purl.org/dc/elements/1.1/"
   xmlns:cc="http://creativecommons.org/ns#"
   xmlns:rdf="http://www.w3.org/1999/02/22-rdf-syntax-ns#"
   xmlns:svg="http://www.w3.org/2000/svg"
   xmlns="http://www.w3.org/2000/svg"
   xmlns:sodipodi="http://sodipodi.sourceforge.net/DTD/sodipodi-0.dtd"
   xmlns:inkscape="http://www.inkscape.org/namespaces/inkscape" id="Capa_1" data-name="Capa 1" viewBox="0 0 128.16824 105.88025" version="1.1" inkscape:version="0.92.5 (2060ec1f9f, 2020-04-08)">
   <metadata id="metadata35">
      <rdf:RDF>
         <cc:Work rdf:about="">
            <dc:format>image/svg+xml</dc:format>
            <dc:type rdf:resource="http://purl.org/dc/dcmitype/StillImage" />
         </cc:Work>
      </rdf:RDF>
   </metadata>
   <sodipodi:namedview pagecolor="#ffffff" bordercolor="#666666" borderopacity="1" objecttolerance="10" gridtolerance="10" guidetolerance="10" inkscape:pageopacity="0" inkscape:pageshadow="2" inkscape:window-width="855" inkscape:window-height="480" id="namedview33" showgrid="false" inkscape:zoom="1.503472" inkscape:cx="63.568291" inkscape:cy="27.395248" inkscape:window-x="0" inkscape:window-y="27" inkscape:window-maximized="0" inkscape:current-layer="Capa_1" />
   <defs id="defs4">
      <style id="style2">.cls-1{fill:#1d1d1b;}.cls-2{fill:#fff;}</style>
   </defs>
   <path class="cls-1" d="m 67.793289,8.88 -1.52,-0.69 -1.5,0.81 c -8.71,4.37 -14.44,15.2 -17.2,24.59 a 25,25 0 0 0 -8,-7.58 c -4.53,-10.01 -17.22,-24.39 -27.17,-25.78 L 10.743289,0 9.5732886,1.15 c -10.35999999,9.72 -10.86,30.7 -8.23,39.7 A 20,20 0 0 0 11.083289,53 a 20.34,20.34 0 0 0 6.49,2.13 34.24,34.24 0 0 0 -0.7,6.39 20.63,20.63 0 0 0 41.1,1.76 20.93,20.93 0 0 0 8.39,1.72 20.47,20.47 0 0 0 20.61,-20.24 c 0,-10.27 -8.96,-31.28 -19.18,-35.88 z m -53.39,37.91 a 13.12,13.12 0 0 1 -6.3900004,-7.9 c -2.31,-7.93 -1.08,-23.78 5.0000004,-31.29 5.95,2.21 15.56,11.64 19.72,20.06 -6.4,4.74 -10.87,13 -13.4,20.65 a 13.29,13.29 0 0 1 -4.93,-1.52 z m 23.05,28 a 13.31,13.31 0 0 1 -13.62,-13.27 29.63,29.63 0 0 1 0.84,-6.52 c 0.29,-1.25 0.64,-2.54 1.06,-3.84 0.47,-1.46 1,-2.94 1.64,-4.4 a 38.14,38.14 0 0 1 7.31,-11.53 19.39,19.39 0 0 1 2.77,-2.36 7.75,7.75 0 0 1 0.67,0.55 23.91,23.91 0 0 1 3.45,3.83 51,51 0 0 1 4.19,6.75 48.39,48.39 0 0 1 5,14 22.42,22.42 0 0 1 0.31,3.54 13.31,13.31 0 0 1 -13.62,13.26 z m 28.91,-16.79 a 13.84,13.84 0 0 1 -9.24,-3.43 13.11,13.11 0 0 1 -4.38,-9.84 20.12,20.12 0 0 1 0.12,-2.13 c 0.81,-8.49 6.16,-21.45 13.5,-26.49 5.77,4.35 13.61,19.15 13.61,28.65 a 13.3,13.3 0 0 1 -13.61,13.24 z" id="path6" inkscape:connector-curvature="0" style="fill:#1d1d1b" />
   <path class="cls-2" d="m 79.973289,44.76 a 13.3,13.3 0 0 1 -13.61,13.24 13.84,13.84 0 0 1 -9.24,-3.43 13.11,13.11 0 0 1 -4.38,-9.84 20.12,20.12 0 0 1 0.12,-2.13 c 0.81,-8.49 6.16,-21.45 13.5,-26.49 5.77,4.35 13.61,19.15 13.61,28.65 z" id="path8" inkscape:connector-curvature="0" style="fill:#ffffff" />
   <path class="cls-2" d="m 32.733289,27.66 c -6.4,4.74 -10.87,13 -13.4,20.65 a 13.29,13.29 0 0 1 -4.93,-1.52 13.12,13.12 0 0 1 -6.3900004,-7.9 c -2.31,-7.93 -1.08,-23.78 5.0000004,-31.29 5.95,2.21 15.56,11.64 19.72,20.06 z" id="path10" inkscape:connector-curvature="0" style="fill:#ffffff" />
   <path class="cls-2" d="M 120.28329,89.47 A 13.62,13.62 0 0 1 94.203289,81.64 c 2.37,-7.91 12.000001,-20.54 21.270001,-23.5 4.29,5.86 7.54,22.23 4.81,31.33 z" id="path12" inkscape:connector-curvature="0" style="fill:#ffffff" />
   <path class="cls-1" d="m 118.93329,51.61 -1.27,-1.1 -1.65,0.29 c -14,2.52 -25.820001,19.84 -28.520001,28.83 a 20.48,20.48 0 0 0 13.920001,25.37 20.87,20.87 0 0 0 6,0.88 20.37,20.37 0 0 0 19.57,-14.38 c 2.96,-9.85 0.41,-32.5 -8.05,-39.89 z m 1.35,37.86 A 13.62,13.62 0 0 1 94.203289,81.64 c 2.37,-7.91 12.000001,-20.54 21.270001,-23.5 4.29,5.86 7.54,22.23 4.81,31.33 z" id="path14" inkscape:connector-curvature="0" style="fill:#1d1d1b" />
   <path class="cls-2" d="m 51.063289,61.52 a 13.31,13.31 0 0 1 -13.61,13.28 13.31,13.31 0 0 1 -13.62,-13.28 29.63,29.63 0 0 1 0.84,-6.52 c 0.29,-1.25 0.64,-2.54 1.06,-3.84 0.47,-1.46 1,-2.94 1.64,-4.4 a 38.14,38.14 0 0 1 7.31,-11.53 19.39,19.39 0 0 1 2.77,-2.36 7.75,7.75 0 0 1 0.67,0.55 23.91,23.91 0 0 1 3.45,3.83 51,51 0 0 1 4.19,6.75 48.39,48.39 0 0 1 5,14 22.42,22.42 0 0 1 0.3,3.52 z" id="path16" inkscape:connector-curvature="0" style="fill:#ffffff" />
</svg>
