<?xml version="1.0" encoding="UTF-8" standalone="no"?>
<svg xmlns:dc="http://purl.org/dc/elements/1.1/"
   xmlns:cc="http://creativecommons.org/ns#"
   xmlns:rdf="http://www.w3.org/1999/02/22-rdf-syntax-ns#"
   xmlns:svg="http://www.w3.org/2000/svg"
   xmlns="http://www.w3.org/2000/svg"
   xmlns:sodipodi="http://sodipodi.sourceforge.net/DTD/sodipodi-0.dtd"
   xmlns:inkscape="http://www.inkscape.org/namespaces/inkscape" id="Capa_1" data-name="Capa 1" viewBox="0 0 253.32047 174.01173" version="1.1" inkscape:version="0.92.5 (2060ec1f9f, 2020-04-08)">
   <metadata id="metadata47">
      <rdf:RDF>
         <cc:Work rdf:about="">
            <dc:format>image/svg+xml</dc:format>
            <dc:type rdf:resource="http://purl.org/dc/dcmitype/StillImage" />
         </cc:Work>
      </rdf:RDF>
   </metadata>
   <sodipodi:namedview pagecolor="#ffffff" bordercolor="#666666" borderopacity="1" objecttolerance="10" gridtolerance="10" guidetolerance="10" inkscape:pageopacity="0" inkscape:pageshadow="2" inkscape:window-width="855" inkscape:window-height="480" id="namedview45" showgrid="false" inkscape:zoom="1.0171537" inkscape:cx="126.65216" inkscape:cy="58.001725" inkscape:window-x="0" inkscape:window-y="27" inkscape:window-maximized="0" inkscape:current-layer="Capa_1" />
   <defs id="defs4">
      <style id="style2">.cls-1{fill:#1d1d1b;}.cls-2{fill:#fff;}</style>
   </defs>
   <path class="cls-1" d="m 64.937157,91.88 a 6.49,6.49 0 0 1 -0.14,1.39 c -0.54,2.55 -2.54,4.71 -5.66,6.08 a 20.33,20.33 0 0 1 -12.28,1 c -8.55,-1.79 -14.77,-8 -13.59,-13.66 0.95,-4.56 6.55,-7.54 13.19,-7.54 a 23,23 0 0 1 4.75,0.5 c 7.84,1.6 13.73,7.01 13.73,12.23 z" id="path14" inkscape:connector-curvature="0" style="fill:#1d1d1b" />
   <path class="cls-2" d="m 113.32716,80.76 c -8.74,0 -16.110003,4.85 -16.110003,10.58 0,5.73 7.370003,10.58 16.110003,10.58 8.74,0 16.11,-4.84 16.11,-10.58 0,-5.74 -7.38,-10.58 -16.11,-10.58 z m 0,0 c -8.74,0 -16.110003,4.85 -16.110003,10.58 0,5.73 7.370003,10.58 16.110003,10.58 8.74,0 16.11,-4.84 16.11,-10.58 0,-5.74 -7.38,-10.58 -16.11,-10.58 z m 120.88,-12.33 c -12.74,2.47 -21.5,1.45 -26,-3 -11,-10.82 -22.72,-13.7 -36.93,-9.06 -10.46,3.4 -19.29,9.53 -24.86,17.24 a 3.5,3.5 0 0 1 -5.21,0.52 c -7.71,-7.11 -19.42,-11.19 -32.11,-11.19 -10.540003,0 -20.510003,2.85 -28.100003,8 a 3.49,3.49 0 0 1 -3.88,0 54,54 0 0 0 -18.61,-7.5 c -18.25,-3.68 -42.85,14.19 -50.4099998,20.15 4.9999998,7.73 20.9999998,30.77 39.2299998,34.48 12.55,2.57 25.35,0.75 34.24,-4.86 a 3.49,3.49 0 0 1 3.48,-0.15 52.08,52.08 0 0 0 24.000003,5.58 c 14.12,0 27,-5 34.37,-13.5 a 3.5,3.5 0 0 1 4.87,-0.39 c 9.3,7.73 25.11,9.52 40.29,4.54 13.26,-4.34 20.51,-10.88 27.7,-25 2.3,-4.53 6.9,-5.78 11.35,-7 5.5,-1.5 11.6,-3.17 16,-11.14 -2.63,0.78 -5.95,1.61 -9.42,2.28 z M 71.647157,94.71 c -1,4.82 -4.45,8.74 -9.68,11.05 a 25.71,25.71 0 0 1 -10.3,2.06 30.39,30.39 0 0 1 -6.25,-0.66 c -12.47,-2.62 -21,-12.47 -19,-22 2,-9.53 13.76,-15.03 26.23,-12.4 12.47,2.63 20.99,12.47 19,21.95 z m 41.680003,14.21 c -12.75,0 -23.110003,-7.89 -23.110003,-17.58 0,-9.69 10.360003,-17.58 23.110003,-17.58 12.75,0 23.11,7.89 23.11,17.58 0,9.69 -10.37,17.58 -23.11,17.58 z m 74,-9.38 a 29.42,29.42 0 0 1 -9,1.45 c -8.7,0 -16.17,-4.16 -18.4,-11.07 -3,-9.23 4.46,-19.92 16.59,-23.83 12.13,-3.91 24.41,0.4 27.39,9.62 a 13.7,13.7 0 0 1 0.66,4.2 c 0.01,8.09 -6.92,16.29 -17.23,19.63 z m 5.74,-26.27 a 16.42,16.42 0 0 0 -7.47,-1.64 22.64,22.64 0 0 0 -6.93,1.12 c -8.31,2.68 -13.84,9.56 -12.08,15 1.76,5.44 10.27,7.79 18.58,5.11 8.31,-2.68 13.84,-9.56 12.08,-15 a 8.09,8.09 0 0 0 -4.17,-4.59 z m -79.75,7.49 c -8.74,0 -16.110003,4.85 -16.110003,10.58 0,5.73 7.370003,10.58 16.110003,10.58 8.74,0 16.11,-4.84 16.11,-10.58 0,-5.74 -7.37,-10.58 -16.1,-10.58 z" id="path16" inkscape:connector-curvature="0" style="fill:#ffffff" />
   <path class="cls-1" d="m 252.23716,58 a 3.5,3.5 0 0 0 -3.62,-0.75 c -11.74,4.28 -30.53,8.09 -35.54,3.16 -12.69,-12.51 -27.5,-16.12 -44,-10.74 a 57.79,57.79 0 0 0 -26,16.85 c -8.86,-6.79 -21,-10.62 -34,-10.62 -11.060003,0 -21.660003,2.82 -30.100003,8 a 62.28,62.28 0 0 0 -19.09,-7.28 C 34.837157,51.5 2.5771572,79 1.2171572,80.16 a 3.5,3.5 0 0 0 -0.75000003,4.4 C 1.2971572,86 20.997157,119.85 45.927157,124.93 a 63.52,63.52 0 0 0 12.75,1.31 50.8,50.8 0 0 0 24.91,-6.09 59.81,59.81 0 0 0 25.470003,5.49 c 14.79,0 28.5,-5 37.39,-13.54 11.24,7.57 28.21,9.12 44.32,3.84 15.1,-4.94 23.7,-12.66 31.76,-28.47 0.85,-1.68 3.08,-2.36 6.95,-3.42 7.23,-2 18.16,-5 23.68,-22.45 a 3.52,3.52 0 0 0 -0.92,-3.6 z m -24.6,19.3 c -4.45,1.22 -9,2.47 -11.35,7 -7.19,14.11 -14.44,20.65 -27.7,25 -15.18,5 -31,3.19 -40.29,-4.54 a 3.5,3.5 0 0 0 -4.87,0.39 c -7.41,8.45 -20.25,13.5 -34.37,13.5 a 52.08,52.08 0 0 1 -24.000003,-5.58 3.49,3.49 0 0 0 -3.48,0.15 c -8.89,5.61 -21.69,7.43 -34.24,4.86 -18.19,-3.72 -34.29,-26.76 -39.2399998,-34.49 7.5599998,-6 32.1599998,-23.83 50.3699998,-20.12 a 54,54 0 0 1 18.61,7.53 3.49,3.49 0 0 0 3.88,0 c 7.59,-5.16 17.56,-8 28.100003,-8 12.69,0 24.4,4.08 32.11,11.19 a 3.5,3.5 0 0 0 5.21,-0.52 c 5.57,-7.71 14.4,-13.84 24.86,-17.24 14.21,-4.64 25.95,-1.76 36.93,9.06 4.54,4.48 13.3,5.5 26,3 3.47,-0.67 6.74,-1.5 9.47,-2.27 -4.4,7.91 -10.5,9.58 -16,11.08 z" id="path18" inkscape:connector-curvature="0" style="fill:#1d1d1b" />
   <path class="cls-2" d="m 64.937157,91.88 a 6.49,6.49 0 0 1 -0.14,1.39 c -0.54,2.55 -2.54,4.71 -5.66,6.08 a 20.33,20.33 0 0 1 -12.28,1 c -8.55,-1.79 -14.77,-8 -13.59,-13.66 0.95,-4.56 6.55,-7.54 13.19,-7.54 a 23,23 0 0 1 4.75,0.5 c 7.84,1.6 13.73,7.01 13.73,12.23 z" id="path20" inkscape:connector-curvature="0" style="fill:#ffffff" />
   <path class="cls-1" d="m 52.647157,72.76 c -12.47,-2.63 -24.24,3 -26.23,12.45 -1.99,9.45 6.53,19.33 19,22 a 30.39,30.39 0 0 0 6.25,0.66 25.71,25.71 0 0 0 10.33,-2.11 c 5.23,-2.31 8.67,-6.23 9.68,-11.05 1.96,-9.48 -6.56,-19.33 -19.03,-21.95 z m 12.15,20.51 c -0.54,2.55 -2.54,4.71 -5.66,6.08 a 20.33,20.33 0 0 1 -12.28,1 c -8.55,-1.79 -14.77,-8 -13.59,-13.66 0.95,-4.56 6.55,-7.54 13.19,-7.54 a 23,23 0 0 1 4.75,0.5 c 7.84,1.64 13.73,7 13.73,12.27 a 6.49,6.49 0 0 1 -0.14,1.35 z" id="path22" inkscape:connector-curvature="0" style="fill:#1d1d1b" />
   <path class="cls-2" d="m 91.107157,33 a 20.44,20.44 0 0 1 -9.4,8 c -3.17,1.22 -6.12,1.1 -8.29,-0.33 -4.79,-3.15 -4.79,-12 0,-19.27 3.6,-5.47 9,-8.81 13.57,-8.81 a 7.39,7.39 0 0 1 4.12,1.16 c 4.8,3.1 4.79,11.92 0,19.25 z" id="path24" inkscape:connector-curvature="0" style="fill:#ffffff" />
   <path class="cls-1" d="m 94.997157,7.85 c -8.1,-5.33 -20.38,-1 -27.38,9.65 -7,10.65 -6.11,23.64 2,29 a 14.33,14.33 0 0 0 8,2.32 18.62,18.62 0 0 0 6.7,-1.31 27.39,27.39 0 0 0 12.68,-10.69 27.61,27.61 0 0 0 4.710003,-15 C 101.66716,16 99.397157,10.76 94.997157,7.85 Z m -13.29,33.15 c -3.17,1.22 -6.12,1.1 -8.29,-0.33 -4.79,-3.15 -4.79,-12 0,-19.27 3.6,-5.47 9,-8.81 13.57,-8.81 a 7.39,7.39 0 0 1 4.12,1.16 c 4.79,3.15 4.78,12 0,19.27 a 20.44,20.44 0 0 1 -9.4,7.98 z" id="path26" inkscape:connector-curvature="0" style="fill:#1d1d1b" />
   <path class="cls-2" d="m 126.25716,39.13 c -5.72,0.47 -11.14,-6.49 -11.85,-15.19 -0.71,-8.7 3.52,-16.45 9.23,-16.94 5.71,-0.49 11.15,6.49 11.85,15.2 0.7,8.71 -3.49,16.47 -9.23,16.93 z" id="path28" inkscape:connector-curvature="0" style="fill:#ffffff" />
   <path class="cls-1" d="m 142.46716,21.65 c -0.99,-12.22 -9.09,-21.65 -18.29,-21.65 -0.36,0 -0.73,0 -1.1,0.05 -9.67,0.78 -16.68,11.75 -15.65,24.45 1,12.22 9.08,21.66 18.3,21.66 0.36,0 0.73,0 1.1,0 9.66,-0.84 16.68,-11.81 15.64,-24.51 z m -28.06,2.29 c -0.71,-8.71 3.52,-16.45 9.23,-16.92 5.71,-0.47 11.15,6.49 11.85,15.2 0.7,8.71 -3.49,16.45 -9.23,16.91 -5.74,0.46 -11.14,-6.49 -11.85,-15.19 z" id="path30" inkscape:connector-curvature="0" style="fill:#1d1d1b" />
   <path class="cls-2" d="m 162.74716,164.56 c -3.82,4.28 -12.55,3 -19.06,-2.85 a 20.37,20.37 0 0 1 -6.5,-10.47 c -0.74,-3.32 -0.19,-6.21 1.54,-8.15 a 8.42,8.42 0 0 1 6.45,-2.52 c 4,0 8.7,1.87 12.61,5.37 6.51,5.82 8.78,14.35 4.96,18.62 z" id="path32" inkscape:connector-curvature="0" style="fill:#ffffff" />
   <path class="cls-1" d="m 162.45716,140.72 c -9.5,-8.49 -22.48,-9.52 -28.94,-2.3 -3.28,3.67 -4.41,8.76 -3.17,14.34 a 27.45,27.45 0 0 0 8.65,14.17 26.49,26.49 0 0 0 17.29,7.07 15.3,15.3 0 0 0 11.71,-4.77 c 6.43,-7.23 4,-20.01 -5.54,-28.51 z m 0.29,23.84 c -3.82,4.28 -12.55,3 -19.06,-2.85 a 20.37,20.37 0 0 1 -6.5,-10.47 c -0.74,-3.32 -0.19,-6.21 1.54,-8.15 a 8.42,8.42 0 0 1 6.45,-2.52 c 4,0 8.7,1.87 12.61,5.37 6.51,5.82 8.78,14.35 4.96,18.62 z" id="path34" inkscape:connector-curvature="0" style="fill:#1d1d1b" />
   <path class="cls-2" d="m 129.43716,91.34 c 0,5.74 -7.38,10.58 -16.11,10.58 -8.73,0 -16.110003,-4.84 -16.110003,-10.58 0,-5.74 7.370003,-10.58 16.110003,-10.58 8.74,0 16.11,4.85 16.11,10.58 z" id="path36" inkscape:connector-curvature="0" style="fill:#ffffff" />
   <path class="cls-1" d="m 113.32716,73.76 c -12.75,0 -23.110003,7.89 -23.110003,17.58 0,9.69 10.360003,17.58 23.110003,17.58 12.75,0 23.11,-7.89 23.11,-17.58 0,-9.69 -10.37,-17.58 -23.11,-17.58 z m 0,28.16 c -8.74,0 -16.110003,-4.84 -16.110003,-10.58 0,-5.74 7.370003,-10.58 16.110003,-10.58 8.74,0 16.11,4.85 16.11,10.58 0,5.73 -7.38,10.58 -16.11,10.58 z" id="path38" inkscape:connector-curvature="0" style="fill:#1d1d1b" />
   <path class="cls-2" d="m 185.17716,92.88 c -8.31,2.68 -16.81,0.34 -18.58,-5.11 -1.77,-5.45 3.77,-12.34 12.08,-15 a 22.64,22.64 0 0 1 6.93,-1.12 16.42,16.42 0 0 1 7.47,1.64 8.09,8.09 0 0 1 4.18,4.59 c 1.74,5.44 -3.77,12.32 -12.08,15 z" id="path40" inkscape:connector-curvature="0" style="fill:#ffffff" />
   <path class="cls-1" d="m 203.91716,75.71 c -3,-9.22 -15.27,-13.54 -27.39,-9.62 -12.12,3.92 -19.53,14.6 -16.59,23.83 2.23,6.91 9.7,11.07 18.4,11.07 a 29.42,29.42 0 0 0 9,-1.45 c 10.31,-3.34 17.24,-11.54 17.24,-19.63 a 13.7,13.7 0 0 0 -0.66,-4.2 z m -37.32,12.06 c -1.76,-5.46 3.77,-12.34 12.08,-15 a 22.64,22.64 0 0 1 6.93,-1.12 16.42,16.42 0 0 1 7.47,1.64 8.09,8.09 0 0 1 4.18,4.59 c 1.76,5.46 -3.77,12.34 -12.08,15 -8.31,2.66 -16.81,0.34 -18.58,-5.11 z" id="path42" inkscape:connector-curvature="0" style="fill:#1d1d1b" />
</svg>
