<?xml version="1.0" encoding="UTF-8" standalone="no"?>
<svg
   xmlns:dc="http://purl.org/dc/elements/1.1/"
   xmlns:cc="http://creativecommons.org/ns#"
   xmlns:rdf="http://www.w3.org/1999/02/22-rdf-syntax-ns#"
   xmlns:svg="http://www.w3.org/2000/svg"
   xmlns="http://www.w3.org/2000/svg"
   xmlns:sodipodi="http://sodipodi.sourceforge.net/DTD/sodipodi-0.dtd"
   xmlns:inkscape="http://www.inkscape.org/namespaces/inkscape"
   id="Capa_1"
   data-name="Capa 1"
   viewBox="0 0 219.16499 279.92001"
   version="1.1"
   sodipodi:docname="SULFITOAK.svg"
   width="219.16499"
   height="279.92001"
   inkscape:version="0.92.5 (2060ec1f9f, 2020-04-08)">
  <metadata
     id="metadata47">
    <rdf:RDF>
      <cc:Work
         rdf:about="">
        <dc:format>image/svg+xml</dc:format>
        <dc:type
           rdf:resource="http://purl.org/dc/dcmitype/StillImage" />
      </cc:Work>
    </rdf:RDF>
  </metadata>
  <sodipodi:namedview
     pagecolor="#ffffff"
     bordercolor="#666666"
     borderopacity="1"
     objecttolerance="10"
     gridtolerance="10"
     guidetolerance="10"
     inkscape:pageopacity="0"
     inkscape:pageshadow="2"
     inkscape:window-width="855"
     inkscape:window-height="480"
     id="namedview45"
     showgrid="false"
     inkscape:zoom="0.7131202"
     inkscape:cx="109.5825"
     inkscape:cy="114.45"
     inkscape:window-x="0"
     inkscape:window-y="27"
     inkscape:window-maximized="0"
     inkscape:current-layer="Capa_1" />
  <defs
     id="defs4">
    <style
       id="style2">.cls-1{fill:#fff;}.cls-2{fill:#1d1d1b;}</style>
  </defs>
  <path
     class="cls-1"
     d="m 208.6375,233.78 -69.76,-120.06 h -58.59 l -69.77,120.06 a 26,26 0 0 0 22.49,39.07 h 153.15 a 26,26 0 0 0 22.48,-39.07 z M 83.3175,201 a 3.43,3.43 0 0 1 -6.17,-1.31 3.41,3.41 0 0 1 0.51,-2.58 l 0.06,-0.08 a 3.37,3.37 0 0 1 2.12,-1.38 3.21,3.21 0 0 1 0.68,-0.07 3.42,3.42 0 0 1 1.9,0.58 l 0.09,0.06 a 3.39,3.39 0 0 1 1.38,2.12 3.44,3.44 0 0 1 -0.57,2.66 z m 58.69,-1 a 3.43,3.43 0 1 1 -3.36,-4.14 3.33,3.33 0 0 1 0.7,0.07 3.42,3.42 0 0 1 2.11,1.4 l 0.07,0.09 a 3.39,3.39 0 0 1 0.48,2.52 z"
     id="path6"
     inkscape:connector-curvature="0"
     style="fill:#ffffff" />
  <path
     class="cls-1"
     d="m 142.0075,199.94 a 3.43,3.43 0 1 1 -3.36,-4.14 3.33,3.33 0 0 1 0.7,0.07 3.42,3.42 0 0 1 2.11,1.4 l 0.07,0.09 a 3.39,3.39 0 0 1 0.48,2.58 z"
     id="path26"
     inkscape:connector-curvature="0"
     style="fill:#ffffff" />
  <path
     class="cls-1"
     d="m 83.3175,201 a 3.43,3.43 0 0 1 -6.17,-1.31 3.41,3.41 0 0 1 0.51,-2.58 l 0.06,-0.08 a 3.37,3.37 0 0 1 2.12,-1.38 3.21,3.21 0 0 1 0.68,-0.07 3.42,3.42 0 0 1 1.9,0.58 l 0.09,0.06 a 3.39,3.39 0 0 1 1.38,2.12 3.44,3.44 0 0 1 -0.57,2.66 z"
     id="path28"
     inkscape:connector-curvature="0"
     style="fill:#ffffff" />
  <path
     class="cls-2"
     d="m 140.7875,189 a 10.46,10.46 0 0 0 -4.89,0.15 l -11.17,-16 a 21.42,21.42 0 1 0 -32.25,-2.66 19.89,19.89 0 0 0 2.19,2.51 l -11.31,15.93 a 10.44,10.44 0 1 0 -0.8,20.28 10.46,10.46 0 0 0 8.39,-10.21 10.36,10.36 0 0 0 -1.89,-6 l 11.31,-15.91 a 21.67,21.67 0 0 0 6.13,1.91 20.32,20.32 0 0 0 3.28,0.26 21.3,21.3 0 0 0 9.21,-2.1 l 11.17,16 a 10.21,10.21 0 0 0 -1.72,3.92 10.44,10.44 0 0 0 20.43,4.27 10.46,10.46 0 0 0 -8.08,-12.35 z m -57.47,12 a 3.43,3.43 0 0 1 -6.17,-1.31 3.41,3.41 0 0 1 0.51,-2.58 l 0.06,-0.08 a 3.37,3.37 0 0 1 2.12,-1.38 3.21,3.21 0 0 1 0.68,-0.07 3.42,3.42 0 0 1 1.9,0.58 l 0.09,0.06 a 3.39,3.39 0 0 1 1.38,2.12 3.44,3.44 0 0 1 -0.57,2.66 z m 40.71,-41 a 14.53,14.53 0 0 1 -6,9.63 14.93,14.93 0 0 1 -3.08,1.67 14.39,14.39 0 0 1 -7.34,0.78 14.48,14.48 0 0 1 -6.16,-2.51 13.33,13.33 0 0 1 -2.59,-2.38 14.42,14.42 0 0 1 10.92,-23.81 14,14 0 0 1 2.23,0.17 14.44,14.44 0 0 1 12.02,16.45 z m 18,39.92 a 3.43,3.43 0 1 1 -3.36,-4.14 3.33,3.33 0 0 1 0.7,0.07 3.42,3.42 0 0 1 2.11,1.4 l 0.07,0.09 a 3.39,3.39 0 0 1 0.46,2.6 z"
     id="path30"
     inkscape:connector-curvature="0"
     style="fill:#1d1d1b" />
  <path
     class="cls-2"
     d="m 99.3575,227.55 c -2.61,-0.54 -3.93,-0.75 -3.93,-2 0,-1.25 1.08,-1.7 2.67,-1.7 a 7.21,7.21 0 0 1 5.43,2.45 l 3.18,-3.95 a 11.43,11.43 0 0 0 -8.46,-3.35 c -4.77,0 -8.58,2.72 -8.58,7.14 0,4.42 3.45,5.54 6.6,6.17 3.3,0.66 4.83,0.84 4.83,2.22 0,1.38 -1.2,1.89 -3,1.89 a 8.71,8.71 0 0 1 -6.45,-3 l -3.21,4.26 c 1.8,2.22 5.91,3.6 9.42,3.6 5,0 9.06,-2.67 9.06,-7.32 0,-4.65 -4.2,-5.72 -7.56,-6.41 z"
     id="path32"
     inkscape:connector-curvature="0"
     style="fill:#1d1d1b" />
  <path
     class="cls-2"
     d="m 118.4375,219 c -6.21,0 -10.53,4.64 -10.53,11.12 0,6.48 4.32,11.13 10.53,11.13 6.21,0 10.56,-4.65 10.56,-11.13 0,-6.48 -4.32,-11.12 -10.56,-11.12 z m 0,17.15 c -2.73,0 -4.62,-2.28 -4.62,-6 0,-3.72 1.89,-6 4.62,-6 2.73,0 4.65,2.27 4.65,6 0,3.73 -1.89,6.04 -4.65,6.04 z"
     id="path34"
     inkscape:connector-curvature="0"
     style="fill:#1d1d1b" />
  <path
     class="cls-2"
     d="m 136.4375,236.85 c 1.33,-1.09 2.29,-2.24 2.29,-3.82 0,-2.23 -1.68,-3.78 -4.31,-3.78 -2.4,0 -4.45,1.54 -4.45,3.92 a 3.42,3.42 0 0 0 0.21,1.23 h 3 a 2.91,2.91 0 0 1 -0.17,-1 1.35,1.35 0 0 1 1.32,-1.48 1.25,1.25 0 0 1 1.29,1.33 c 0,0.93 -0.84,1.67 -2.28,2.85 l -3.22,2.66 v 2.17 h 8.6 v -2.65 h -4 z"
     id="path36"
     inkscape:connector-curvature="0"
     style="fill:#1d1d1b" />
  <path
     class="cls-1"
     d="m 146.0775,9.54 v 14.37 a 2.54,2.54 0 0 1 -2.53,2.54 h -67.93 a 2.54,2.54 0 0 1 -2.53,-2.54 V 9.54 A 2.54,2.54 0 0 1 75.6175,7 h 67.93 a 2.54,2.54 0 0 1 2.53,2.54 z"
     id="path38"
     inkscape:connector-curvature="0"
     style="fill:#ffffff" />
  <rect
     class="cls-1"
     x="81.747505"
     y="33.450001"
     width="55.669998"
     height="73.269997"
     id="rect40"
     style="fill:#ffffff" />
  <path
     class="cls-2"
     d="m 214.6975,230.27 -70.28,-121 V 33.41 a 9.54,9.54 0 0 0 8.66,-9.5 V 9.54 A 9.55,9.55 0 0 0 143.5475,0 h -67.93 a 9.54,9.54 0 0 0 -9.4,8 v 17.5 a 9.55,9.55 0 0 0 8.53,7.94 v 75.9 l -70.2800003,121 A 33,33 0 0 0 33.0075,279.92 h 153.15 a 33,33 0 0 0 28.54,-49.58 z M 73.0875,23.91 V 9.54 A 2.54,2.54 0 0 1 75.6175,7 h 67.93 a 2.54,2.54 0 0 1 2.53,2.54 v 14.37 a 2.54,2.54 0 0 1 -2.53,2.54 h -67.93 a 2.54,2.54 0 0 1 -2.53,-2.54 z m 64.33,9.54 v 73.27 h -55.67 V 33.45 Z m 71.28,226.37 a 25.74,25.74 0 0 1 -22.54,13 h -153.15 a 26,26 0 0 1 -22.49,-39.07 l 69.77,-120.03 h 58.59 l 69.76,120.06 a 25.71,25.71 0 0 1 0.06,26.04 z"
     id="path42"
     inkscape:connector-curvature="0"
     style="fill:#1d1d1b" />
</svg>
