<?xml version="1.0" encoding="UTF-8" standalone="no"?>
<svg
   xmlns:dc="http://purl.org/dc/elements/1.1/"
   xmlns:cc="http://creativecommons.org/ns#"
   xmlns:rdf="http://www.w3.org/1999/02/22-rdf-syntax-ns#"
   xmlns:svg="http://www.w3.org/2000/svg"
   xmlns="http://www.w3.org/2000/svg"
   xmlns:sodipodi="http://sodipodi.sourceforge.net/DTD/sodipodi-0.dtd"
   xmlns:inkscape="http://www.inkscape.org/namespaces/inkscape"
   id="Capa_1"
   data-name="Capa 1"
   viewBox="0 0 106.38 312.39002"
   version="1.1"
   sodipodi:docname="ZIAPEA.svg"
   width="106.38"
   height="312.39001"
   inkscape:version="0.92.5 (2060ec1f9f, 2020-04-08)">
  <metadata
     id="metadata33">
    <rdf:RDF>
      <cc:Work
         rdf:about="">
        <dc:format>image/svg+xml</dc:format>
        <dc:type
           rdf:resource="http://purl.org/dc/dcmitype/StillImage" />
      </cc:Work>
    </rdf:RDF>
  </metadata>
  <sodipodi:namedview
     pagecolor="#ffffff"
     bordercolor="#666666"
     borderopacity="1"
     objecttolerance="10"
     gridtolerance="10"
     guidetolerance="10"
     inkscape:pageopacity="0"
     inkscape:pageshadow="2"
     inkscape:window-width="855"
     inkscape:window-height="480"
     id="namedview31"
     showgrid="false"
     inkscape:zoom="0.63859726"
     inkscape:cx="53.46"
     inkscape:cy="127.61"
     inkscape:window-x="0"
     inkscape:window-y="27"
     inkscape:window-maximized="0"
     inkscape:current-layer="Capa_1" />
  <defs
     id="defs4">
    <style
       id="style2">.cls-1{fill:#fff;}.cls-2{fill:#1d1d1b;}</style>
  </defs>
  <path
     class="cls-1"
     d="M 92.11,75.62 H 14.28 A 7.28,7.28 0 0 0 7,82.89 v 215.22 a 7.28,7.28 0 0 0 7.28,7.28 h 77.83 a 7.28,7.28 0 0 0 7.27,-7.28 V 82.89 A 7.28,7.28 0 0 0 92.11,75.62 Z M 16.5,223 a 3.5,3.5 0 0 1 -7,0 v -85.72 a 3.5,3.5 0 0 1 7,0 z m 0,-99.3 a 3.5,3.5 0 0 1 -7,0 v -11.9 a 3.5,3.5 0 0 1 7,0 z"
     id="path6"
     inkscape:connector-curvature="0"
     style="fill:#ffffff" />
  <rect
     class="cls-1"
     x="26.01"
     y="55.939999"
     width="54.360001"
     height="12.68"
     id="rect8"
     style="fill:#ffffff" />
  <polygon
     class="cls-1"
     points="49.4,7 58.52,7 66.56,48.94 41.36,48.94 "
     id="polygon10"
     style="fill:#ffffff"
     transform="translate(-0.77)" />
  <path
     class="cls-2"
     d="M 92.11,68.62 H 87.37 V 52.44 a 3.5,3.5 0 0 0 -3.5,-3.5 h -11 L 64.08,2.84 A 3.51,3.51 0 0 0 60.64,0 H 45.74 A 3.51,3.51 0 0 0 42.3,2.84 l -8.84,46.1 H 22.51 a 3.5,3.5 0 0 0 -3.5,3.5 V 68.62 H 14.28 A 14.29,14.29 0 0 0 0,82.89 v 215.22 a 14.29,14.29 0 0 0 14.28,14.28 h 77.83 a 14.29,14.29 0 0 0 14.27,-14.28 V 82.89 A 14.28,14.28 0 0 0 92.11,68.62 Z M 48.63,7 h 9.12 l 8,41.94 H 40.59 Z M 26.01,55.94 H 80.37 V 68.62 H 26.01 Z m 73.37,242.17 a 7.28,7.28 0 0 1 -7.27,7.28 H 14.28 A 7.28,7.28 0 0 1 7,298.11 V 82.89 a 7.28,7.28 0 0 1 7.28,-7.27 h 77.83 a 7.28,7.28 0 0 1 7.27,7.27 z"
     id="path12"
     inkscape:connector-curvature="0"
     style="fill:#1d1d1b" />
  <path
     class="cls-2"
     d="m 16.5,111.8 v 11.91 a 3.5,3.5 0 0 1 -7,0 V 111.8 a 3.5,3.5 0 0 1 7,0 z"
     id="path14"
     inkscape:connector-curvature="0"
     style="fill:#1d1d1b" />
  <path
     class="cls-2"
     d="M 16.5,137.28 V 223 a 3.5,3.5 0 0 1 -7,0 v -85.72 a 3.5,3.5 0 0 1 7,0 z"
     id="path16"
     inkscape:connector-curvature="0"
     style="fill:#1d1d1b" />
</svg>
